<svg xmlns="http://www.w3.org/2000/svg" xmlns:xlink="http://www.w3.org/1999/xlink" width="7649" zoomAndPan="magnify" viewBox="0 0 5736.75 2343.749891" height="3125" preserveAspectRatio="xMidYMid meet" version="1.0"><path fill="#000000" d="M 397.578125 276.429688 L 382.105469 340.15625 C 376.597656 330.453125 368.992188 325.46875 358.765625 325.46875 C 341.71875 325.46875 326.769531 334.121094 313.660156 351.695312 C 301.59375 367.953125 295.5625 385 295.5625 402.570312 C 295.5625 425.648438 308.9375 445.054688 330.96875 445.054688 C 342.242188 445.054688 353.257812 439.023438 363.75 426.695312 C 366.632812 436.664062 375.550781 445.054688 387.875 445.054688 C 405.96875 445.054688 411.738281 423.550781 415.671875 404.144531 C 415.671875 401.785156 414.363281 400.472656 411.738281 400.472656 C 409.378906 400.472656 407.804688 402.308594 407.019531 405.980469 C 401.773438 426.695312 395.480469 437.1875 388.398438 437.1875 C 383.941406 437.1875 381.582031 433.515625 381.582031 426.433594 C 381.582031 422.5 382.105469 418.304688 383.15625 414.109375 L 420.394531 264.101562 L 420.394531 263.054688 C 419.605469 261.21875 418.035156 260.167969 415.9375 260.167969 C 409.902344 260.167969 398.890625 261.21875 383.15625 263.054688 C 380.269531 263.316406 378.695312 265.414062 378.695312 269.085938 C 378.695312 271.707031 381.054688 273.019531 385.777344 273.019531 C 390.761719 273.019531 397.578125 272.757812 397.578125 276.429688 M 374.5 343.5625 C 377.121094 349.070312 378.433594 352.742188 378.433594 355.101562 C 378.171875 356.152344 377.910156 357.464844 377.648438 359.300781 L 364.796875 410.175781 C 364.011719 413.058594 362.175781 416.207031 359.8125 419.355469 C 350.109375 431.15625 340.671875 437.1875 331.492188 437.1875 C 321.261719 437.1875 316.019531 429.320312 316.019531 413.847656 C 316.019531 407.554688 317.59375 398.113281 320.738281 385.523438 C 326.246094 363.234375 334.113281 348.023438 343.816406 339.890625 C 349.0625 335.433594 354.042969 333.335938 359.027344 333.335938 C 366.109375 333.335938 371.351562 336.746094 374.5 343.5625 Z M 374.5 343.5625 " fill-opacity="1" fill-rule="nonzero"/><path fill="#000000" d="M 559.648438 344.351562 C 559.648438 332.289062 547.847656 326.253906 534.734375 326.253906 C 523.457031 326.253906 514.542969 332.289062 507.722656 344.351562 C 502.214844 332.289062 493.039062 326.253906 479.664062 326.253906 C 466.8125 326.253906 456.324219 332.289062 447.929688 344.089844 C 440.847656 354.316406 437.179688 361.921875 437.179688 366.902344 C 437.179688 369.265625 438.488281 370.574219 441.113281 370.574219 C 443.472656 370.574219 445.046875 369.265625 445.570312 366.902344 C 450.554688 351.695312 461.566406 333.859375 479.136719 333.859375 C 487.792969 333.859375 491.988281 339.367188 491.988281 350.121094 C 491.988281 355.628906 487.269531 376.082031 478.089844 411.222656 C 473.628906 428.796875 465.761719 437.449219 454.488281 437.449219 C 450.816406 437.449219 447.40625 436.664062 444.519531 435.351562 C 451.339844 432.730469 454.75 428.007812 454.75 421.191406 C 454.75 414.371094 451.339844 410.960938 444.257812 410.960938 C 435.605469 410.960938 429.046875 418.304688 429.046875 426.960938 C 429.046875 439.023438 441.375 445.054688 454.222656 445.054688 C 465.238281 445.054688 474.15625 439.023438 481.234375 426.960938 C 486.21875 439.023438 495.660156 445.054688 509.296875 445.054688 C 521.886719 445.054688 532.375 439.023438 540.765625 427.222656 C 547.847656 416.992188 551.519531 409.386719 551.519531 404.40625 C 551.519531 402.046875 550.207031 400.734375 547.585938 400.734375 C 545.226562 400.734375 543.914062 402.046875 543.128906 404.40625 C 538.667969 419.355469 526.867188 437.449219 509.820312 437.449219 C 501.167969 437.449219 496.707031 432.203125 496.707031 421.453125 C 496.707031 418.042969 498.019531 410.699219 500.90625 398.898438 L 509.820312 363.496094 C 514.804688 343.824219 522.933594 333.859375 534.472656 333.859375 C 538.144531 333.859375 541.554688 334.648438 544.4375 335.957031 C 537.359375 338.320312 533.949219 343.039062 533.949219 350.121094 C 533.949219 356.9375 537.621094 360.347656 544.699219 360.347656 C 553.09375 360.347656 559.648438 352.742188 559.648438 344.351562 Z M 559.648438 344.351562 " fill-opacity="1" fill-rule="nonzero"/><path fill="#000000" d="M 425.246094 633.613281 L 409.773438 697.339844 C 404.265625 687.636719 396.660156 682.652344 386.433594 682.652344 C 369.386719 682.652344 354.4375 691.308594 341.324219 708.878906 C 329.261719 725.136719 323.230469 742.183594 323.230469 759.753906 C 323.230469 782.832031 336.605469 802.238281 358.632812 802.238281 C 369.910156 802.238281 380.925781 796.207031 391.414062 783.882812 C 394.300781 793.847656 403.214844 802.238281 415.542969 802.238281 C 433.636719 802.238281 439.40625 780.734375 443.339844 761.328125 C 443.339844 758.96875 442.03125 757.65625 439.40625 757.65625 C 437.046875 757.65625 435.472656 759.492188 434.6875 763.164062 C 429.441406 783.882812 423.148438 794.371094 416.066406 794.371094 C 411.609375 794.371094 409.25 790.699219 409.25 783.621094 C 409.25 779.683594 409.773438 775.488281 410.820312 771.292969 L 448.0625 621.285156 L 448.0625 620.238281 C 447.273438 618.402344 445.703125 617.351562 443.601562 617.351562 C 437.570312 617.351562 426.558594 618.402344 410.820312 620.238281 C 407.9375 620.5 406.363281 622.597656 406.363281 626.269531 C 406.363281 628.890625 408.722656 630.203125 413.445312 630.203125 C 418.425781 630.203125 425.246094 629.941406 425.246094 633.613281 M 402.167969 700.75 C 404.789062 706.253906 406.101562 709.925781 406.101562 712.289062 C 405.839844 713.335938 405.578125 714.648438 405.316406 716.484375 L 392.464844 767.359375 C 391.675781 770.246094 389.84375 773.390625 387.480469 776.539062 C 377.777344 788.339844 368.335938 794.371094 359.160156 794.371094 C 348.929688 794.371094 343.6875 786.503906 343.6875 771.03125 C 343.6875 764.738281 345.257812 755.296875 348.40625 742.707031 C 353.914062 720.417969 361.78125 705.207031 371.484375 697.078125 C 376.730469 692.617188 381.710938 690.519531 386.695312 690.519531 C 393.777344 690.519531 399.019531 693.929688 402.167969 700.75 Z M 402.167969 700.75 " fill-opacity="1" fill-rule="nonzero"/><path fill="#000000" d="M 535.652344 689.472656 C 535.652344 687.109375 533.03125 685.800781 527.523438 685.800781 L 506.28125 685.800781 C 513.097656 658.527344 516.507812 644.363281 516.507812 643.316406 C 516.507812 637.808594 513.625 635.1875 508.117188 635.1875 C 502.085938 635.1875 498.414062 638.59375 496.839844 645.414062 L 487.136719 685.800781 L 463.796875 685.800781 C 458.027344 685.800781 455.140625 686.0625 455.140625 691.570312 C 455.140625 694.453125 457.765625 695.765625 463.273438 695.765625 L 484.515625 695.765625 C 471.664062 746.902344 465.371094 773.914062 465.371094 777.324219 C 465.371094 792.011719 475.335938 802.238281 490.019531 802.238281 C 499.988281 802.238281 508.640625 797.78125 516.246094 788.601562 C 522.539062 780.996094 527 773.652344 529.882812 766.574219 C 530.933594 763.6875 531.457031 762.113281 531.457031 761.328125 C 531.457031 758.96875 530.144531 757.65625 527.523438 757.65625 C 525.425781 757.65625 523.851562 758.96875 522.800781 761.851562 C 513.886719 783.621094 503.132812 794.371094 490.285156 794.371094 C 485.824219 794.371094 483.464844 790.699219 483.464844 783.621094 C 483.464844 779.683594 483.988281 775.488281 485.039062 771.292969 L 503.660156 695.765625 L 527 695.765625 C 533.816406 695.765625 535.652344 695.242188 535.652344 689.472656 Z M 535.652344 689.472656 " fill-opacity="1" fill-rule="nonzero"/><path fill="#000000" d="M 258.847656 561.757812 L 597.675781 561.757812 L 597.675781 546.019531 L 258.847656 546.019531 Z M 258.847656 561.757812 " fill-opacity="1" fill-rule="nonzero"/><path fill="#000000" d="M 885.046875 523.207031 L 722.976562 523.207031 C 718.78125 523.207031 716.683594 525.304688 716.683594 529.238281 C 716.683594 533.171875 718.78125 535.269531 722.976562 535.269531 L 885.046875 535.269531 C 889.246094 535.269531 891.34375 533.171875 891.34375 529.238281 C 891.34375 526.089844 888.457031 523.207031 885.046875 523.207031 M 885.046875 572.507812 L 722.976562 572.507812 C 718.78125 572.507812 716.683594 574.605469 716.683594 578.539062 C 716.683594 582.472656 718.78125 584.570312 722.976562 584.570312 L 885.046875 584.570312 C 889.246094 584.570312 891.34375 582.472656 891.34375 578.539062 C 891.34375 575.128906 888.457031 572.507812 885.046875 572.507812 Z M 885.046875 572.507812 " fill-opacity="1" fill-rule="nonzero"/><path fill="#000000" d="M 1062.277344 684.488281 C 1064.636719 684.488281 1065.949219 683.175781 1065.949219 680.816406 C 1065.949219 680.03125 1065.425781 678.980469 1064.636719 677.933594 C 1051 667.441406 1039.984375 650.132812 1031.855469 626.269531 C 1024.773438 605.550781 1021.105469 585.097656 1021.105469 564.902344 L 1021.105469 542.875 C 1021.105469 522.679688 1024.773438 502.226562 1031.855469 481.507812 C 1039.984375 457.644531 1051 440.335938 1064.636719 429.84375 C 1065.425781 429.058594 1065.949219 428.007812 1065.949219 426.960938 C 1065.949219 424.597656 1064.636719 423.289062 1062.277344 423.289062 C 1062.015625 423.289062 1061.226562 423.550781 1060.441406 424.074219 C 1044.707031 436.136719 1031.59375 453.972656 1020.839844 477.835938 C 1010.613281 500.652344 1005.367188 522.15625 1005.367188 542.875 L 1005.367188 564.902344 C 1005.367188 585.621094 1010.613281 607.125 1020.839844 629.941406 C 1031.59375 653.804688 1044.707031 671.636719 1060.441406 683.703125 C 1061.226562 684.226562 1062.015625 684.488281 1062.277344 684.488281 Z M 1062.277344 684.488281 " fill-opacity="1" fill-rule="nonzero"/><path fill="#000000" d="M 1123.382812 595.324219 L 1118.921875 595.847656 C 1131.511719 583.523438 1141.214844 574.605469 1147.769531 568.574219 L 1172.945312 545.234375 C 1178.976562 539.726562 1185.273438 532.910156 1191.304688 525.304688 C 1199.433594 515.335938 1203.367188 509.304688 1203.367188 507.207031 C 1203.367188 504.847656 1202.054688 503.535156 1199.433594 503.535156 C 1197.597656 503.535156 1196.023438 504.585938 1194.714844 506.945312 C 1188.15625 517.699219 1182.125 522.941406 1176.355469 522.941406 C 1170.585938 522.941406 1166.390625 518.222656 1164.03125 515.074219 C 1157.734375 507.46875 1151.441406 503.535156 1145.410156 503.535156 C 1138.589844 503.535156 1131.511719 506.683594 1124.167969 513.5 C 1116.824219 520.320312 1113.152344 527.140625 1113.152344 533.957031 C 1113.152344 536.578125 1114.464844 537.890625 1117.347656 537.890625 C 1119.183594 537.890625 1120.757812 536.578125 1121.808594 534.21875 C 1124.691406 526.613281 1131.773438 522.941406 1142.527344 522.941406 C 1146.195312 522.941406 1151.441406 524.253906 1158.523438 526.613281 C 1164.816406 528.976562 1170.847656 530.285156 1176.355469 530.546875 C 1161.667969 544.972656 1150.394531 555.460938 1142.261719 562.542969 L 1118.921875 584.308594 C 1114.988281 588.242188 1110.007812 593.488281 1104.5 600.042969 C 1096.371094 610.273438 1092.171875 616.304688 1092.171875 618.664062 C 1092.171875 621.023438 1093.484375 622.335938 1096.371094 622.335938 C 1097.941406 622.335938 1099.515625 621.023438 1101.351562 618.402344 C 1107.910156 608.175781 1114.988281 602.929688 1122.332031 602.929688 C 1126.527344 602.929688 1131.25 606.074219 1136.492188 612.632812 C 1141.738281 619.1875 1147.769531 622.335938 1153.800781 622.335938 C 1162.71875 622.335938 1171.636719 617.613281 1181.078125 608.4375 C 1190.515625 599.257812 1195.238281 590.339844 1195.238281 581.6875 C 1195.238281 579.328125 1193.925781 578.015625 1191.042969 578.015625 C 1189.207031 578.015625 1187.632812 579.328125 1186.320312 581.949219 C 1182.386719 593.226562 1171.109375 602.929688 1156.425781 602.929688 C 1150.128906 602.929688 1129.675781 595.324219 1123.382812 595.324219 Z M 1123.382812 595.324219 " fill-opacity="1" fill-rule="nonzero"/><path fill="#000000" d="M 1444.691406 548.644531 L 1282.621094 548.644531 C 1278.421875 548.644531 1276.324219 550.480469 1276.324219 553.886719 C 1276.324219 557.296875 1278.421875 559.132812 1282.621094 559.132812 L 1444.691406 559.132812 C 1448.886719 559.132812 1450.984375 557.296875 1450.984375 553.886719 C 1450.984375 550.742188 1447.835938 548.644531 1444.691406 548.644531 Z M 1444.691406 548.644531 " fill-opacity="1" fill-rule="nonzero"/><path fill="#000000" d="M 1635.921875 434.300781 C 1602.09375 434.300781 1579.539062 474.425781 1571.671875 506.160156 L 1531.808594 666.132812 C 1531.808594 669.015625 1533.121094 670.328125 1535.480469 670.328125 L 1536.792969 670.328125 C 1538.628906 670.328125 1539.9375 669.539062 1540.203125 667.703125 L 1556.984375 600.042969 C 1562.753906 615.253906 1574.03125 622.859375 1590.816406 622.859375 C 1607.074219 622.859375 1622.023438 617.878906 1635.398438 607.648438 C 1654.019531 593.75 1663.457031 575.65625 1663.457031 553.886719 C 1663.457031 536.316406 1657.425781 523.207031 1645.363281 514.550781 C 1660.3125 505.371094 1669.753906 493.570312 1673.160156 479.410156 C 1673.949219 476 1674.472656 472.589844 1674.472656 469.707031 C 1674.472656 447.9375 1656.902344 434.300781 1635.921875 434.300781 M 1604.191406 514.8125 C 1605.5 514.027344 1610.222656 513.765625 1617.828125 513.765625 C 1619.664062 513.765625 1621.238281 514.027344 1623.070312 514.289062 C 1620.449219 514.8125 1618.089844 515.074219 1615.730469 515.074219 L 1611.007812 515.074219 C 1608.125 515.074219 1605.765625 515.074219 1604.191406 514.8125 M 1562.753906 583.261719 C 1562.753906 579.0625 1563.277344 574.867188 1564.328125 570.671875 L 1579.800781 507.730469 C 1586.882812 479.410156 1605.765625 442.433594 1635.660156 442.433594 C 1650.609375 442.433594 1657.953125 450.039062 1657.953125 464.984375 C 1657.953125 468.65625 1657.425781 472.851562 1656.117188 477.835938 C 1652.445312 492.523438 1645.625 503.011719 1635.398438 509.042969 C 1629.628906 506.945312 1623.859375 505.898438 1618.089844 505.898438 C 1606.550781 505.898438 1594.75 506.160156 1594.75 515.601562 C 1594.75 517.4375 1595.535156 519.007812 1596.847656 520.058594 C 1599.207031 521.894531 1605.238281 522.941406 1615.46875 522.941406 C 1622.023438 522.941406 1628.578125 521.894531 1634.609375 519.796875 C 1641.691406 525.566406 1645.363281 534.480469 1645.363281 546.546875 C 1645.363281 553.101562 1644.316406 560.707031 1642.214844 568.835938 C 1636.183594 592.4375 1618.351562 614.992188 1591.078125 614.992188 C 1573.246094 614.992188 1562.753906 601.617188 1562.753906 583.261719 Z M 1562.753906 583.261719 " fill-opacity="1" fill-rule="nonzero"/><path fill="#000000" d="M 1694.929688 683.703125 C 1710.664062 671.636719 1723.777344 653.804688 1734.527344 629.941406 C 1744.757812 607.125 1750 585.621094 1750 564.902344 L 1750 542.875 C 1750 522.15625 1744.757812 500.652344 1734.527344 477.835938 C 1723.777344 453.972656 1710.664062 436.136719 1694.929688 424.074219 C 1694.140625 423.550781 1693.355469 423.289062 1693.09375 423.289062 C 1690.734375 423.289062 1689.421875 424.597656 1689.421875 426.960938 C 1689.421875 428.007812 1689.945312 429.058594 1690.734375 429.84375 C 1704.371094 440.335938 1715.382812 457.644531 1723.515625 481.507812 C 1730.59375 502.226562 1734.265625 522.679688 1734.265625 542.875 L 1734.265625 564.902344 C 1734.265625 585.097656 1730.59375 605.550781 1723.515625 626.269531 C 1715.382812 650.132812 1704.371094 667.441406 1690.734375 677.933594 C 1689.945312 678.980469 1689.421875 680.03125 1689.421875 680.816406 C 1689.421875 683.175781 1690.734375 684.488281 1693.09375 684.488281 C 1693.355469 684.488281 1694.140625 684.226562 1694.929688 683.703125 Z M 1694.929688 683.703125 " fill-opacity="1" fill-rule="nonzero"/><path fill="#000000" d="M 1914.695312 521.632812 C 1914.695312 509.566406 1902.894531 503.535156 1889.78125 503.535156 C 1878.503906 503.535156 1869.585938 509.566406 1862.769531 521.632812 C 1857.261719 509.566406 1848.082031 503.535156 1834.707031 503.535156 C 1821.859375 503.535156 1811.367188 509.566406 1802.976562 521.371094 C 1795.894531 531.597656 1792.222656 539.203125 1792.222656 544.183594 C 1792.222656 546.546875 1793.535156 547.855469 1796.15625 547.855469 C 1798.515625 547.855469 1800.089844 546.546875 1800.617188 544.183594 C 1805.597656 528.976562 1816.613281 511.140625 1834.183594 511.140625 C 1842.835938 511.140625 1847.035156 516.648438 1847.035156 527.402344 C 1847.035156 532.910156 1842.3125 553.363281 1833.132812 588.503906 C 1828.675781 606.074219 1820.808594 614.730469 1809.53125 614.730469 C 1805.859375 614.730469 1802.453125 613.945312 1799.566406 612.632812 C 1806.386719 610.011719 1809.792969 605.289062 1809.792969 598.472656 C 1809.792969 591.652344 1806.386719 588.242188 1799.304688 588.242188 C 1790.648438 588.242188 1784.09375 595.585938 1784.09375 604.242188 C 1784.09375 616.304688 1796.417969 622.335938 1809.269531 622.335938 C 1820.285156 622.335938 1829.199219 616.304688 1836.28125 604.242188 C 1841.265625 616.304688 1850.707031 622.335938 1864.34375 622.335938 C 1876.929688 622.335938 1887.421875 616.304688 1895.8125 604.503906 C 1902.894531 594.273438 1906.566406 586.667969 1906.566406 581.6875 C 1906.566406 579.328125 1905.253906 578.015625 1902.628906 578.015625 C 1900.269531 578.015625 1898.960938 579.328125 1898.171875 581.6875 C 1893.714844 596.636719 1881.914062 614.730469 1864.867188 614.730469 C 1856.210938 614.730469 1851.753906 609.484375 1851.753906 598.734375 C 1851.753906 595.324219 1853.066406 587.980469 1855.949219 576.179688 L 1864.867188 540.777344 C 1869.847656 521.105469 1877.980469 511.140625 1889.519531 511.140625 C 1893.191406 511.140625 1896.597656 511.929688 1899.484375 513.238281 C 1892.402344 515.601562 1888.992188 520.320312 1888.992188 527.402344 C 1888.992188 534.21875 1892.664062 537.628906 1899.746094 537.628906 C 1908.136719 537.628906 1914.695312 530.023438 1914.695312 521.632812 Z M 1914.695312 521.632812 " fill-opacity="1" fill-rule="nonzero"/><path fill="#000000" d="M 2167.816406 548.644531 L 2005.746094 548.644531 C 2001.550781 548.644531 1999.453125 550.480469 1999.453125 553.886719 C 1999.453125 557.296875 2001.550781 559.132812 2005.746094 559.132812 L 2167.816406 559.132812 C 2172.015625 559.132812 2174.113281 557.296875 2174.113281 553.886719 C 2174.113281 550.742188 2170.964844 548.644531 2167.816406 548.644531 Z M 2167.816406 548.644531 " fill-opacity="1" fill-rule="nonzero"/><path fill="#000000" d="M 2365.605469 445.316406 C 2365.605469 441.382812 2363.507812 438.761719 2359.3125 437.710938 C 2345.9375 434.300781 2335.972656 432.730469 2329.679688 432.730469 C 2311.058594 432.730469 2299.78125 443.21875 2299.78125 460.527344 C 2299.78125 470.753906 2304.765625 485.441406 2314.992188 504.585938 C 2287.980469 511.402344 2267 535.269531 2260.445312 561.757812 C 2259.132812 567.261719 2258.347656 572.769531 2258.347656 577.753906 C 2258.347656 587.71875 2260.707031 596.636719 2265.6875 604.242188 C 2273.558594 616.304688 2285.097656 622.335938 2300.042969 622.335938 C 2311.058594 622.335938 2321.023438 617.351562 2330.203125 607.125 C 2344.625 590.601562 2351.96875 569.625 2351.96875 544.710938 C 2351.96875 528.710938 2346.726562 514.027344 2335.972656 500.652344 L 2334.136719 498.292969 C 2317.089844 476.261719 2308.699219 461.578125 2308.699219 454.234375 C 2308.699219 452.660156 2308.960938 451.347656 2309.746094 450.300781 C 2312.371094 445.578125 2316.566406 443.21875 2322.597656 443.480469 C 2327.054688 443.480469 2332.5625 445.578125 2339.121094 449.511719 C 2347.25 454.496094 2352.230469 456.855469 2354.066406 456.855469 C 2359.835938 456.855469 2365.605469 452.136719 2365.605469 445.316406 M 2276.179688 585.097656 C 2276.179688 570.148438 2279.851562 555.722656 2287.457031 541.5625 C 2295.585938 525.828125 2306.074219 515.863281 2318.925781 511.929688 C 2324.695312 521.894531 2328.628906 532.121094 2330.988281 542.347656 C 2331.777344 546.28125 2332.039062 550.742188 2332.039062 555.199219 C 2332.039062 562.542969 2331.25 569.359375 2329.679688 575.917969 C 2323.121094 601.617188 2313.15625 614.46875 2300.304688 614.46875 C 2285.359375 614.46875 2276.179688 602.140625 2276.179688 585.097656 Z M 2276.179688 585.097656 " fill-opacity="1" fill-rule="nonzero"/><path fill="#000000" d="M 2408.355469 503.535156 C 2396.550781 503.535156 2387.375 510.09375 2380.816406 523.207031 C 2375.835938 533.433594 2373.210938 540.511719 2373.210938 544.449219 C 2373.210938 546.808594 2374.523438 548.117188 2377.40625 548.117188 C 2381.078125 548.117188 2381.34375 546.546875 2382.390625 542.613281 C 2388.421875 521.894531 2396.816406 511.402344 2407.566406 511.402344 C 2410.976562 511.402344 2412.8125 513.765625 2412.8125 518.484375 C 2412.8125 522.679688 2411.5 528.710938 2408.617188 536.316406 C 2398.652344 563.328125 2393.667969 581.425781 2393.667969 591.128906 C 2393.667969 611.058594 2405.992188 622.859375 2426.1875 622.859375 C 2434.839844 622.859375 2442.96875 619.714844 2450.3125 613.417969 C 2441.136719 648.035156 2426.710938 665.34375 2407.042969 665.34375 C 2398.125 665.34375 2392.09375 662.460938 2388.945312 656.691406 C 2399.4375 656.164062 2404.683594 651.183594 2404.683594 641.742188 C 2404.683594 635.1875 2401.273438 631.777344 2394.191406 631.777344 C 2384.488281 631.777344 2378.71875 639.90625 2378.71875 649.609375 C 2378.71875 664.035156 2391.832031 673.210938 2407.042969 673.210938 C 2437.199219 673.210938 2461.851562 645.414062 2468.410156 619.714844 L 2493.058594 520.582031 C 2493.847656 517.699219 2494.109375 515.601562 2494.109375 514.289062 C 2494.109375 509.042969 2491.226562 506.421875 2485.71875 506.421875 C 2481.519531 506.421875 2478.113281 508.519531 2475.75 512.453125 C 2474.179688 517.960938 2472.867188 522.679688 2472.082031 526.613281 L 2455.296875 594.011719 C 2452.675781 603.453125 2438.773438 615.253906 2426.972656 615.253906 C 2417.007812 615.253906 2412.023438 608.699219 2412.023438 595.324219 C 2412.023438 584.308594 2416.484375 567.523438 2425.136719 544.972656 C 2428.546875 535.792969 2430.382812 529.5 2430.382812 525.828125 C 2430.382812 512.976562 2421.203125 503.535156 2408.355469 503.535156 Z M 2408.355469 503.535156 " fill-opacity="1" fill-rule="nonzero"/><path fill="#000000" d="M 419.082031 897.171875 L 403.609375 960.898438 C 398.101562 951.195312 390.496094 946.214844 380.269531 946.214844 C 363.222656 946.214844 348.273438 954.867188 335.164062 972.4375 C 323.097656 988.699219 317.066406 1005.746094 317.066406 1023.316406 C 317.066406 1046.394531 330.441406 1065.800781 352.472656 1065.800781 C 363.75 1065.800781 374.761719 1059.769531 385.253906 1047.441406 C 388.136719 1057.410156 397.054688 1065.800781 409.378906 1065.800781 C 427.476562 1065.800781 433.246094 1044.296875 437.179688 1024.890625 C 437.179688 1022.527344 435.867188 1021.21875 433.246094 1021.21875 C 430.882812 1021.21875 429.3125 1023.054688 428.523438 1026.726562 C 423.277344 1047.441406 416.984375 1057.933594 409.902344 1057.933594 C 405.445312 1057.933594 403.085938 1054.261719 403.085938 1047.179688 C 403.085938 1043.246094 403.609375 1039.050781 404.660156 1034.855469 L 441.898438 884.847656 L 441.898438 883.800781 C 441.113281 881.964844 439.539062 880.914062 437.441406 880.914062 C 431.410156 880.914062 420.394531 881.964844 404.660156 883.800781 C 401.773438 884.0625 400.199219 886.160156 400.199219 889.832031 C 400.199219 892.453125 402.5625 893.765625 407.28125 893.765625 C 412.265625 893.765625 419.082031 893.503906 419.082031 897.171875 M 396.003906 964.308594 C 398.628906 969.816406 399.9375 973.488281 399.9375 975.847656 C 399.675781 976.898438 399.414062 978.207031 399.152344 980.042969 L 386.300781 1030.921875 C 385.515625 1033.804688 383.679688 1036.953125 381.320312 1040.101562 C 371.617188 1051.902344 362.175781 1057.933594 352.996094 1057.933594 C 342.769531 1057.933594 337.523438 1050.066406 337.523438 1034.59375 C 337.523438 1028.296875 339.097656 1018.859375 342.242188 1006.269531 C 347.75 983.976562 355.617188 968.769531 365.320312 960.636719 C 370.566406 956.179688 375.550781 954.082031 380.53125 954.082031 C 387.613281 954.082031 392.859375 957.492188 396.003906 964.308594 Z M 396.003906 964.308594 " fill-opacity="1" fill-rule="nonzero"/><path fill="#000000" d="M 485.695312 947 C 473.894531 947 464.714844 953.558594 458.15625 966.667969 C 453.175781 976.898438 450.554688 983.976562 450.554688 987.910156 C 450.554688 990.273438 451.863281 991.582031 454.75 991.582031 C 458.421875 991.582031 458.683594 990.011719 459.730469 986.078125 C 465.761719 965.359375 474.15625 954.867188 484.90625 954.867188 C 488.316406 954.867188 490.152344 957.230469 490.152344 961.949219 C 490.152344 966.144531 488.839844 972.175781 485.957031 979.78125 C 475.992188 1006.792969 471.007812 1024.890625 471.007812 1034.59375 C 471.007812 1054.523438 483.335938 1066.324219 503.527344 1066.324219 C 512.179688 1066.324219 520.3125 1063.179688 527.65625 1056.882812 C 518.476562 1091.5 504.050781 1108.808594 484.382812 1108.808594 C 475.464844 1108.808594 469.433594 1105.925781 466.289062 1100.15625 C 476.777344 1099.628906 482.023438 1094.648438 482.023438 1085.207031 C 482.023438 1078.652344 478.613281 1075.242188 471.53125 1075.242188 C 461.828125 1075.242188 456.058594 1083.371094 456.058594 1093.074219 C 456.058594 1107.496094 469.171875 1116.675781 484.382812 1116.675781 C 514.542969 1116.675781 539.191406 1088.878906 545.75 1063.179688 L 570.402344 964.046875 C 571.1875 961.164062 571.449219 959.066406 571.449219 957.753906 C 571.449219 952.507812 568.566406 949.886719 563.058594 949.886719 C 558.863281 949.886719 555.453125 951.984375 553.09375 955.917969 C 551.519531 961.425781 550.207031 966.144531 549.421875 970.078125 L 532.636719 1037.476562 C 530.015625 1046.917969 516.117188 1058.71875 504.3125 1058.71875 C 494.347656 1058.71875 489.367188 1052.164062 489.367188 1038.789062 C 489.367188 1027.773438 493.824219 1010.988281 502.476562 988.4375 C 505.886719 979.257812 507.722656 972.964844 507.722656 969.292969 C 507.722656 956.441406 498.542969 947 485.695312 947 Z M 485.695312 947 " fill-opacity="1" fill-rule="nonzero"/><path fill="#000000" d="M 435.996094 1254.359375 L 420.523438 1318.085938 C 415.019531 1308.382812 407.414062 1303.398438 397.183594 1303.398438 C 380.140625 1303.398438 365.191406 1312.054688 352.078125 1329.625 C 340.015625 1345.882812 333.984375 1362.929688 333.984375 1380.5 C 333.984375 1403.578125 347.359375 1422.984375 369.386719 1422.984375 C 380.664062 1422.984375 391.675781 1416.953125 402.167969 1404.628906 C 405.050781 1414.59375 413.96875 1422.984375 426.292969 1422.984375 C 444.390625 1422.984375 450.160156 1401.480469 454.09375 1382.074219 C 454.09375 1379.714844 452.78125 1378.402344 450.160156 1378.402344 C 447.800781 1378.402344 446.226562 1380.238281 445.4375 1383.910156 C 440.195312 1404.628906 433.898438 1415.117188 426.820312 1415.117188 C 422.359375 1415.117188 420 1411.445312 420 1404.363281 C 420 1400.429688 420.523438 1396.234375 421.574219 1392.039062 L 458.8125 1242.03125 L 458.8125 1240.984375 C 458.027344 1239.148438 456.453125 1238.097656 454.355469 1238.097656 C 448.324219 1238.097656 437.308594 1239.148438 421.574219 1240.984375 C 418.691406 1241.246094 417.117188 1243.34375 417.117188 1247.015625 C 417.117188 1249.636719 419.476562 1250.949219 424.195312 1250.949219 C 429.179688 1250.949219 435.996094 1250.6875 435.996094 1254.359375 M 412.921875 1321.492188 C 415.542969 1327 416.855469 1330.671875 416.855469 1333.03125 C 416.589844 1334.082031 416.328125 1335.394531 416.066406 1337.230469 L 403.214844 1388.105469 C 402.429688 1390.988281 400.59375 1394.136719 398.234375 1397.285156 C 388.53125 1409.085938 379.089844 1415.117188 369.910156 1415.117188 C 359.683594 1415.117188 354.4375 1407.25 354.4375 1391.777344 C 354.4375 1385.484375 356.011719 1376.042969 359.160156 1363.453125 C 364.664062 1341.164062 372.535156 1325.953125 382.238281 1317.824219 C 387.480469 1313.363281 392.464844 1311.265625 397.445312 1311.265625 C 404.527344 1311.265625 409.773438 1314.675781 412.921875 1321.492188 Z M 412.921875 1321.492188 " fill-opacity="1" fill-rule="nonzero"/><path fill="#000000" d="M 546.40625 1310.21875 C 546.40625 1307.855469 543.78125 1306.546875 538.277344 1306.546875 L 517.035156 1306.546875 C 523.851562 1279.273438 527.261719 1265.109375 527.261719 1264.0625 C 527.261719 1258.554688 524.375 1255.929688 518.867188 1255.929688 C 512.835938 1255.929688 509.164062 1259.339844 507.59375 1266.160156 L 497.890625 1306.546875 L 474.546875 1306.546875 C 468.777344 1306.546875 465.894531 1306.808594 465.894531 1312.316406 C 465.894531 1315.199219 468.515625 1316.511719 474.023438 1316.511719 L 495.265625 1316.511719 C 482.417969 1367.648438 476.121094 1394.660156 476.121094 1398.070312 C 476.121094 1412.757812 486.085938 1422.984375 500.773438 1422.984375 C 510.738281 1422.984375 519.394531 1418.527344 527 1409.347656 C 533.292969 1401.742188 537.75 1394.398438 540.636719 1387.320312 C 541.683594 1384.433594 542.210938 1382.859375 542.210938 1382.074219 C 542.210938 1379.714844 540.898438 1378.402344 538.277344 1378.402344 C 536.175781 1378.402344 534.605469 1379.714844 533.554688 1382.597656 C 524.636719 1404.363281 513.886719 1415.117188 501.035156 1415.117188 C 496.578125 1415.117188 494.21875 1411.445312 494.21875 1404.363281 C 494.21875 1400.429688 494.742188 1396.234375 495.789062 1392.039062 L 514.410156 1316.511719 L 537.75 1316.511719 C 544.570312 1316.511719 546.40625 1315.988281 546.40625 1310.21875 Z M 546.40625 1310.21875 " fill-opacity="1" fill-rule="nonzero"/><path fill="#000000" d="M 280.351562 1182.5 L 597.675781 1182.5 L 597.675781 1166.765625 L 280.351562 1166.765625 Z M 280.351562 1182.5 " fill-opacity="1" fill-rule="nonzero"/><path fill="#000000" d="M 885.046875 1143.949219 L 722.976562 1143.949219 C 718.78125 1143.949219 716.683594 1146.046875 716.683594 1149.980469 C 716.683594 1153.917969 718.78125 1156.015625 722.976562 1156.015625 L 885.046875 1156.015625 C 889.246094 1156.015625 891.34375 1153.917969 891.34375 1149.980469 C 891.34375 1146.835938 888.457031 1143.949219 885.046875 1143.949219 M 885.046875 1193.253906 L 722.976562 1193.253906 C 718.78125 1193.253906 716.683594 1195.351562 716.683594 1199.285156 C 716.683594 1203.21875 718.78125 1205.316406 722.976562 1205.316406 L 885.046875 1205.316406 C 889.246094 1205.316406 891.34375 1203.21875 891.34375 1199.285156 C 891.34375 1195.875 888.457031 1193.253906 885.046875 1193.253906 Z M 885.046875 1193.253906 " fill-opacity="1" fill-rule="nonzero"/><path fill="#000000" d="M 1097.417969 1066.0625 C 1097.417969 1062.128906 1095.320312 1059.507812 1091.125 1058.457031 C 1077.75 1055.046875 1067.785156 1053.472656 1061.492188 1053.472656 C 1042.871094 1053.472656 1031.59375 1063.964844 1031.59375 1081.273438 C 1031.59375 1091.5 1036.578125 1106.1875 1046.804688 1125.332031 C 1019.792969 1132.148438 998.8125 1156.015625 992.257812 1182.5 C 990.945312 1188.007812 990.160156 1193.515625 990.160156 1198.5 C 990.160156 1208.464844 992.519531 1217.378906 997.5 1224.984375 C 1005.367188 1237.050781 1016.90625 1243.082031 1031.855469 1243.082031 C 1042.871094 1243.082031 1052.835938 1238.097656 1062.015625 1227.871094 C 1076.4375 1211.347656 1083.78125 1190.367188 1083.78125 1165.457031 C 1083.78125 1149.457031 1078.535156 1134.773438 1067.785156 1121.398438 L 1065.949219 1119.035156 C 1048.902344 1097.007812 1040.511719 1082.320312 1040.511719 1074.980469 C 1040.511719 1073.40625 1040.773438 1072.09375 1041.558594 1071.046875 C 1044.183594 1066.324219 1048.378906 1063.964844 1054.410156 1064.226562 C 1058.867188 1064.226562 1064.375 1066.324219 1070.929688 1070.257812 C 1079.0625 1075.242188 1084.042969 1077.601562 1085.878906 1077.601562 C 1091.648438 1077.601562 1097.417969 1072.882812 1097.417969 1066.0625 M 1007.992188 1205.839844 C 1007.992188 1190.894531 1011.664062 1176.46875 1019.269531 1162.308594 C 1027.398438 1146.574219 1037.886719 1136.609375 1050.738281 1132.675781 C 1056.507812 1142.640625 1060.441406 1152.867188 1062.800781 1163.09375 C 1063.589844 1167.027344 1063.851562 1171.488281 1063.851562 1175.945312 C 1063.851562 1183.289062 1063.0625 1190.105469 1061.492188 1196.664062 C 1054.933594 1222.363281 1044.96875 1235.214844 1032.117188 1235.214844 C 1017.171875 1235.214844 1007.992188 1222.886719 1007.992188 1205.839844 Z M 1007.992188 1205.839844 " fill-opacity="1" fill-rule="nonzero"/><path fill="#000000" d="M 1235.625 1142.378906 C 1235.625 1130.3125 1223.824219 1124.28125 1210.710938 1124.28125 C 1199.433594 1124.28125 1190.515625 1130.3125 1183.699219 1142.378906 C 1178.191406 1130.3125 1169.011719 1124.28125 1155.636719 1124.28125 C 1142.789062 1124.28125 1132.296875 1130.3125 1123.90625 1142.113281 C 1116.824219 1152.34375 1113.152344 1159.949219 1113.152344 1164.929688 C 1113.152344 1167.289062 1114.464844 1168.601562 1117.085938 1168.601562 C 1119.449219 1168.601562 1121.019531 1167.289062 1121.546875 1164.929688 C 1126.527344 1149.71875 1137.542969 1131.886719 1155.113281 1131.886719 C 1163.769531 1131.886719 1167.964844 1137.394531 1167.964844 1148.148438 C 1167.964844 1153.652344 1163.242188 1174.109375 1154.066406 1209.25 C 1149.605469 1226.820312 1141.738281 1235.476562 1130.460938 1235.476562 C 1126.789062 1235.476562 1123.382812 1234.6875 1120.496094 1233.378906 C 1127.316406 1230.753906 1130.722656 1226.035156 1130.722656 1219.214844 C 1130.722656 1212.398438 1127.316406 1208.988281 1120.234375 1208.988281 C 1111.578125 1208.988281 1105.023438 1216.332031 1105.023438 1224.984375 C 1105.023438 1237.050781 1117.347656 1243.082031 1130.199219 1243.082031 C 1141.214844 1243.082031 1150.128906 1237.050781 1157.210938 1224.984375 C 1162.195312 1237.050781 1171.636719 1243.082031 1185.273438 1243.082031 C 1197.859375 1243.082031 1208.351562 1237.050781 1216.742188 1225.25 C 1223.824219 1215.019531 1227.496094 1207.414062 1227.496094 1202.433594 C 1227.496094 1200.070312 1226.183594 1198.761719 1223.5625 1198.761719 C 1221.199219 1198.761719 1219.890625 1200.070312 1219.101562 1202.433594 C 1214.644531 1217.378906 1202.84375 1235.476562 1185.796875 1235.476562 C 1177.140625 1235.476562 1172.683594 1230.230469 1172.683594 1219.480469 C 1172.683594 1216.070312 1173.996094 1208.726562 1176.878906 1196.925781 L 1185.796875 1161.519531 C 1190.78125 1141.851562 1198.910156 1131.886719 1210.449219 1131.886719 C 1214.121094 1131.886719 1217.527344 1132.675781 1220.414062 1133.984375 C 1213.332031 1136.34375 1209.921875 1141.066406 1209.921875 1148.148438 C 1209.921875 1154.964844 1213.59375 1158.375 1220.675781 1158.375 C 1229.066406 1158.375 1235.625 1150.769531 1235.625 1142.378906 Z M 1235.625 1142.378906 " fill-opacity="1" fill-rule="nonzero"/><path fill="#000000" d="M 1488.746094 1168.339844 L 1414.007812 1168.339844 L 1414.007812 1093.597656 C 1414.007812 1089.402344 1411.910156 1087.304688 1407.710938 1087.304688 C 1403.515625 1087.304688 1401.417969 1089.402344 1401.417969 1093.597656 L 1401.417969 1168.339844 L 1326.675781 1168.339844 C 1322.480469 1168.339844 1320.382812 1170.4375 1320.382812 1174.632812 C 1320.382812 1178.828125 1322.480469 1180.929688 1326.675781 1180.929688 L 1401.417969 1180.929688 L 1401.417969 1255.667969 C 1401.417969 1259.863281 1403.515625 1261.964844 1407.710938 1261.964844 C 1411.910156 1261.964844 1414.007812 1259.863281 1414.007812 1255.667969 L 1414.007812 1180.929688 L 1488.746094 1180.929688 C 1492.945312 1180.929688 1495.042969 1178.828125 1495.042969 1174.632812 C 1495.042969 1171.226562 1492.15625 1168.339844 1488.746094 1168.339844 Z M 1488.746094 1168.339844 " fill-opacity="1" fill-rule="nonzero"/><path fill="#000000" d="M 1651.394531 1305.234375 C 1653.753906 1305.234375 1655.066406 1303.921875 1655.066406 1301.5625 C 1655.066406 1300.777344 1654.542969 1299.726562 1653.753906 1298.679688 C 1640.117188 1288.1875 1629.105469 1270.878906 1620.972656 1247.015625 C 1613.894531 1226.296875 1610.222656 1205.839844 1610.222656 1185.648438 L 1610.222656 1163.621094 C 1610.222656 1143.425781 1613.894531 1122.96875 1620.972656 1102.253906 C 1629.105469 1078.386719 1640.117188 1061.078125 1653.753906 1050.589844 C 1654.542969 1049.804688 1655.066406 1048.753906 1655.066406 1047.703125 C 1655.066406 1045.34375 1653.753906 1044.035156 1651.394531 1044.035156 C 1651.132812 1044.035156 1650.347656 1044.296875 1649.558594 1044.820312 C 1633.824219 1056.882812 1620.710938 1074.714844 1609.960938 1098.582031 C 1599.730469 1121.398438 1594.488281 1142.902344 1594.488281 1163.621094 L 1594.488281 1185.648438 C 1594.488281 1206.367188 1599.730469 1227.871094 1609.960938 1250.6875 C 1620.710938 1274.550781 1633.824219 1292.382812 1649.558594 1304.449219 C 1650.347656 1304.972656 1651.132812 1305.234375 1651.394531 1305.234375 Z M 1651.394531 1305.234375 " fill-opacity="1" fill-rule="nonzero"/><path fill="#000000" d="M 1712.5 1216.070312 L 1708.042969 1216.59375 C 1720.628906 1204.269531 1730.332031 1195.351562 1736.890625 1189.320312 L 1762.066406 1165.980469 C 1768.097656 1160.472656 1774.390625 1153.652344 1780.421875 1146.046875 C 1788.550781 1136.082031 1792.484375 1130.050781 1792.484375 1127.953125 C 1792.484375 1125.59375 1791.175781 1124.28125 1788.550781 1124.28125 C 1786.714844 1124.28125 1785.144531 1125.332031 1783.832031 1127.691406 C 1777.273438 1138.445312 1771.242188 1143.6875 1765.472656 1143.6875 C 1759.703125 1143.6875 1755.507812 1138.96875 1753.148438 1135.820312 C 1746.855469 1128.214844 1740.558594 1124.28125 1734.527344 1124.28125 C 1727.710938 1124.28125 1720.628906 1127.429688 1713.285156 1134.246094 C 1705.945312 1141.066406 1702.273438 1147.882812 1702.273438 1154.703125 C 1702.273438 1157.324219 1703.582031 1158.636719 1706.46875 1158.636719 C 1708.304688 1158.636719 1709.878906 1157.324219 1710.925781 1154.964844 C 1713.8125 1147.359375 1720.890625 1143.6875 1731.644531 1143.6875 C 1735.316406 1143.6875 1740.558594 1145 1747.640625 1147.359375 C 1753.933594 1149.71875 1759.96875 1151.03125 1765.472656 1151.292969 C 1750.789062 1165.71875 1739.511719 1176.207031 1731.382812 1183.289062 L 1708.042969 1205.054688 C 1704.109375 1208.988281 1699.125 1214.234375 1693.617188 1220.789062 C 1685.488281 1231.019531 1681.292969 1237.050781 1681.292969 1239.410156 C 1681.292969 1241.769531 1682.601562 1243.082031 1685.488281 1243.082031 C 1687.0625 1243.082031 1688.636719 1241.769531 1690.46875 1239.148438 C 1697.027344 1228.917969 1704.109375 1223.675781 1711.449219 1223.675781 C 1715.648438 1223.675781 1720.367188 1226.820312 1725.613281 1233.378906 C 1730.855469 1239.933594 1736.890625 1243.082031 1742.921875 1243.082031 C 1751.835938 1243.082031 1760.753906 1238.359375 1770.195312 1229.183594 C 1779.636719 1220.003906 1784.355469 1211.085938 1784.355469 1202.433594 C 1784.355469 1200.070312 1783.042969 1198.761719 1780.160156 1198.761719 C 1778.324219 1198.761719 1776.75 1200.070312 1775.441406 1202.695312 C 1771.507812 1213.972656 1760.230469 1223.675781 1745.542969 1223.675781 C 1739.25 1223.675781 1718.792969 1216.070312 1712.5 1216.070312 Z M 1712.5 1216.070312 " fill-opacity="1" fill-rule="nonzero"/><path fill="#000000" d="M 2033.808594 1169.390625 L 1871.738281 1169.390625 C 1867.542969 1169.390625 1865.445312 1171.226562 1865.445312 1174.632812 C 1865.445312 1178.042969 1867.542969 1179.878906 1871.738281 1179.878906 L 2033.808594 1179.878906 C 2038.003906 1179.878906 2040.101562 1178.042969 2040.101562 1174.632812 C 2040.101562 1171.488281 2036.957031 1169.390625 2033.808594 1169.390625 Z M 2033.808594 1169.390625 " fill-opacity="1" fill-rule="nonzero"/><path fill="#000000" d="M 2225.039062 1055.046875 C 2191.210938 1055.046875 2168.65625 1095.171875 2160.789062 1126.90625 L 2120.925781 1286.875 C 2120.925781 1289.761719 2122.238281 1291.074219 2124.597656 1291.074219 L 2125.910156 1291.074219 C 2127.746094 1291.074219 2129.058594 1290.285156 2129.320312 1288.449219 L 2146.105469 1220.789062 C 2151.875 1236 2163.148438 1243.605469 2179.933594 1243.605469 C 2196.191406 1243.605469 2211.140625 1238.621094 2224.515625 1228.394531 C 2243.136719 1214.496094 2252.578125 1196.402344 2252.578125 1174.632812 C 2252.578125 1157.0625 2246.546875 1143.949219 2234.480469 1135.296875 C 2249.429688 1126.117188 2258.871094 1114.316406 2262.28125 1100.15625 C 2263.066406 1096.746094 2263.589844 1093.335938 2263.589844 1090.453125 C 2263.589844 1068.683594 2246.019531 1055.046875 2225.039062 1055.046875 M 2193.308594 1135.558594 C 2194.621094 1134.773438 2199.339844 1134.507812 2206.945312 1134.507812 C 2208.78125 1134.507812 2210.355469 1134.773438 2212.191406 1135.035156 C 2209.566406 1135.558594 2207.207031 1135.820312 2204.847656 1135.820312 L 2200.128906 1135.820312 C 2197.242188 1135.820312 2194.882812 1135.820312 2193.308594 1135.558594 M 2151.875 1204.007812 C 2151.875 1199.808594 2152.398438 1195.613281 2153.445312 1191.417969 L 2168.917969 1128.476562 C 2176 1100.15625 2194.882812 1063.175781 2224.777344 1063.175781 C 2239.726562 1063.175781 2247.070312 1070.78125 2247.070312 1085.730469 C 2247.070312 1089.402344 2246.546875 1093.597656 2245.234375 1098.582031 C 2241.5625 1113.265625 2234.742188 1123.757812 2224.515625 1129.789062 C 2218.746094 1127.691406 2212.976562 1126.640625 2207.207031 1126.640625 C 2195.667969 1126.640625 2183.867188 1126.90625 2183.867188 1136.34375 C 2183.867188 1138.179688 2184.65625 1139.753906 2185.964844 1140.804688 C 2188.324219 1142.640625 2194.359375 1143.6875 2204.585938 1143.6875 C 2211.140625 1143.6875 2217.699219 1142.640625 2223.730469 1140.542969 C 2230.808594 1146.3125 2234.480469 1155.226562 2234.480469 1167.289062 C 2234.480469 1173.847656 2233.433594 1181.453125 2231.335938 1189.582031 C 2225.304688 1213.183594 2207.46875 1235.738281 2180.195312 1235.738281 C 2162.363281 1235.738281 2151.875 1222.363281 2151.875 1204.007812 Z M 2151.875 1204.007812 " fill-opacity="1" fill-rule="nonzero"/><path fill="#000000" d="M 2284.046875 1304.449219 C 2299.78125 1292.382812 2312.894531 1274.550781 2323.648438 1250.6875 C 2333.875 1227.871094 2339.121094 1206.367188 2339.121094 1185.648438 L 2339.121094 1163.621094 C 2339.121094 1142.902344 2333.875 1121.398438 2323.648438 1098.582031 C 2312.894531 1074.714844 2299.78125 1056.882812 2284.046875 1044.820312 C 2283.261719 1044.296875 2282.472656 1044.035156 2282.210938 1044.035156 C 2279.851562 1044.035156 2278.539062 1045.34375 2278.539062 1047.703125 C 2278.539062 1048.753906 2279.0625 1049.804688 2279.851562 1050.589844 C 2293.488281 1061.078125 2304.503906 1078.386719 2312.632812 1102.253906 C 2319.714844 1122.96875 2323.382812 1143.425781 2323.382812 1163.621094 L 2323.382812 1185.648438 C 2323.382812 1205.839844 2319.714844 1226.296875 2312.632812 1247.015625 C 2304.503906 1270.878906 2293.488281 1288.1875 2279.851562 1298.679688 C 2279.0625 1299.726562 2278.539062 1300.777344 2278.539062 1301.5625 C 2278.539062 1303.921875 2279.851562 1305.234375 2282.210938 1305.234375 C 2282.472656 1305.234375 2283.261719 1304.972656 2284.046875 1304.449219 Z M 2284.046875 1304.449219 " fill-opacity="1" fill-rule="nonzero"/><path fill="#000000" d="M 2408.355469 1124.28125 C 2396.550781 1124.28125 2387.375 1130.839844 2380.816406 1143.949219 C 2375.835938 1154.179688 2373.210938 1161.257812 2373.210938 1165.191406 C 2373.210938 1167.554688 2374.523438 1168.863281 2377.40625 1168.863281 C 2381.078125 1168.863281 2381.34375 1167.289062 2382.390625 1163.355469 C 2388.421875 1142.640625 2396.816406 1132.148438 2407.566406 1132.148438 C 2410.976562 1132.148438 2412.8125 1134.507812 2412.8125 1139.230469 C 2412.8125 1143.425781 2411.5 1149.457031 2408.617188 1157.0625 C 2398.652344 1184.074219 2393.667969 1202.171875 2393.667969 1211.875 C 2393.667969 1231.804688 2405.992188 1243.605469 2426.1875 1243.605469 C 2434.839844 1243.605469 2442.96875 1240.457031 2450.3125 1234.164062 C 2441.136719 1268.78125 2426.710938 1286.089844 2407.042969 1286.089844 C 2398.125 1286.089844 2392.09375 1283.207031 2388.945312 1277.4375 C 2399.4375 1276.910156 2404.683594 1271.929688 2404.683594 1262.488281 C 2404.683594 1255.929688 2401.273438 1252.523438 2394.191406 1252.523438 C 2384.488281 1252.523438 2378.71875 1260.652344 2378.71875 1270.355469 C 2378.71875 1284.777344 2391.832031 1293.957031 2407.042969 1293.957031 C 2437.199219 1293.957031 2461.851562 1266.160156 2468.410156 1240.457031 L 2493.058594 1141.328125 C 2493.847656 1138.445312 2494.109375 1136.34375 2494.109375 1135.035156 C 2494.109375 1129.789062 2491.226562 1127.167969 2485.71875 1127.167969 C 2481.519531 1127.167969 2478.113281 1129.265625 2475.75 1133.199219 C 2474.179688 1138.707031 2472.867188 1143.425781 2472.082031 1147.359375 L 2455.296875 1214.757812 C 2452.675781 1224.199219 2438.773438 1236 2426.972656 1236 C 2417.007812 1236 2412.023438 1229.445312 2412.023438 1216.070312 C 2412.023438 1205.054688 2416.484375 1188.269531 2425.136719 1165.71875 C 2428.546875 1156.539062 2430.382812 1150.246094 2430.382812 1146.574219 C 2430.382812 1133.722656 2421.203125 1124.28125 2408.355469 1124.28125 Z M 2408.355469 1124.28125 " fill-opacity="1" fill-rule="nonzero"/><path fill="#000000" d="M 425.113281 1554.632812 L 409.640625 1618.359375 C 404.132812 1608.65625 396.53125 1603.675781 386.300781 1603.675781 C 369.253906 1603.675781 354.308594 1612.328125 341.195312 1629.898438 C 329.132812 1646.160156 323.097656 1663.207031 323.097656 1680.777344 C 323.097656 1703.855469 336.472656 1723.261719 358.503906 1723.261719 C 369.78125 1723.261719 380.792969 1717.230469 391.285156 1704.902344 C 394.167969 1714.867188 403.085938 1723.261719 415.410156 1723.261719 C 433.507812 1723.261719 439.277344 1701.757812 443.210938 1682.351562 C 443.210938 1679.988281 441.898438 1678.679688 439.277344 1678.679688 C 436.914062 1678.679688 435.34375 1680.515625 434.554688 1684.1875 C 429.3125 1704.902344 423.015625 1715.394531 415.9375 1715.394531 C 411.476562 1715.394531 409.117188 1711.722656 409.117188 1704.640625 C 409.117188 1700.707031 409.640625 1696.511719 410.691406 1692.316406 L 447.929688 1542.308594 L 447.929688 1541.257812 C 447.144531 1539.421875 445.570312 1538.375 443.472656 1538.375 C 437.441406 1538.375 426.425781 1539.421875 410.691406 1541.257812 C 407.804688 1541.523438 406.234375 1543.621094 406.234375 1547.292969 C 406.234375 1549.914062 408.59375 1551.226562 413.3125 1551.226562 C 418.296875 1551.226562 425.113281 1550.960938 425.113281 1554.632812 M 402.035156 1621.769531 C 404.660156 1627.277344 405.96875 1630.949219 405.96875 1633.308594 C 405.707031 1634.359375 405.445312 1635.667969 405.183594 1637.503906 L 392.332031 1688.382812 C 391.546875 1691.265625 389.710938 1694.414062 387.351562 1697.558594 C 377.648438 1709.363281 368.207031 1715.394531 359.027344 1715.394531 C 348.800781 1715.394531 343.554688 1707.527344 343.554688 1692.054688 C 343.554688 1685.757812 345.128906 1676.316406 348.273438 1663.730469 C 353.78125 1641.4375 361.648438 1626.226562 371.351562 1618.097656 C 376.597656 1613.640625 381.582031 1611.542969 386.5625 1611.542969 C 393.644531 1611.542969 398.890625 1614.953125 402.035156 1621.769531 Z M 402.035156 1621.769531 " fill-opacity="1" fill-rule="nonzero"/><path fill="#000000" d="M 491.464844 1696.25 L 487.003906 1696.773438 C 499.59375 1684.449219 509.296875 1675.53125 515.851562 1669.5 L 541.027344 1646.160156 C 547.0625 1640.652344 553.355469 1633.832031 559.386719 1626.226562 C 567.515625 1616.261719 571.449219 1610.230469 571.449219 1608.132812 C 571.449219 1605.773438 570.140625 1604.460938 567.515625 1604.460938 C 565.679688 1604.460938 564.105469 1605.511719 562.796875 1607.871094 C 556.238281 1618.625 550.207031 1623.867188 544.4375 1623.867188 C 538.667969 1623.867188 534.472656 1619.148438 532.113281 1616 C 525.820312 1608.394531 519.523438 1604.460938 513.492188 1604.460938 C 506.675781 1604.460938 499.59375 1607.609375 492.25 1614.425781 C 484.90625 1621.246094 481.234375 1628.0625 481.234375 1634.882812 C 481.234375 1637.503906 482.546875 1638.816406 485.433594 1638.816406 C 487.269531 1638.816406 488.839844 1637.503906 489.890625 1635.144531 C 492.773438 1627.539062 499.855469 1623.867188 510.609375 1623.867188 C 514.28125 1623.867188 519.523438 1625.179688 526.605469 1627.539062 C 532.898438 1629.898438 538.929688 1631.210938 544.4375 1631.472656 C 529.753906 1645.898438 518.476562 1656.386719 510.347656 1663.46875 L 487.003906 1685.234375 C 483.070312 1689.167969 478.089844 1694.414062 472.582031 1700.96875 C 464.453125 1711.199219 460.257812 1717.230469 460.257812 1719.589844 C 460.257812 1721.949219 461.566406 1723.261719 464.453125 1723.261719 C 466.027344 1723.261719 467.597656 1721.949219 469.433594 1719.328125 C 475.992188 1709.097656 483.070312 1703.855469 490.414062 1703.855469 C 494.609375 1703.855469 499.332031 1707 504.578125 1713.558594 C 509.820312 1720.113281 515.851562 1723.261719 521.886719 1723.261719 C 530.800781 1723.261719 539.71875 1718.539062 549.160156 1709.363281 C 558.601562 1700.183594 563.320312 1691.265625 563.320312 1682.613281 C 563.320312 1680.25 562.007812 1678.941406 559.125 1678.941406 C 557.289062 1678.941406 555.714844 1680.25 554.402344 1682.875 C 550.46875 1694.152344 539.191406 1703.855469 524.507812 1703.855469 C 518.214844 1703.855469 497.757812 1696.25 491.464844 1696.25 Z M 491.464844 1696.25 " fill-opacity="1" fill-rule="nonzero"/><path fill="#000000" d="M 439.015625 1911.820312 L 423.542969 1975.546875 C 418.035156 1965.84375 410.429688 1960.859375 400.199219 1960.859375 C 383.15625 1960.859375 368.207031 1969.511719 355.09375 1987.085938 C 343.03125 2003.34375 337 2020.390625 337 2037.960938 C 337 2061.039062 350.375 2080.445312 372.402344 2080.445312 C 383.679688 2080.445312 394.695312 2074.414062 405.183594 2062.089844 C 408.066406 2072.054688 416.984375 2080.445312 429.3125 2080.445312 C 447.40625 2080.445312 453.175781 2058.941406 457.109375 2039.535156 C 457.109375 2037.175781 455.796875 2035.863281 453.175781 2035.863281 C 450.816406 2035.863281 449.242188 2037.699219 448.453125 2041.371094 C 443.210938 2062.089844 436.914062 2072.578125 429.835938 2072.578125 C 425.375 2072.578125 423.015625 2068.90625 423.015625 2061.824219 C 423.015625 2057.890625 423.542969 2053.695312 424.589844 2049.5 L 461.828125 1899.492188 L 461.828125 1898.445312 C 461.042969 1896.609375 459.46875 1895.558594 457.371094 1895.558594 C 451.339844 1895.558594 440.324219 1896.609375 424.589844 1898.445312 C 421.707031 1898.707031 420.132812 1900.804688 420.132812 1904.476562 C 420.132812 1907.097656 422.492188 1908.410156 427.210938 1908.410156 C 432.195312 1908.410156 439.015625 1908.148438 439.015625 1911.820312 M 415.9375 1978.953125 C 418.558594 1984.460938 419.871094 1988.132812 419.871094 1990.492188 C 419.605469 1991.542969 419.34375 1992.855469 419.082031 1994.691406 L 406.234375 2045.566406 C 405.445312 2048.449219 403.609375 2051.597656 401.25 2054.746094 C 391.546875 2066.546875 382.105469 2072.578125 372.925781 2072.578125 C 362.699219 2072.578125 357.453125 2064.710938 357.453125 2049.238281 C 357.453125 2042.945312 359.027344 2033.503906 362.175781 2020.914062 C 367.683594 1998.625 375.550781 1983.414062 385.253906 1975.28125 C 390.496094 1970.824219 395.480469 1968.726562 400.464844 1968.726562 C 407.542969 1968.726562 412.789062 1972.136719 415.9375 1978.953125 Z M 415.9375 1978.953125 " fill-opacity="1" fill-rule="nonzero"/><path fill="#000000" d="M 549.421875 1967.679688 C 549.421875 1965.316406 546.796875 1964.007812 541.292969 1964.007812 L 520.050781 1964.007812 C 526.867188 1936.734375 530.277344 1922.570312 530.277344 1921.523438 C 530.277344 1916.015625 527.390625 1913.390625 521.886719 1913.390625 C 515.851562 1913.390625 512.179688 1916.800781 510.609375 1923.621094 L 500.90625 1964.007812 L 477.566406 1964.007812 C 471.796875 1964.007812 468.910156 1964.269531 468.910156 1969.777344 C 468.910156 1972.660156 471.53125 1973.972656 477.039062 1973.972656 L 498.28125 1973.972656 C 485.433594 2025.109375 479.136719 2052.121094 479.136719 2055.53125 C 479.136719 2070.21875 489.105469 2080.445312 503.789062 2080.445312 C 513.753906 2080.445312 522.410156 2075.988281 530.015625 2066.808594 C 536.308594 2059.203125 540.765625 2051.859375 543.652344 2044.78125 C 544.699219 2041.894531 545.226562 2040.320312 545.226562 2039.535156 C 545.226562 2037.175781 543.914062 2035.863281 541.292969 2035.863281 C 539.191406 2035.863281 537.621094 2037.175781 536.570312 2040.058594 C 527.65625 2061.824219 516.902344 2072.578125 504.050781 2072.578125 C 499.59375 2072.578125 497.234375 2068.90625 497.234375 2061.824219 C 497.234375 2057.890625 497.757812 2053.695312 498.808594 2049.5 L 517.425781 1973.972656 L 540.765625 1973.972656 C 547.585938 1973.972656 549.421875 1973.449219 549.421875 1967.679688 Z M 549.421875 1967.679688 " fill-opacity="1" fill-rule="nonzero"/><path fill="#000000" d="M 286.382812 1839.960938 L 597.675781 1839.960938 L 597.675781 1824.226562 L 286.382812 1824.226562 Z M 286.382812 1839.960938 " fill-opacity="1" fill-rule="nonzero"/><path fill="#000000" d="M 885.046875 1801.410156 L 722.976562 1801.410156 C 718.78125 1801.410156 716.683594 1803.507812 716.683594 1807.441406 C 716.683594 1811.375 718.78125 1813.476562 722.976562 1813.476562 L 885.046875 1813.476562 C 889.246094 1813.476562 891.34375 1811.375 891.34375 1807.441406 C 891.34375 1804.296875 888.457031 1801.410156 885.046875 1801.410156 M 885.046875 1850.714844 L 722.976562 1850.714844 C 718.78125 1850.714844 716.683594 1852.8125 716.683594 1856.746094 C 716.683594 1860.679688 718.78125 1862.777344 722.976562 1862.777344 L 885.046875 1862.777344 C 889.246094 1862.777344 891.34375 1860.679688 891.34375 1856.746094 C 891.34375 1853.335938 888.457031 1850.714844 885.046875 1850.714844 Z M 885.046875 1850.714844 " fill-opacity="1" fill-rule="nonzero"/><path fill="#000000" d="M 1116.300781 1798.527344 C 1119.710938 1791.96875 1121.285156 1788.5625 1121.285156 1788.300781 C 1121.285156 1785.9375 1119.972656 1784.628906 1117.085938 1784.628906 C 1115.25 1784.628906 1113.941406 1785.414062 1113.152344 1786.988281 C 1103.976562 1804.035156 1093.222656 1828.160156 1080.632812 1859.367188 C 1079.585938 1842.058594 1076.175781 1825.800781 1070.40625 1810.851562 C 1062.800781 1791.445312 1051 1781.742188 1035.003906 1781.742188 C 1018.480469 1781.742188 1004.058594 1792.757812 996.714844 1802.984375 C 988.058594 1815.3125 983.601562 1824.488281 983.601562 1830.257812 C 983.601562 1832.617188 985.699219 1833.929688 990.160156 1833.929688 L 991.46875 1832.09375 C 995.929688 1818.457031 1003.53125 1809.804688 1014.285156 1806.132812 C 1021.628906 1803.773438 1027.398438 1802.460938 1031.59375 1802.460938 C 1058.867188 1802.460938 1072.503906 1823.964844 1072.503906 1867.234375 C 1072.503906 1877.464844 1071.457031 1885.855469 1069.359375 1892.410156 C 1060.441406 1921.523438 1055.984375 1940.140625 1055.984375 1948.269531 C 1055.984375 1952.203125 1057.554688 1954.039062 1060.441406 1954.039062 C 1063.589844 1954.039062 1066.734375 1948.535156 1069.621094 1937.78125 C 1074.078125 1920.996094 1077.226562 1906.050781 1079.0625 1892.9375 C 1079.847656 1889.003906 1080.371094 1885.59375 1081.160156 1883.234375 C 1090.601562 1853.859375 1102.402344 1825.539062 1116.300781 1798.527344 Z M 1116.300781 1798.527344 " fill-opacity="1" fill-rule="nonzero"/><path fill="#000000" d="M 1362.605469 1825.800781 L 1287.863281 1825.800781 L 1287.863281 1751.058594 C 1287.863281 1746.863281 1285.765625 1744.765625 1281.570312 1744.765625 C 1277.375 1744.765625 1275.277344 1746.863281 1275.277344 1751.058594 L 1275.277344 1825.800781 L 1200.535156 1825.800781 C 1196.339844 1825.800781 1194.242188 1827.898438 1194.242188 1832.09375 C 1194.242188 1836.289062 1196.339844 1838.386719 1200.535156 1838.386719 L 1275.277344 1838.386719 L 1275.277344 1913.128906 C 1275.277344 1917.324219 1277.375 1919.421875 1281.570312 1919.421875 C 1285.765625 1919.421875 1287.863281 1917.324219 1287.863281 1913.128906 L 1287.863281 1838.386719 L 1362.605469 1838.386719 C 1366.800781 1838.386719 1368.898438 1836.289062 1368.898438 1832.09375 C 1368.898438 1828.683594 1366.015625 1825.800781 1362.605469 1825.800781 Z M 1362.605469 1825.800781 " fill-opacity="1" fill-rule="nonzero"/><path fill="#000000" d="M 1523.15625 1781.742188 C 1505.058594 1781.742188 1488.800781 1789.609375 1474.375 1805.082031 C 1459.953125 1820.554688 1452.609375 1837.601562 1452.609375 1855.960938 C 1452.609375 1881.660156 1469.917969 1900.542969 1495.617188 1900.542969 C 1513.714844 1900.542969 1531.546875 1893.460938 1549.378906 1879.5625 C 1553.3125 1893.460938 1561.445312 1900.542969 1573.507812 1900.542969 C 1582.949219 1900.542969 1596.324219 1890.578125 1596.324219 1881.136719 C 1596.324219 1878.773438 1595.011719 1877.726562 1592.125 1877.726562 C 1590.292969 1877.726562 1588.71875 1878.773438 1587.929688 1880.875 C 1585.832031 1886.378906 1580.324219 1892.9375 1574.292969 1892.9375 C 1569.835938 1892.9375 1567.476562 1884.542969 1567.476562 1867.5 C 1567.476562 1863.828125 1568.261719 1860.941406 1569.835938 1859.105469 C 1576.917969 1850.453125 1583.210938 1840.488281 1588.191406 1829.472656 C 1594.75 1815.3125 1598.683594 1804.820312 1599.730469 1798.003906 L 1599.730469 1796.953125 C 1598.945312 1795.117188 1597.371094 1794.332031 1595.535156 1794.332031 C 1594.226562 1794.59375 1592.652344 1796.691406 1590.816406 1800.363281 C 1585.308594 1819.246094 1577.703125 1835.503906 1567.476562 1848.878906 L 1567.476562 1835.765625 C 1567.476562 1805.34375 1552.265625 1781.742188 1523.15625 1781.742188 M 1547.542969 1842.324219 C 1547.542969 1857.796875 1547.804688 1867.234375 1548.070312 1870.644531 C 1531.023438 1885.59375 1513.714844 1892.9375 1496.144531 1892.9375 C 1481.195312 1892.9375 1473.851562 1883.757812 1473.851562 1865.664062 C 1473.851562 1850.453125 1482.507812 1822.128906 1488.539062 1812.6875 C 1498.503906 1797.214844 1510.042969 1789.347656 1522.894531 1789.347656 C 1531.023438 1789.347656 1536.53125 1792.496094 1539.9375 1798.789062 C 1541.773438 1801.9375 1543.085938 1805.082031 1544.398438 1807.96875 C 1546.496094 1814 1547.542969 1829.996094 1547.542969 1842.324219 Z M 1547.542969 1842.324219 " fill-opacity="1" fill-rule="nonzero"/><path fill="#000000" d="M 1652.183594 1873.53125 L 1647.722656 1874.054688 C 1660.3125 1861.730469 1670.015625 1852.8125 1676.570312 1846.78125 L 1701.746094 1823.441406 C 1707.777344 1817.933594 1714.074219 1811.113281 1720.105469 1803.507812 C 1728.234375 1793.542969 1732.167969 1787.511719 1732.167969 1785.414062 C 1732.167969 1783.054688 1730.855469 1781.742188 1728.234375 1781.742188 C 1726.398438 1781.742188 1724.824219 1782.792969 1723.515625 1785.152344 C 1716.957031 1795.902344 1710.925781 1801.148438 1705.15625 1801.148438 C 1699.386719 1801.148438 1695.191406 1796.429688 1692.832031 1793.28125 C 1686.535156 1785.675781 1680.242188 1781.742188 1674.210938 1781.742188 C 1667.390625 1781.742188 1660.3125 1784.890625 1652.96875 1791.707031 C 1645.625 1798.527344 1641.953125 1805.34375 1641.953125 1812.164062 C 1641.953125 1814.785156 1643.265625 1816.097656 1646.148438 1816.097656 C 1647.984375 1816.097656 1649.558594 1814.785156 1650.609375 1812.425781 C 1653.492188 1804.820312 1660.574219 1801.148438 1671.328125 1801.148438 C 1674.996094 1801.148438 1680.242188 1802.460938 1687.324219 1804.820312 C 1693.617188 1807.179688 1699.648438 1808.492188 1705.15625 1808.753906 C 1690.46875 1823.179688 1679.195312 1833.667969 1671.0625 1840.75 L 1647.722656 1862.515625 C 1643.789062 1866.449219 1638.808594 1871.695312 1633.300781 1878.25 C 1625.171875 1888.476562 1620.972656 1894.511719 1620.972656 1896.871094 C 1620.972656 1899.230469 1622.285156 1900.542969 1625.171875 1900.542969 C 1626.742188 1900.542969 1628.316406 1899.230469 1630.152344 1896.609375 C 1636.710938 1886.378906 1643.789062 1881.136719 1651.132812 1881.136719 C 1655.328125 1881.136719 1660.050781 1884.28125 1665.292969 1890.839844 C 1670.539062 1897.394531 1676.570312 1900.542969 1682.601562 1900.542969 C 1691.519531 1900.542969 1700.4375 1895.820312 1709.878906 1886.640625 C 1719.316406 1877.464844 1724.039062 1868.546875 1724.039062 1859.894531 C 1724.039062 1857.53125 1722.726562 1856.222656 1719.84375 1856.222656 C 1718.007812 1856.222656 1716.433594 1857.53125 1715.121094 1860.15625 C 1711.1875 1871.433594 1699.910156 1881.136719 1685.226562 1881.136719 C 1678.929688 1881.136719 1658.476562 1873.53125 1652.183594 1873.53125 Z M 1652.183594 1873.53125 " fill-opacity="1" fill-rule="nonzero"/><path fill="#000000" d="M 1973.492188 1826.847656 L 1811.421875 1826.847656 C 1807.222656 1826.847656 1805.125 1828.683594 1805.125 1832.09375 C 1805.125 1835.503906 1807.222656 1837.339844 1811.421875 1837.339844 L 1973.492188 1837.339844 C 1977.6875 1837.339844 1979.785156 1835.503906 1979.785156 1832.09375 C 1979.785156 1828.949219 1976.636719 1826.847656 1973.492188 1826.847656 Z M 1973.492188 1826.847656 " fill-opacity="1" fill-rule="nonzero"/><path fill="#000000" d="M 2152.921875 1696.25 L 2148.464844 1696.773438 C 2161.050781 1684.449219 2170.753906 1675.53125 2177.3125 1669.5 L 2202.488281 1646.160156 C 2208.519531 1640.652344 2214.8125 1633.832031 2220.84375 1626.226562 C 2228.972656 1616.261719 2232.910156 1610.230469 2232.910156 1608.132812 C 2232.910156 1605.773438 2231.597656 1604.460938 2228.972656 1604.460938 C 2227.140625 1604.460938 2225.566406 1605.511719 2224.253906 1607.871094 C 2217.699219 1618.625 2211.664062 1623.867188 2205.894531 1623.867188 C 2200.128906 1623.867188 2195.929688 1619.148438 2193.570312 1616 C 2187.277344 1608.394531 2180.984375 1604.460938 2174.949219 1604.460938 C 2168.132812 1604.460938 2161.050781 1607.609375 2153.707031 1614.425781 C 2146.367188 1621.246094 2142.695312 1628.0625 2142.695312 1634.882812 C 2142.695312 1637.503906 2144.003906 1638.816406 2146.890625 1638.816406 C 2148.726562 1638.816406 2150.300781 1637.503906 2151.347656 1635.144531 C 2154.234375 1627.539062 2161.3125 1623.867188 2172.066406 1623.867188 C 2175.738281 1623.867188 2180.984375 1625.179688 2188.0625 1627.539062 C 2194.359375 1629.898438 2200.390625 1631.210938 2205.894531 1631.472656 C 2191.210938 1645.898438 2179.933594 1656.386719 2171.804688 1663.46875 L 2148.464844 1685.234375 C 2144.53125 1689.167969 2139.546875 1694.414062 2134.039062 1700.96875 C 2125.910156 1711.199219 2121.714844 1717.230469 2121.714844 1719.589844 C 2121.714844 1721.949219 2123.027344 1723.261719 2125.910156 1723.261719 C 2127.484375 1723.261719 2129.058594 1721.949219 2130.894531 1719.328125 C 2137.449219 1709.097656 2144.53125 1703.855469 2151.871094 1703.855469 C 2156.070312 1703.855469 2160.789062 1707 2166.035156 1713.558594 C 2171.28125 1720.113281 2177.3125 1723.261719 2183.34375 1723.261719 C 2192.257812 1723.261719 2201.175781 1718.539062 2210.617188 1709.363281 C 2220.058594 1700.183594 2224.777344 1691.265625 2224.777344 1682.613281 C 2224.777344 1680.25 2223.46875 1678.941406 2220.582031 1678.941406 C 2218.746094 1678.941406 2217.171875 1680.25 2215.863281 1682.875 C 2211.929688 1694.152344 2200.652344 1703.855469 2185.964844 1703.855469 C 2179.671875 1703.855469 2159.214844 1696.25 2152.921875 1696.25 Z M 2152.921875 1696.25 " fill-opacity="1" fill-rule="nonzero"/><path fill="#000000" d="M 2310.878906 1559.730469 C 2323.117188 1555.09375 2334.613281 1543.414062 2334.613281 1527.652344 C 2334.613281 1519.679688 2330.71875 1513.191406 2323.117188 1508.183594 C 2316.441406 1503.921875 2308.839844 1501.695312 2300.3125 1501.695312 C 2291.96875 1501.695312 2284.738281 1503.921875 2278.25 1508.183594 C 2271.015625 1513.007812 2267.308594 1519.308594 2267.308594 1527.28125 C 2267.308594 1533.402344 2271.386719 1537.664062 2277.320312 1537.664062 C 2283.253906 1537.664062 2287.332031 1533.402344 2287.332031 1527.46875 C 2287.332031 1521.347656 2283.8125 1518.011719 2276.765625 1517.640625 C 2281.585938 1511.152344 2289.1875 1507.8125 2299.570312 1507.8125 C 2310.695312 1507.8125 2316.257812 1514.304688 2316.257812 1527.46875 C 2316.257812 1535.253906 2314.773438 1541.746094 2311.992188 1547.121094 C 2306.988281 1556.019531 2300.125 1557.691406 2288.632812 1557.691406 C 2286.40625 1558.0625 2285.292969 1558.988281 2285.292969 1560.65625 C 2285.292969 1563.4375 2286.59375 1563.4375 2290.300781 1563.4375 L 2298.273438 1563.4375 C 2312.179688 1563.4375 2319.222656 1573.265625 2319.222656 1593.101562 C 2319.222656 1608.863281 2313.476562 1622.582031 2299.386719 1622.582031 C 2287.332031 1622.582031 2278.433594 1618.503906 2273.058594 1610.347656 C 2279.546875 1610.53125 2284.367188 1605.710938 2284.367188 1599.40625 C 2284.367188 1593.101562 2279.730469 1588.46875 2273.425781 1588.46875 C 2266.195312 1588.46875 2262.488281 1592.175781 2262.488281 1599.777344 C 2262.488281 1608.863281 2266.566406 1616.09375 2274.726562 1621.84375 C 2281.957031 1626.847656 2290.484375 1629.257812 2299.941406 1629.257812 C 2310.511719 1629.257812 2319.59375 1625.734375 2327.566406 1618.875 C 2335.539062 1612.015625 2339.433594 1603.488281 2339.433594 1593.101562 C 2339.433594 1575.675781 2325.714844 1563.621094 2310.878906 1559.730469 Z M 2310.878906 1559.730469 " fill-opacity="1" fill-rule="nonzero"/><path fill="#000000" d="M 2249.378906 1984.988281 C 2266.6875 1978.429688 2282.945312 1961.910156 2282.945312 1939.617188 C 2282.945312 1928.339844 2277.4375 1919.160156 2266.6875 1912.082031 C 2257.246094 1906.050781 2246.492188 1902.902344 2234.429688 1902.902344 C 2222.628906 1902.902344 2212.398438 1906.050781 2203.222656 1912.082031 C 2192.992188 1918.898438 2187.75 1927.816406 2187.75 1939.09375 C 2187.75 1947.746094 2193.519531 1953.777344 2201.910156 1953.777344 C 2210.300781 1953.777344 2216.070312 1947.746094 2216.070312 1939.355469 C 2216.070312 1930.699219 2211.089844 1925.980469 2201.125 1925.457031 C 2207.941406 1916.277344 2218.695312 1911.554688 2233.378906 1911.554688 C 2249.117188 1911.554688 2256.984375 1920.734375 2256.984375 1939.355469 C 2256.984375 1950.371094 2254.882812 1959.546875 2250.949219 1967.152344 C 2243.871094 1979.742188 2234.167969 1982.101562 2217.90625 1982.101562 C 2214.761719 1982.625 2213.1875 1983.9375 2213.1875 1986.296875 C 2213.1875 1990.230469 2215.023438 1990.230469 2220.269531 1990.230469 L 2231.542969 1990.230469 C 2251.214844 1990.230469 2261.179688 2004.128906 2261.179688 2032.191406 C 2261.179688 2054.484375 2253.050781 2073.890625 2233.117188 2073.890625 C 2216.070312 2073.890625 2203.484375 2068.121094 2195.878906 2056.582031 C 2205.058594 2056.84375 2211.875 2050.023438 2211.875 2041.109375 C 2211.875 2032.191406 2205.320312 2025.636719 2196.402344 2025.636719 C 2186.175781 2025.636719 2180.929688 2030.878906 2180.929688 2041.632812 C 2180.929688 2054.484375 2186.699219 2064.710938 2198.238281 2072.839844 C 2208.464844 2079.921875 2220.53125 2083.332031 2233.90625 2083.332031 C 2248.851562 2083.332031 2261.703125 2078.347656 2272.980469 2068.644531 C 2284.257812 2058.941406 2289.765625 2046.878906 2289.765625 2032.191406 C 2289.765625 2007.539062 2270.359375 1990.492188 2249.378906 1984.988281 Z M 2249.378906 1984.988281 " fill-opacity="1" fill-rule="nonzero"/><path fill="#000000" d="M 2084.210938 1839.960938 L 2386.769531 1839.960938 L 2386.769531 1824.226562 L 2084.210938 1824.226562 Z M 2084.210938 1839.960938 " fill-opacity="1" fill-rule="nonzero"/><path fill="#000000" d="M 2659.5625 1826.847656 L 2497.492188 1826.847656 C 2493.296875 1826.847656 2491.199219 1828.683594 2491.199219 1832.09375 C 2491.199219 1835.503906 2493.296875 1837.339844 2497.492188 1837.339844 L 2659.5625 1837.339844 C 2663.757812 1837.339844 2665.855469 1835.503906 2665.855469 1832.09375 C 2665.855469 1828.949219 2662.710938 1826.847656 2659.5625 1826.847656 Z M 2659.5625 1826.847656 " fill-opacity="1" fill-rule="nonzero"/><path fill="#000000" d="M 2822.210938 1962.695312 C 2824.570312 1962.695312 2825.882812 1961.382812 2825.882812 1959.023438 C 2825.882812 1958.238281 2825.355469 1957.1875 2824.570312 1956.140625 C 2810.933594 1945.648438 2799.917969 1928.339844 2791.789062 1904.476562 C 2784.707031 1883.757812 2781.035156 1863.300781 2781.035156 1843.109375 L 2781.035156 1821.078125 C 2781.035156 1800.886719 2784.707031 1780.429688 2791.789062 1759.714844 C 2799.917969 1735.847656 2810.933594 1718.539062 2824.570312 1708.050781 C 2825.355469 1707.261719 2825.882812 1706.214844 2825.882812 1705.164062 C 2825.882812 1702.804688 2824.570312 1701.492188 2822.210938 1701.492188 C 2821.949219 1701.492188 2821.160156 1701.757812 2820.375 1702.28125 C 2804.640625 1714.34375 2791.527344 1732.175781 2780.773438 1756.042969 C 2770.546875 1778.859375 2765.300781 1800.363281 2765.300781 1821.078125 L 2765.300781 1843.109375 C 2765.300781 1863.828125 2770.546875 1885.332031 2780.773438 1908.148438 C 2791.527344 1932.011719 2804.640625 1949.84375 2820.375 1961.910156 C 2821.160156 1962.433594 2821.949219 1962.695312 2822.210938 1962.695312 Z M 2822.210938 1962.695312 " fill-opacity="1" fill-rule="nonzero"/><path fill="#000000" d="M 2979.035156 1799.835938 C 2979.035156 1787.773438 2967.234375 1781.742188 2954.121094 1781.742188 C 2942.84375 1781.742188 2933.929688 1787.773438 2927.109375 1799.835938 C 2921.601562 1787.773438 2912.425781 1781.742188 2899.050781 1781.742188 C 2886.199219 1781.742188 2875.710938 1787.773438 2867.316406 1799.574219 C 2860.238281 1809.804688 2856.566406 1817.410156 2856.566406 1822.390625 C 2856.566406 1824.75 2857.875 1826.0625 2860.5 1826.0625 C 2862.859375 1826.0625 2864.433594 1824.75 2864.957031 1822.390625 C 2869.941406 1807.179688 2880.953125 1789.347656 2898.523438 1789.347656 C 2907.179688 1789.347656 2911.375 1794.855469 2911.375 1805.605469 C 2911.375 1811.113281 2906.65625 1831.570312 2897.476562 1866.710938 C 2893.019531 1884.28125 2885.148438 1892.9375 2873.875 1892.9375 C 2870.203125 1892.9375 2866.792969 1892.148438 2863.90625 1890.839844 C 2870.726562 1888.214844 2874.136719 1883.496094 2874.136719 1876.675781 C 2874.136719 1869.859375 2870.726562 1866.449219 2863.644531 1866.449219 C 2854.992188 1866.449219 2848.433594 1873.792969 2848.433594 1882.445312 C 2848.433594 1894.511719 2860.761719 1900.542969 2873.609375 1900.542969 C 2884.625 1900.542969 2893.542969 1894.511719 2900.621094 1882.445312 C 2905.605469 1894.511719 2915.046875 1900.542969 2928.683594 1900.542969 C 2941.273438 1900.542969 2951.761719 1894.511719 2960.152344 1882.707031 C 2967.234375 1872.480469 2970.90625 1864.875 2970.90625 1859.894531 C 2970.90625 1857.53125 2969.59375 1856.222656 2966.972656 1856.222656 C 2964.613281 1856.222656 2963.300781 1857.53125 2962.515625 1859.894531 C 2958.054688 1874.839844 2946.253906 1892.9375 2929.207031 1892.9375 C 2920.554688 1892.9375 2916.097656 1887.691406 2916.097656 1876.9375 C 2916.097656 1873.53125 2917.40625 1866.1875 2920.292969 1854.386719 L 2929.207031 1818.980469 C 2934.191406 1799.3125 2942.320312 1789.347656 2953.859375 1789.347656 C 2957.53125 1789.347656 2960.941406 1790.132812 2963.824219 1791.445312 C 2956.746094 1793.804688 2953.335938 1798.527344 2953.335938 1805.605469 C 2953.335938 1812.425781 2957.007812 1815.835938 2964.085938 1815.835938 C 2972.480469 1815.835938 2979.035156 1808.230469 2979.035156 1799.835938 Z M 2979.035156 1799.835938 " fill-opacity="1" fill-rule="nonzero"/><path fill="#000000" d="M 3043.433594 1665.863281 C 3033.976562 1665.863281 3026.003906 1669.203125 3019.144531 1675.875 C 3012.285156 1682.550781 3008.761719 1690.339844 3008.761719 1699.792969 C 3008.761719 1706.097656 3013.398438 1710.734375 3019.144531 1710.734375 C 3024.707031 1710.734375 3029.34375 1705.914062 3029.34375 1700.351562 C 3029.34375 1694.230469 3024.890625 1689.96875 3018.960938 1689.96875 C 3018.402344 1689.96875 3018.03125 1689.96875 3017.660156 1690.152344 C 3021.183594 1681.066406 3029.34375 1673.09375 3041.023438 1673.09375 C 3056.226562 1673.09375 3064.753906 1686.257812 3064.753906 1702.203125 C 3064.753906 1714.628906 3058.453125 1727.976562 3045.84375 1742.066406 L 3010.988281 1781.375 C 3008.574219 1784.15625 3008.761719 1783.972656 3008.761719 1789.347656 L 3077.550781 1789.347656 L 3082.925781 1755.972656 L 3076.808594 1755.972656 C 3075.324219 1765.429688 3074.027344 1770.808594 3072.914062 1772.476562 C 3071.988281 1773.402344 3066.425781 1773.773438 3056.226562 1773.773438 L 3025.261719 1773.773438 L 3043.246094 1756.160156 C 3055.855469 1744.292969 3071.800781 1731.5 3077.179688 1721.671875 C 3080.886719 1715.183594 3082.742188 1708.695312 3082.742188 1702.203125 C 3082.742188 1680.328125 3065.683594 1665.863281 3043.433594 1665.863281 Z M 3043.433594 1665.863281 " fill-opacity="1" fill-rule="nonzero"/><path fill="#000000" d="M 3346.65625 1825.800781 L 3271.917969 1825.800781 L 3271.917969 1751.058594 C 3271.917969 1746.863281 3269.816406 1744.765625 3265.621094 1744.765625 C 3261.425781 1744.765625 3259.328125 1746.863281 3259.328125 1751.058594 L 3259.328125 1825.800781 L 3184.585938 1825.800781 C 3180.390625 1825.800781 3178.292969 1827.898438 3178.292969 1832.09375 C 3178.292969 1836.289062 3180.390625 1838.386719 3184.585938 1838.386719 L 3259.328125 1838.386719 L 3259.328125 1913.128906 C 3259.328125 1917.324219 3261.425781 1919.421875 3265.621094 1919.421875 C 3269.816406 1919.421875 3271.917969 1917.324219 3271.917969 1913.128906 L 3271.917969 1838.386719 L 3346.65625 1838.386719 C 3350.851562 1838.386719 3352.953125 1836.289062 3352.953125 1832.09375 C 3352.953125 1828.683594 3350.066406 1825.800781 3346.65625 1825.800781 Z M 3346.65625 1825.800781 " fill-opacity="1" fill-rule="nonzero"/><path fill="#000000" d="M 3468.65625 1781.742188 C 3456.855469 1781.742188 3447.675781 1788.300781 3441.121094 1801.410156 C 3436.136719 1811.640625 3433.515625 1818.71875 3433.515625 1822.652344 C 3433.515625 1825.015625 3434.824219 1826.324219 3437.710938 1826.324219 C 3441.382812 1826.324219 3441.644531 1824.75 3442.691406 1820.816406 C 3448.726562 1800.101562 3457.117188 1789.609375 3467.871094 1789.609375 C 3471.277344 1789.609375 3473.113281 1791.96875 3473.113281 1796.691406 C 3473.113281 1800.886719 3471.804688 1806.917969 3468.917969 1814.523438 C 3458.953125 1841.535156 3453.96875 1859.628906 3453.96875 1869.335938 C 3453.96875 1889.265625 3466.296875 1901.066406 3486.488281 1901.066406 C 3495.144531 1901.066406 3503.273438 1897.917969 3510.617188 1891.625 C 3501.4375 1926.242188 3487.011719 1943.550781 3467.34375 1943.550781 C 3458.429688 1943.550781 3452.398438 1940.667969 3449.25 1934.898438 C 3459.738281 1934.371094 3464.984375 1929.390625 3464.984375 1919.949219 C 3464.984375 1913.390625 3461.574219 1909.984375 3454.496094 1909.984375 C 3444.792969 1909.984375 3439.023438 1918.113281 3439.023438 1927.816406 C 3439.023438 1942.238281 3452.132812 1951.417969 3467.34375 1951.417969 C 3497.503906 1951.417969 3522.15625 1923.621094 3528.710938 1897.917969 L 3553.363281 1798.789062 C 3554.148438 1795.902344 3554.410156 1793.804688 3554.410156 1792.496094 C 3554.410156 1787.25 3551.527344 1784.628906 3546.019531 1784.628906 C 3541.824219 1784.628906 3538.414062 1786.726562 3536.054688 1790.660156 C 3534.480469 1796.167969 3533.167969 1800.886719 3532.382812 1804.820312 L 3515.597656 1872.21875 C 3512.976562 1881.660156 3499.078125 1893.460938 3487.277344 1893.460938 C 3477.308594 1893.460938 3472.328125 1886.90625 3472.328125 1873.53125 C 3472.328125 1862.515625 3476.785156 1845.730469 3485.441406 1823.179688 C 3488.847656 1814 3490.683594 1807.707031 3490.683594 1804.035156 C 3490.683594 1791.183594 3481.507812 1781.742188 3468.65625 1781.742188 Z M 3468.65625 1781.742188 " fill-opacity="1" fill-rule="nonzero"/><path fill="#000000" d="M 3607.007812 1665.863281 C 3597.554688 1665.863281 3589.582031 1669.203125 3582.71875 1675.875 C 3575.859375 1682.550781 3572.335938 1690.339844 3572.335938 1699.792969 C 3572.335938 1706.097656 3576.972656 1710.734375 3582.71875 1710.734375 C 3588.28125 1710.734375 3592.917969 1705.914062 3592.917969 1700.351562 C 3592.917969 1694.230469 3588.46875 1689.96875 3582.535156 1689.96875 C 3581.976562 1689.96875 3581.609375 1689.96875 3581.238281 1690.152344 C 3584.757812 1681.066406 3592.917969 1673.09375 3604.597656 1673.09375 C 3619.800781 1673.09375 3628.332031 1686.257812 3628.332031 1702.203125 C 3628.332031 1714.628906 3622.027344 1727.976562 3609.417969 1742.066406 L 3574.5625 1781.375 C 3572.152344 1784.15625 3572.335938 1783.972656 3572.335938 1789.347656 L 3641.125 1789.347656 L 3646.5 1755.972656 L 3640.382812 1755.972656 C 3638.898438 1765.429688 3637.601562 1770.808594 3636.488281 1772.476562 C 3635.5625 1773.402344 3630 1773.773438 3619.800781 1773.773438 L 3588.839844 1773.773438 L 3606.824219 1756.160156 C 3619.429688 1744.292969 3635.375 1731.5 3640.753906 1721.671875 C 3644.460938 1715.183594 3646.316406 1708.695312 3646.316406 1702.203125 C 3646.316406 1680.328125 3629.257812 1665.863281 3607.007812 1665.863281 Z M 3607.007812 1665.863281 " fill-opacity="1" fill-rule="nonzero"/><path fill="#000000" d="M 3689.367188 1961.910156 C 3705.101562 1949.84375 3718.214844 1932.011719 3728.964844 1908.148438 C 3739.191406 1885.332031 3744.4375 1863.828125 3744.4375 1843.109375 L 3744.4375 1821.078125 C 3744.4375 1800.363281 3739.191406 1778.859375 3728.964844 1756.042969 C 3718.214844 1732.175781 3705.101562 1714.34375 3689.367188 1702.28125 C 3688.578125 1701.757812 3687.792969 1701.492188 3687.53125 1701.492188 C 3685.167969 1701.492188 3683.859375 1702.804688 3683.859375 1705.164062 C 3683.859375 1706.214844 3684.382812 1707.261719 3685.167969 1708.050781 C 3698.804688 1718.539062 3709.820312 1735.847656 3717.949219 1759.714844 C 3725.03125 1780.429688 3728.703125 1800.886719 3728.703125 1821.078125 L 3728.703125 1843.109375 C 3728.703125 1863.300781 3725.03125 1883.757812 3717.949219 1904.476562 C 3709.820312 1928.339844 3698.804688 1945.648438 3685.167969 1956.140625 C 3684.382812 1957.1875 3683.859375 1958.238281 3683.859375 1959.023438 C 3683.859375 1961.382812 3685.167969 1962.695312 3687.53125 1962.695312 C 3687.792969 1962.695312 3688.578125 1962.433594 3689.367188 1961.910156 Z M 3689.367188 1961.910156 " fill-opacity="1" fill-rule="nonzero"/><path fill="#000000" d="M 3854.320312 1962.695312 C 3856.679688 1962.695312 3857.992188 1961.382812 3857.992188 1959.023438 C 3857.992188 1958.238281 3857.46875 1957.1875 3856.679688 1956.140625 C 3843.042969 1945.648438 3832.03125 1928.339844 3823.898438 1904.476562 C 3816.820312 1883.757812 3813.148438 1863.300781 3813.148438 1843.109375 L 3813.148438 1821.078125 C 3813.148438 1800.886719 3816.820312 1780.429688 3823.898438 1759.714844 C 3832.03125 1735.847656 3843.042969 1718.539062 3856.679688 1708.050781 C 3857.46875 1707.261719 3857.992188 1706.214844 3857.992188 1705.164062 C 3857.992188 1702.804688 3856.679688 1701.492188 3854.320312 1701.492188 C 3854.058594 1701.492188 3853.273438 1701.757812 3852.484375 1702.28125 C 3836.75 1714.34375 3823.636719 1732.175781 3812.886719 1756.042969 C 3802.65625 1778.859375 3797.414062 1800.363281 3797.414062 1821.078125 L 3797.414062 1843.109375 C 3797.414062 1863.828125 3802.65625 1885.332031 3812.886719 1908.148438 C 3823.636719 1932.011719 3836.75 1949.84375 3852.484375 1961.910156 C 3853.273438 1962.433594 3854.058594 1962.695312 3854.320312 1962.695312 Z M 3854.320312 1962.695312 " fill-opacity="1" fill-rule="nonzero"/><path fill="#000000" d="M 3943.484375 1723 C 3932.734375 1734.011719 3917 1739.519531 3896.28125 1739.519531 L 3896.28125 1749.75 C 3909.917969 1749.75 3921.195312 1747.648438 3929.847656 1743.453125 L 3929.847656 1876.152344 C 3929.847656 1880.875 3928.800781 1884.019531 3926.441406 1885.332031 C 3924.078125 1886.640625 3917.523438 1887.429688 3907.035156 1887.429688 L 3897.855469 1887.429688 L 3897.855469 1897.65625 C 3904.410156 1897.132812 3918.574219 1896.871094 3940.339844 1896.871094 C 3962.105469 1896.871094 3976.265625 1897.132812 3982.824219 1897.65625 L 3982.824219 1887.429688 L 3973.644531 1887.429688 C 3962.890625 1887.429688 3956.335938 1886.640625 3954.238281 1885.332031 C 3952.140625 1884.019531 3950.828125 1880.875 3950.828125 1876.152344 L 3950.828125 1730.867188 C 3950.828125 1724.570312 3950.304688 1723 3943.484375 1723 Z M 3943.484375 1723 " fill-opacity="1" fill-rule="nonzero"/><path fill="#000000" d="M 4245.386719 1825.800781 L 4170.648438 1825.800781 L 4170.648438 1751.058594 C 4170.648438 1746.863281 4168.550781 1744.765625 4164.351562 1744.765625 C 4160.15625 1744.765625 4158.058594 1746.863281 4158.058594 1751.058594 L 4158.058594 1825.800781 L 4083.316406 1825.800781 C 4079.121094 1825.800781 4077.023438 1827.898438 4077.023438 1832.09375 C 4077.023438 1836.289062 4079.121094 1838.386719 4083.316406 1838.386719 L 4158.058594 1838.386719 L 4158.058594 1913.128906 C 4158.058594 1917.324219 4160.15625 1919.421875 4164.351562 1919.421875 C 4168.550781 1919.421875 4170.648438 1917.324219 4170.648438 1913.128906 L 4170.648438 1838.386719 L 4245.386719 1838.386719 C 4249.585938 1838.386719 4251.683594 1836.289062 4251.683594 1832.09375 C 4251.683594 1828.683594 4248.796875 1825.800781 4245.386719 1825.800781 Z M 4245.386719 1825.800781 " fill-opacity="1" fill-rule="nonzero"/><path fill="#000000" d="M 4384.433594 1900.542969 C 4394.921875 1900.542969 4404.625 1897.65625 4413.542969 1891.886719 C 4416.953125 1889.527344 4418.527344 1887.691406 4418.527344 1886.378906 C 4418.527344 1883.234375 4417.214844 1881.660156 4414.855469 1881.660156 L 4411.183594 1883.496094 C 4401.480469 1889.789062 4392.824219 1892.9375 4384.957031 1892.9375 C 4367.386719 1892.9375 4358.207031 1878.773438 4358.207031 1860.417969 C 4358.207031 1853.597656 4358.996094 1846.519531 4360.832031 1839.4375 L 4402.265625 1839.4375 C 4408.824219 1839.4375 4411.96875 1837.601562 4411.96875 1834.191406 C 4411.96875 1831.046875 4409.085938 1829.472656 4403.578125 1829.472656 L 4363.453125 1829.472656 C 4370.535156 1806.132812 4384.695312 1794.59375 4405.9375 1794.59375 L 4413.804688 1794.59375 C 4420.097656 1794.59375 4423.246094 1792.757812 4423.246094 1789.347656 C 4423.246094 1786.199219 4420.363281 1784.628906 4414.59375 1784.628906 L 4405.675781 1784.628906 C 4387.054688 1784.628906 4370.796875 1790.921875 4357.160156 1803.773438 C 4343.523438 1816.621094 4336.964844 1832.09375 4336.964844 1850.714844 C 4336.964844 1879.039062 4356.109375 1900.542969 4384.433594 1900.542969 Z M 4384.433594 1900.542969 " fill-opacity="1" fill-rule="nonzero"/><path fill="#000000" d="M 4473.597656 1873.53125 L 4469.140625 1874.054688 C 4481.726562 1861.730469 4491.429688 1852.8125 4497.988281 1846.78125 L 4523.164062 1823.441406 C 4529.195312 1817.933594 4535.488281 1811.113281 4541.519531 1803.507812 C 4549.648438 1793.542969 4553.585938 1787.511719 4553.585938 1785.414062 C 4553.585938 1783.054688 4552.273438 1781.742188 4549.648438 1781.742188 C 4547.816406 1781.742188 4546.242188 1782.792969 4544.929688 1785.152344 C 4538.375 1795.902344 4532.34375 1801.148438 4526.574219 1801.148438 C 4520.804688 1801.148438 4516.605469 1796.429688 4514.246094 1793.28125 C 4507.953125 1785.675781 4501.660156 1781.742188 4495.625 1781.742188 C 4488.808594 1781.742188 4481.726562 1784.890625 4474.382812 1791.707031 C 4467.042969 1798.527344 4463.371094 1805.34375 4463.371094 1812.164062 C 4463.371094 1814.785156 4464.679688 1816.097656 4467.566406 1816.097656 C 4469.402344 1816.097656 4470.976562 1814.785156 4472.023438 1812.425781 C 4474.910156 1804.820312 4481.988281 1801.148438 4492.742188 1801.148438 C 4496.414062 1801.148438 4501.660156 1802.460938 4508.738281 1804.820312 C 4515.035156 1807.179688 4521.066406 1808.492188 4526.574219 1808.753906 C 4511.886719 1823.179688 4500.609375 1833.667969 4492.480469 1840.75 L 4469.140625 1862.515625 C 4465.207031 1866.449219 4460.222656 1871.695312 4454.714844 1878.25 C 4446.585938 1888.476562 4442.390625 1894.511719 4442.390625 1896.871094 C 4442.390625 1899.230469 4443.703125 1900.542969 4446.585938 1900.542969 C 4448.160156 1900.542969 4449.734375 1899.230469 4451.570312 1896.609375 C 4458.125 1886.378906 4465.207031 1881.136719 4472.550781 1881.136719 C 4476.746094 1881.136719 4481.464844 1884.28125 4486.710938 1890.839844 C 4491.957031 1897.394531 4497.988281 1900.542969 4504.019531 1900.542969 C 4512.933594 1900.542969 4521.851562 1895.820312 4531.292969 1886.640625 C 4540.734375 1877.464844 4545.453125 1868.546875 4545.453125 1859.894531 C 4545.453125 1857.53125 4544.144531 1856.222656 4541.257812 1856.222656 C 4539.421875 1856.222656 4537.847656 1857.53125 4536.539062 1860.15625 C 4532.605469 1871.433594 4521.328125 1881.136719 4506.640625 1881.136719 C 4500.347656 1881.136719 4479.890625 1873.53125 4473.597656 1873.53125 Z M 4473.597656 1873.53125 " fill-opacity="1" fill-rule="nonzero"/><path fill="#000000" d="M 4574.039062 1961.910156 C 4589.773438 1949.84375 4602.886719 1932.011719 4613.640625 1908.148438 C 4623.867188 1885.332031 4629.113281 1863.828125 4629.113281 1843.109375 L 4629.113281 1821.078125 C 4629.113281 1800.363281 4623.867188 1778.859375 4613.640625 1756.042969 C 4602.886719 1732.175781 4589.773438 1714.34375 4574.039062 1702.28125 C 4573.253906 1701.757812 4572.464844 1701.492188 4572.203125 1701.492188 C 4569.84375 1701.492188 4568.53125 1702.804688 4568.53125 1705.164062 C 4568.53125 1706.214844 4569.058594 1707.261719 4569.84375 1708.050781 C 4583.480469 1718.539062 4594.496094 1735.847656 4602.625 1759.714844 C 4609.707031 1780.429688 4613.378906 1800.886719 4613.378906 1821.078125 L 4613.378906 1843.109375 C 4613.378906 1863.300781 4609.707031 1883.757812 4602.625 1904.476562 C 4594.496094 1928.339844 4583.480469 1945.648438 4569.84375 1956.140625 C 4569.058594 1957.1875 4568.53125 1958.238281 4568.53125 1959.023438 C 4568.53125 1961.382812 4569.84375 1962.695312 4572.203125 1962.695312 C 4572.464844 1962.695312 4573.253906 1962.433594 4574.039062 1961.910156 Z M 4574.039062 1961.910156 " fill-opacity="1" fill-rule="nonzero"/><path fill="#000000" d="M 4896.949219 1825.800781 L 4822.207031 1825.800781 L 4822.207031 1751.058594 C 4822.207031 1746.863281 4820.109375 1744.765625 4815.914062 1744.765625 C 4811.71875 1744.765625 4809.621094 1746.863281 4809.621094 1751.058594 L 4809.621094 1825.800781 L 4734.878906 1825.800781 C 4730.683594 1825.800781 4728.585938 1827.898438 4728.585938 1832.09375 C 4728.585938 1836.289062 4730.683594 1838.386719 4734.878906 1838.386719 L 4809.621094 1838.386719 L 4809.621094 1913.128906 C 4809.621094 1917.324219 4811.71875 1919.421875 4815.914062 1919.421875 C 4820.109375 1919.421875 4822.207031 1917.324219 4822.207031 1913.128906 L 4822.207031 1838.386719 L 4896.949219 1838.386719 C 4901.144531 1838.386719 4903.242188 1836.289062 4903.242188 1832.09375 C 4903.242188 1828.683594 4900.359375 1825.800781 4896.949219 1825.800781 Z M 4896.949219 1825.800781 " fill-opacity="1" fill-rule="nonzero"/><path fill="#000000" d="M 5070.871094 1781.742188 C 5041.238281 1781.742188 5016.585938 1813.738281 5010.03125 1839.960938 L 4984.855469 1941.976562 C 4984.332031 1944.074219 4984.066406 1945.386719 4984.066406 1946.171875 C 4984.066406 1951.679688 4986.691406 1954.304688 4992.199219 1954.304688 C 4996.132812 1954.304688 4999.539062 1952.203125 5002.164062 1948.269531 L 5018.160156 1885.59375 C 5024.191406 1895.820312 5032.585938 1901.066406 5043.335938 1901.066406 C 5060.644531 1901.066406 5075.855469 1892.675781 5089.230469 1875.628906 C 5101.554688 1859.628906 5107.851562 1842.585938 5107.851562 1825.015625 C 5107.851562 1801.148438 5093.949219 1781.742188 5070.871094 1781.742188 M 5070.347656 1789.609375 C 5081.625 1789.609375 5087.132812 1797.738281 5087.132812 1814 C 5087.132812 1821.078125 5085.558594 1830.257812 5082.671875 1842.058594 C 5076.90625 1864.351562 5068.773438 1879.300781 5058.546875 1887.167969 C 5053.039062 1891.363281 5048.058594 1893.460938 5043.074219 1893.460938 C 5038.089844 1893.460938 5033.632812 1891.625 5030.222656 1888.214844 C 5024.714844 1882.707031 5022.09375 1876.9375 5022.09375 1871.433594 C 5022.355469 1869.597656 5022.878906 1866.449219 5023.929688 1861.992188 C 5029.960938 1837.078125 5035.207031 1821.078125 5039.402344 1813.738281 C 5048.582031 1797.738281 5058.808594 1789.609375 5070.347656 1789.609375 Z M 5070.347656 1789.609375 " fill-opacity="1" fill-rule="nonzero"/><path fill="#000000" d="M 5154.269531 1873.53125 L 5149.808594 1874.054688 C 5162.398438 1861.730469 5172.101562 1852.8125 5178.65625 1846.78125 L 5203.832031 1823.441406 C 5209.863281 1817.933594 5216.160156 1811.113281 5222.191406 1803.507812 C 5230.320312 1793.542969 5234.253906 1787.511719 5234.253906 1785.414062 C 5234.253906 1783.054688 5232.941406 1781.742188 5230.320312 1781.742188 C 5228.484375 1781.742188 5226.910156 1782.792969 5225.601562 1785.152344 C 5219.042969 1795.902344 5213.011719 1801.148438 5207.242188 1801.148438 C 5201.472656 1801.148438 5197.277344 1796.429688 5194.917969 1793.28125 C 5188.621094 1785.675781 5182.328125 1781.742188 5176.296875 1781.742188 C 5169.476562 1781.742188 5162.398438 1784.890625 5155.054688 1791.707031 C 5147.710938 1798.527344 5144.039062 1805.34375 5144.039062 1812.164062 C 5144.039062 1814.785156 5145.351562 1816.097656 5148.234375 1816.097656 C 5150.070312 1816.097656 5151.644531 1814.785156 5152.695312 1812.425781 C 5155.578125 1804.820312 5162.660156 1801.148438 5173.414062 1801.148438 C 5177.082031 1801.148438 5182.328125 1802.460938 5189.410156 1804.820312 C 5195.703125 1807.179688 5201.734375 1808.492188 5207.242188 1808.753906 C 5192.554688 1823.179688 5181.28125 1833.667969 5173.148438 1840.75 L 5149.808594 1862.515625 C 5145.875 1866.449219 5140.894531 1871.695312 5135.386719 1878.25 C 5127.257812 1888.476562 5123.058594 1894.511719 5123.058594 1896.871094 C 5123.058594 1899.230469 5124.371094 1900.542969 5127.257812 1900.542969 C 5128.828125 1900.542969 5130.402344 1899.230469 5132.238281 1896.609375 C 5138.796875 1886.378906 5145.875 1881.136719 5153.21875 1881.136719 C 5157.414062 1881.136719 5162.136719 1884.28125 5167.378906 1890.839844 C 5172.625 1897.394531 5178.65625 1900.542969 5184.6875 1900.542969 C 5193.605469 1900.542969 5202.523438 1895.820312 5211.964844 1886.640625 C 5221.402344 1877.464844 5226.125 1868.546875 5226.125 1859.894531 C 5226.125 1857.53125 5224.8125 1856.222656 5221.929688 1856.222656 C 5220.09375 1856.222656 5218.519531 1857.53125 5217.207031 1860.15625 C 5213.273438 1871.433594 5201.996094 1881.136719 5187.3125 1881.136719 C 5181.015625 1881.136719 5160.5625 1873.53125 5154.269531 1873.53125 Z M 5154.269531 1873.53125 " fill-opacity="1" fill-rule="nonzero"/><path fill="#000000" d="M 5372.460938 1799.835938 C 5372.460938 1787.773438 5360.660156 1781.742188 5347.546875 1781.742188 C 5336.269531 1781.742188 5327.351562 1787.773438 5320.535156 1799.835938 C 5315.027344 1787.773438 5305.847656 1781.742188 5292.472656 1781.742188 C 5279.625 1781.742188 5269.132812 1787.773438 5260.742188 1799.574219 C 5253.660156 1809.804688 5249.988281 1817.410156 5249.988281 1822.390625 C 5249.988281 1824.75 5251.300781 1826.0625 5253.921875 1826.0625 C 5256.28125 1826.0625 5257.855469 1824.75 5258.382812 1822.390625 C 5263.363281 1807.179688 5274.378906 1789.347656 5291.949219 1789.347656 C 5300.601562 1789.347656 5304.800781 1794.855469 5304.800781 1805.605469 C 5304.800781 1811.113281 5300.078125 1831.570312 5290.898438 1866.710938 C 5286.441406 1884.28125 5278.574219 1892.9375 5267.296875 1892.9375 C 5263.625 1892.9375 5260.214844 1892.148438 5257.332031 1890.839844 C 5264.152344 1888.214844 5267.558594 1883.496094 5267.558594 1876.675781 C 5267.558594 1869.859375 5264.152344 1866.449219 5257.070312 1866.449219 C 5248.414062 1866.449219 5241.859375 1873.792969 5241.859375 1882.445312 C 5241.859375 1894.511719 5254.183594 1900.542969 5267.035156 1900.542969 C 5278.050781 1900.542969 5286.964844 1894.511719 5294.046875 1882.445312 C 5299.03125 1894.511719 5308.46875 1900.542969 5322.109375 1900.542969 C 5334.695312 1900.542969 5345.1875 1894.511719 5353.578125 1882.707031 C 5360.660156 1872.480469 5364.328125 1864.875 5364.328125 1859.894531 C 5364.328125 1857.53125 5363.019531 1856.222656 5360.394531 1856.222656 C 5358.035156 1856.222656 5356.726562 1857.53125 5355.9375 1859.894531 C 5351.480469 1874.839844 5339.679688 1892.9375 5322.632812 1892.9375 C 5313.976562 1892.9375 5309.519531 1887.691406 5309.519531 1876.9375 C 5309.519531 1873.53125 5310.832031 1866.1875 5313.714844 1854.386719 L 5322.632812 1818.980469 C 5327.613281 1799.3125 5335.746094 1789.347656 5347.285156 1789.347656 C 5350.957031 1789.347656 5354.363281 1790.132812 5357.25 1791.445312 C 5350.167969 1793.804688 5346.757812 1798.527344 5346.757812 1805.605469 C 5346.757812 1812.425781 5350.429688 1815.835938 5357.511719 1815.835938 C 5365.902344 1815.835938 5372.460938 1808.230469 5372.460938 1799.835938 Z M 5372.460938 1799.835938 " fill-opacity="1" fill-rule="nonzero"/><path fill="#000000" d="M 5449.09375 1723.898438 C 5461.332031 1719.261719 5472.828125 1707.582031 5472.828125 1691.820312 C 5472.828125 1683.847656 5468.933594 1677.359375 5461.332031 1672.355469 C 5454.65625 1668.089844 5447.054688 1665.863281 5438.527344 1665.863281 C 5430.183594 1665.863281 5422.953125 1668.089844 5416.464844 1672.355469 C 5409.230469 1677.175781 5405.523438 1683.476562 5405.523438 1691.449219 C 5405.523438 1697.570312 5409.601562 1701.835938 5415.535156 1701.835938 C 5421.46875 1701.835938 5425.546875 1697.570312 5425.546875 1691.636719 C 5425.546875 1685.519531 5422.023438 1682.179688 5414.980469 1681.808594 C 5419.800781 1675.320312 5427.402344 1671.984375 5437.785156 1671.984375 C 5448.910156 1671.984375 5454.472656 1678.472656 5454.472656 1691.636719 C 5454.472656 1699.421875 5452.988281 1705.914062 5450.207031 1711.289062 C 5445.203125 1720.191406 5438.339844 1721.859375 5426.847656 1721.859375 C 5424.621094 1722.230469 5423.507812 1723.15625 5423.507812 1724.824219 C 5423.507812 1727.605469 5424.804688 1727.605469 5428.515625 1727.605469 L 5436.488281 1727.605469 C 5450.394531 1727.605469 5457.4375 1737.433594 5457.4375 1757.273438 C 5457.4375 1773.03125 5451.691406 1786.753906 5437.601562 1786.753906 C 5425.546875 1786.753906 5416.648438 1782.671875 5411.273438 1774.515625 C 5417.761719 1774.699219 5422.582031 1769.878906 5422.582031 1763.574219 C 5422.582031 1757.273438 5417.945312 1752.636719 5411.640625 1752.636719 C 5404.410156 1752.636719 5400.703125 1756.34375 5400.703125 1763.945312 C 5400.703125 1773.03125 5404.78125 1780.261719 5412.941406 1786.011719 C 5420.171875 1791.015625 5428.699219 1793.425781 5438.15625 1793.425781 C 5448.722656 1793.425781 5457.808594 1789.902344 5465.78125 1783.042969 C 5473.753906 1776.183594 5477.648438 1767.65625 5477.648438 1757.273438 C 5477.648438 1739.84375 5463.929688 1727.792969 5449.09375 1723.898438 Z M 5449.09375 1723.898438 " fill-opacity="1" fill-rule="nonzero"/></svg>