<svg xmlns="http://www.w3.org/2000/svg" xmlns:xlink="http://www.w3.org/1999/xlink" width="5709" zoomAndPan="magnify" viewBox="0 0 4281.75 2343.749891" height="3125" preserveAspectRatio="xMidYMid meet" version="1.0"><path fill="#000000" d="M 498.847656 461.667969 C 498.847656 446.085938 483.605469 438.292969 466.667969 438.292969 C 452.105469 438.292969 440.589844 446.085938 431.78125 461.667969 C 424.667969 446.085938 412.8125 438.292969 395.539062 438.292969 C 378.941406 438.292969 365.394531 446.085938 354.554688 461.328125 C 345.410156 474.539062 340.667969 484.359375 340.667969 490.796875 C 340.667969 493.84375 342.359375 495.539062 345.75 495.539062 C 348.796875 495.539062 350.828125 493.84375 351.507812 490.796875 C 357.941406 471.148438 372.167969 448.117188 394.863281 448.117188 C 406.039062 448.117188 411.457031 455.230469 411.457031 469.117188 C 411.457031 476.230469 405.363281 502.652344 393.507812 548.039062 C 387.75 570.730469 377.585938 581.910156 363.023438 581.910156 C 358.28125 581.910156 353.878906 580.894531 350.152344 579.199219 C 358.957031 575.8125 363.363281 569.714844 363.363281 560.910156 C 363.363281 552.101562 358.957031 547.699219 349.8125 547.699219 C 338.636719 547.699219 330.167969 557.183594 330.167969 568.363281 C 330.167969 583.941406 346.085938 591.734375 362.683594 591.734375 C 376.910156 591.734375 388.425781 583.941406 397.570312 568.363281 C 404.007812 583.941406 416.199219 591.734375 433.8125 591.734375 C 450.074219 591.734375 463.621094 583.941406 474.460938 568.699219 C 483.605469 555.488281 488.347656 545.667969 488.347656 539.230469 C 488.347656 536.183594 486.652344 534.488281 483.265625 534.488281 C 480.21875 534.488281 478.523438 536.183594 477.507812 539.230469 C 471.75 558.539062 456.507812 581.910156 434.492188 581.910156 C 423.3125 581.910156 417.554688 575.136719 417.554688 561.25 C 417.554688 556.84375 419.25 547.359375 422.976562 532.117188 L 434.492188 486.390625 C 440.925781 460.988281 451.425781 448.117188 466.332031 448.117188 C 471.074219 448.117188 475.476562 449.132812 479.203125 450.828125 C 470.054688 453.875 465.652344 459.972656 465.652344 469.117188 C 465.652344 477.925781 470.394531 482.328125 479.539062 482.328125 C 490.378906 482.328125 498.847656 472.503906 498.847656 461.667969 Z M 498.847656 461.667969 " fill-opacity="1" fill-rule="nonzero"/><path fill="#000000" d="M 653.863281 606.007812 C 648.355469 624.925781 640.453125 634.503906 630.632812 634.503906 C 627.519531 634.503906 625.84375 632.109375 625.84375 627.558594 C 625.84375 624.207031 627.28125 618.699219 630.15625 611.273438 C 639.734375 585.171875 644.523438 567.929688 644.523438 559.070312 C 644.523438 542.308594 633.269531 532.96875 616.503906 532.96875 C 602.375 532.96875 590.164062 539.195312 580.34375 551.886719 C 578.429688 541.347656 570.046875 532.96875 557.835938 532.96875 C 544.425781 532.96875 539.15625 545.421875 535.804688 556.195312 C 533.410156 563.859375 532.210938 568.410156 532.210938 570.085938 C 532.210938 572.242188 533.410156 573.4375 536.042969 573.4375 C 537.242188 573.4375 537.960938 573.199219 538.675781 572.71875 C 539.875 570.566406 540.59375 568.886719 540.832031 567.210938 C 545.144531 549.011719 550.652344 539.914062 557.117188 539.914062 C 561.425781 539.914062 563.582031 543.265625 563.582031 549.96875 C 563.582031 553.082031 562.386719 559.550781 559.75 569.367188 L 546.101562 623.726562 C 545.382812 626.839844 543.945312 633.066406 543.945312 634.265625 C 543.945312 639.054688 546.578125 641.449219 551.847656 641.449219 C 556.398438 641.449219 559.75 639.054688 561.425781 634.265625 C 561.90625 633.066406 563.34375 627.078125 565.976562 616.78125 L 571.007812 595.46875 L 578.191406 568.171875 C 580.824219 562.660156 584.894531 557.152344 589.925781 551.40625 C 596.867188 543.742188 605.488281 539.914062 615.789062 539.914062 C 623.691406 539.914062 627.519531 545.179688 627.519531 555.476562 C 627.519531 564.578125 622.492188 582.777344 612.195312 610.078125 C 610.519531 614.386719 609.800781 617.980469 609.800781 621.09375 C 609.800781 632.828125 618.660156 641.449219 630.15625 641.449219 C 640.691406 641.449219 649.074219 635.460938 655.058594 623.488281 C 659.609375 613.910156 662.003906 607.441406 662.003906 604.332031 C 662.003906 602.175781 660.808594 600.976562 658.171875 600.976562 C 657.457031 600.976562 653.863281 603.132812 653.863281 606.007812 Z M 653.863281 606.007812 " fill-opacity="1" fill-rule="nonzero"/><path fill="#000000" d="M 836.101562 573.199219 L 767.851562 573.199219 L 767.851562 504.949219 C 767.851562 501.117188 765.9375 499.203125 762.105469 499.203125 C 758.273438 499.203125 756.355469 501.117188 756.355469 504.949219 L 756.355469 573.199219 L 688.109375 573.199219 C 684.277344 573.199219 682.359375 575.113281 682.359375 578.945312 C 682.359375 582.777344 684.277344 584.695312 688.109375 584.695312 L 756.355469 584.695312 L 756.355469 652.941406 C 756.355469 656.773438 758.273438 658.691406 762.105469 658.691406 C 765.9375 658.691406 767.851562 656.773438 767.851562 652.941406 L 767.851562 584.695312 L 836.101562 584.695312 C 839.933594 584.695312 841.847656 582.777344 841.847656 578.945312 C 841.847656 575.832031 839.214844 573.199219 836.101562 573.199219 Z M 836.101562 573.199219 " fill-opacity="1" fill-rule="nonzero"/><path fill="#000000" d="M 919.675781 479.324219 C 909.859375 489.382812 895.488281 494.414062 876.570312 494.414062 L 876.570312 503.753906 C 889.023438 503.753906 899.320312 501.835938 907.222656 498.003906 L 907.222656 619.175781 C 907.222656 623.488281 906.265625 626.363281 904.109375 627.558594 C 901.957031 628.757812 895.96875 629.472656 886.390625 629.472656 L 878.007812 629.472656 L 878.007812 638.8125 C 883.996094 638.335938 896.925781 638.09375 916.800781 638.09375 C 936.679688 638.09375 949.609375 638.335938 955.597656 638.8125 L 955.597656 629.472656 L 947.214844 629.472656 C 937.398438 629.472656 931.410156 628.757812 929.496094 627.558594 C 927.578125 626.363281 926.382812 623.488281 926.382812 619.175781 L 926.382812 486.511719 C 926.382812 480.761719 925.902344 479.324219 919.675781 479.324219 Z M 919.675781 479.324219 " fill-opacity="1" fill-rule="nonzero"/><path fill="#000000" d="M 1322.5 463.699219 L 1113.175781 463.699219 C 1107.753906 463.699219 1105.046875 466.410156 1105.046875 471.488281 C 1105.046875 476.570312 1107.753906 479.28125 1113.175781 479.28125 L 1322.5 479.28125 C 1327.917969 479.28125 1330.628906 476.570312 1330.628906 471.488281 C 1330.628906 467.425781 1326.902344 463.699219 1322.5 463.699219 M 1322.5 527.375 L 1113.175781 527.375 C 1107.753906 527.375 1105.046875 530.085938 1105.046875 535.167969 C 1105.046875 540.246094 1107.753906 542.957031 1113.175781 542.957031 L 1322.5 542.957031 C 1327.917969 542.957031 1330.628906 540.246094 1330.628906 535.167969 C 1330.628906 530.765625 1326.902344 527.375 1322.5 527.375 Z M 1322.5 527.375 " fill-opacity="1" fill-rule="nonzero"/><path fill="#000000" d="M 1588.324219 348.875 C 1544.628906 348.875 1515.5 400.699219 1505.335938 441.683594 L 1453.851562 648.296875 C 1453.851562 652.023438 1455.546875 653.71875 1458.59375 653.71875 L 1460.289062 653.71875 C 1462.660156 653.71875 1464.351562 652.703125 1464.691406 650.332031 L 1486.371094 562.941406 C 1493.820312 582.585938 1508.386719 592.410156 1530.0625 592.410156 C 1551.0625 592.410156 1570.371094 585.972656 1587.644531 572.765625 C 1611.695312 554.8125 1623.886719 531.441406 1623.886719 503.328125 C 1623.886719 480.632812 1616.097656 463.699219 1600.515625 452.519531 C 1619.824219 440.664062 1632.015625 425.421875 1636.421875 407.132812 C 1637.4375 402.730469 1638.113281 398.328125 1638.113281 394.601562 C 1638.113281 366.488281 1615.421875 348.875 1588.324219 348.875 M 1547.339844 452.859375 C 1549.03125 451.84375 1555.128906 451.503906 1564.953125 451.503906 C 1567.324219 451.503906 1569.355469 451.84375 1571.726562 452.183594 C 1568.339844 452.859375 1565.289062 453.199219 1562.242188 453.199219 L 1556.144531 453.199219 C 1552.417969 453.199219 1549.371094 453.199219 1547.339844 452.859375 M 1493.820312 541.265625 C 1493.820312 535.84375 1494.5 530.425781 1495.855469 525.007812 L 1515.839844 443.714844 C 1524.984375 407.132812 1549.371094 359.375 1587.984375 359.375 C 1607.289062 359.375 1616.773438 369.195312 1616.773438 388.503906 C 1616.773438 393.246094 1616.097656 398.664062 1614.402344 405.101562 C 1609.660156 424.070312 1600.855469 437.617188 1587.644531 445.40625 C 1580.195312 442.699219 1572.742188 441.34375 1565.289062 441.34375 C 1550.386719 441.34375 1535.144531 441.683594 1535.144531 453.875 C 1535.144531 456.246094 1536.160156 458.277344 1537.855469 459.632812 C 1540.902344 462.003906 1548.691406 463.359375 1561.902344 463.359375 C 1570.371094 463.359375 1578.839844 462.003906 1586.628906 459.296875 C 1595.773438 466.746094 1600.515625 478.261719 1600.515625 493.84375 C 1600.515625 502.3125 1599.160156 512.132812 1596.453125 522.636719 C 1588.660156 553.121094 1565.628906 582.25 1530.402344 582.25 C 1507.371094 582.25 1493.820312 564.972656 1493.820312 541.265625 Z M 1493.820312 541.265625 " fill-opacity="1" fill-rule="nonzero"/><path fill="#000000" d="M 1693.324219 438.292969 C 1678.082031 438.292969 1666.226562 446.761719 1657.757812 463.699219 C 1651.324219 476.910156 1647.9375 486.054688 1647.9375 491.132812 C 1647.9375 494.183594 1649.628906 495.875 1653.355469 495.875 C 1658.097656 495.875 1658.4375 493.84375 1659.792969 488.761719 C 1667.582031 462.003906 1678.421875 448.457031 1692.308594 448.457031 C 1696.710938 448.457031 1699.082031 451.503906 1699.082031 457.601562 C 1699.082031 463.019531 1697.390625 470.8125 1693.664062 480.632812 C 1680.792969 515.523438 1674.355469 538.894531 1674.355469 551.425781 C 1674.355469 577.167969 1690.277344 592.410156 1716.355469 592.410156 C 1727.535156 592.410156 1738.035156 588.34375 1747.519531 580.214844 C 1735.664062 624.925781 1717.035156 647.28125 1691.628906 647.28125 C 1680.113281 647.28125 1672.324219 643.554688 1668.257812 636.105469 C 1681.808594 635.425781 1688.582031 628.992188 1688.582031 616.796875 C 1688.582031 608.328125 1684.179688 603.925781 1675.035156 603.925781 C 1662.5 603.925781 1655.050781 614.425781 1655.050781 626.957031 C 1655.050781 645.589844 1671.984375 657.441406 1691.628906 657.441406 C 1730.582031 657.441406 1762.421875 621.539062 1770.890625 588.34375 L 1802.730469 460.3125 C 1803.746094 456.585938 1804.085938 453.875 1804.085938 452.183594 C 1804.085938 445.40625 1800.359375 442.019531 1793.246094 442.019531 C 1787.824219 442.019531 1783.421875 444.730469 1780.375 449.8125 C 1778.339844 456.925781 1776.648438 463.019531 1775.632812 468.101562 L 1753.953125 555.152344 C 1750.566406 567.34375 1732.617188 582.585938 1717.375 582.585938 C 1704.5 582.585938 1698.066406 574.121094 1698.066406 556.84375 C 1698.066406 542.617188 1703.824219 520.941406 1715.003906 491.8125 C 1719.40625 479.957031 1721.777344 471.828125 1721.777344 467.085938 C 1721.777344 450.488281 1709.921875 438.292969 1693.324219 438.292969 Z M 1693.324219 438.292969 " fill-opacity="1" fill-rule="nonzero"/><path fill="#000000" d="M 1943.859375 606.007812 C 1938.351562 624.925781 1930.449219 634.503906 1920.628906 634.503906 C 1917.515625 634.503906 1915.839844 632.109375 1915.839844 627.558594 C 1915.839844 624.207031 1917.277344 618.699219 1920.148438 611.273438 C 1929.730469 585.171875 1934.519531 567.929688 1934.519531 559.070312 C 1934.519531 542.308594 1923.261719 532.96875 1906.5 532.96875 C 1892.371094 532.96875 1880.160156 539.195312 1870.339844 551.886719 C 1868.425781 541.347656 1860.042969 532.96875 1847.828125 532.96875 C 1834.417969 532.96875 1829.152344 545.421875 1825.796875 556.195312 C 1823.402344 563.859375 1822.207031 568.410156 1822.207031 570.085938 C 1822.207031 572.242188 1823.402344 573.4375 1826.039062 573.4375 C 1827.234375 573.4375 1827.953125 573.199219 1828.671875 572.71875 C 1829.871094 570.566406 1830.589844 568.886719 1830.828125 567.210938 C 1835.136719 549.011719 1840.644531 539.914062 1847.113281 539.914062 C 1851.421875 539.914062 1853.578125 543.265625 1853.578125 549.96875 C 1853.578125 553.082031 1852.378906 559.550781 1849.746094 569.367188 L 1836.097656 623.726562 C 1835.378906 626.839844 1833.941406 633.066406 1833.941406 634.265625 C 1833.941406 639.054688 1836.574219 641.449219 1841.84375 641.449219 C 1846.394531 641.449219 1849.746094 639.054688 1851.421875 634.265625 C 1851.902344 633.066406 1853.335938 627.078125 1855.972656 616.78125 L 1861 595.46875 L 1868.183594 568.171875 C 1870.820312 562.660156 1874.890625 557.152344 1879.917969 551.40625 C 1886.863281 543.742188 1895.484375 539.914062 1905.78125 539.914062 C 1913.683594 539.914062 1917.515625 545.179688 1917.515625 555.476562 C 1917.515625 564.578125 1912.488281 582.777344 1902.191406 610.078125 C 1900.511719 614.386719 1899.796875 617.980469 1899.796875 621.09375 C 1899.796875 632.828125 1908.65625 641.449219 1920.148438 641.449219 C 1930.6875 641.449219 1939.070312 635.460938 1945.054688 623.488281 C 1949.605469 613.910156 1952 607.441406 1952 604.332031 C 1952 602.175781 1950.800781 600.976562 1948.167969 600.976562 C 1947.449219 600.976562 1943.859375 603.132812 1943.859375 606.007812 Z M 1943.859375 606.007812 " fill-opacity="1" fill-rule="nonzero"/><path fill="#000000" d="M 2287.566406 495.199219 L 2191.03125 495.199219 L 2191.03125 398.664062 C 2191.03125 393.246094 2188.320312 390.535156 2182.902344 390.535156 C 2177.484375 390.535156 2174.773438 393.246094 2174.773438 398.664062 L 2174.773438 495.199219 L 2078.238281 495.199219 C 2072.820312 495.199219 2070.109375 497.910156 2070.109375 503.328125 C 2070.109375 508.746094 2072.820312 511.457031 2078.238281 511.457031 L 2174.773438 511.457031 L 2174.773438 607.992188 C 2174.773438 613.410156 2177.484375 616.121094 2182.902344 616.121094 C 2188.320312 616.121094 2191.03125 613.410156 2191.03125 607.992188 L 2191.03125 511.457031 L 2287.566406 511.457031 C 2292.984375 511.457031 2295.695312 508.746094 2295.695312 503.328125 C 2295.695312 498.925781 2291.96875 495.199219 2287.566406 495.199219 Z M 2287.566406 495.199219 " fill-opacity="1" fill-rule="nonzero"/><path fill="#000000" d="M 2576.929688 373.601562 C 2576.929688 358.695312 2562.363281 349.214844 2546.445312 349.214844 C 2525.445312 349.214844 2510.878906 362.761719 2503.089844 389.519531 C 2501.394531 395.617188 2497.667969 412.890625 2492.25 441.34375 L 2470.234375 441.34375 C 2462.78125 441.34375 2459.054688 441.683594 2459.054688 448.796875 C 2459.054688 452.519531 2462.441406 454.214844 2469.554688 454.214844 L 2489.878906 454.214844 L 2465.152344 585.296875 C 2461.425781 604.605469 2458.039062 618.828125 2454.992188 628.3125 C 2450.925781 640.847656 2445.167969 647.28125 2437.71875 647.28125 C 2432.636719 647.28125 2428.570312 645.925781 2424.847656 643.554688 C 2435.683594 641.863281 2441.105469 635.425781 2441.105469 624.589844 C 2441.105469 615.78125 2436.699219 611.378906 2427.554688 611.378906 C 2416.039062 611.378906 2407.910156 621.539062 2407.910156 633.054688 C 2407.910156 647.960938 2421.796875 657.441406 2437.71875 657.441406 C 2446.183594 657.441406 2453.976562 654.054688 2460.410156 646.941406 C 2471.25 635.765625 2479.71875 619.847656 2485.816406 598.507812 C 2489.539062 585.296875 2492.925781 572.425781 2495.296875 559.554688 L 2514.945312 454.214844 L 2542.71875 454.214844 C 2550.507812 454.214844 2553.894531 453.875 2553.894531 446.085938 C 2553.894531 443.035156 2550.507812 441.34375 2543.734375 441.34375 L 2517.652344 441.34375 C 2519.6875 427.457031 2529.171875 376.308594 2532.21875 369.875 C 2535.605469 362.761719 2540.347656 359.375 2546.445312 359.375 C 2551.523438 359.375 2555.929688 360.730469 2559.65625 363.101562 C 2549.152344 365.472656 2543.734375 371.566406 2543.734375 382.066406 C 2543.734375 390.875 2548.136719 395.277344 2557.285156 395.277344 C 2568.800781 395.277344 2576.929688 385.117188 2576.929688 373.601562 Z M 2576.929688 373.601562 " fill-opacity="1" fill-rule="nonzero"/><path fill="#000000" d="M 2684.640625 672.007812 C 2687.6875 672.007812 2689.382812 670.3125 2689.382812 667.265625 C 2689.382812 666.25 2688.703125 664.894531 2687.6875 663.539062 C 2670.074219 649.992188 2655.851562 627.636719 2645.347656 596.8125 C 2636.203125 570.054688 2631.460938 543.636719 2631.460938 517.554688 L 2631.460938 489.101562 C 2631.460938 463.019531 2636.203125 436.601562 2645.347656 409.84375 C 2655.851562 379.019531 2670.074219 356.664062 2687.6875 343.117188 C 2688.703125 342.101562 2689.382812 340.746094 2689.382812 339.390625 C 2689.382812 336.34375 2687.6875 334.648438 2684.640625 334.648438 C 2684.300781 334.648438 2683.285156 334.988281 2682.269531 335.664062 C 2661.945312 351.246094 2645.011719 374.277344 2631.125 405.101562 C 2617.914062 434.570312 2611.140625 462.34375 2611.140625 489.101562 L 2611.140625 517.554688 C 2611.140625 544.3125 2617.914062 572.085938 2631.125 601.554688 C 2645.011719 632.378906 2661.945312 655.410156 2682.269531 670.992188 C 2683.285156 671.667969 2684.300781 672.007812 2684.640625 672.007812 Z M 2684.640625 672.007812 " fill-opacity="1" fill-rule="nonzero"/><path fill="#000000" d="M 2887.191406 461.667969 C 2887.191406 446.085938 2871.949219 438.292969 2855.015625 438.292969 C 2840.449219 438.292969 2828.933594 446.085938 2820.125 461.667969 C 2813.011719 446.085938 2801.160156 438.292969 2783.882812 438.292969 C 2767.285156 438.292969 2753.738281 446.085938 2742.898438 461.328125 C 2733.753906 474.539062 2729.011719 484.359375 2729.011719 490.796875 C 2729.011719 493.84375 2730.707031 495.539062 2734.09375 495.539062 C 2737.140625 495.539062 2739.171875 493.84375 2739.851562 490.796875 C 2746.285156 471.148438 2760.511719 448.117188 2783.207031 448.117188 C 2794.382812 448.117188 2799.804688 455.230469 2799.804688 469.117188 C 2799.804688 476.230469 2793.707031 502.652344 2781.851562 548.039062 C 2776.09375 570.730469 2765.933594 581.910156 2751.367188 581.910156 C 2746.625 581.910156 2742.222656 580.894531 2738.496094 579.199219 C 2747.300781 575.8125 2751.707031 569.714844 2751.707031 560.910156 C 2751.707031 552.101562 2747.300781 547.699219 2738.15625 547.699219 C 2726.980469 547.699219 2718.511719 557.183594 2718.511719 568.363281 C 2718.511719 583.941406 2734.429688 591.734375 2751.027344 591.734375 C 2765.253906 591.734375 2776.769531 583.941406 2785.917969 568.363281 C 2792.351562 583.941406 2804.546875 591.734375 2822.160156 591.734375 C 2838.417969 591.734375 2851.964844 583.941406 2862.804688 568.699219 C 2871.949219 555.488281 2876.691406 545.667969 2876.691406 539.230469 C 2876.691406 536.183594 2874.996094 534.488281 2871.609375 534.488281 C 2868.5625 534.488281 2866.867188 536.183594 2865.851562 539.230469 C 2860.09375 558.539062 2844.851562 581.910156 2822.835938 581.910156 C 2811.660156 581.910156 2805.898438 575.136719 2805.898438 561.25 C 2805.898438 556.84375 2807.59375 547.359375 2811.320312 532.117188 L 2822.835938 486.390625 C 2829.273438 460.988281 2839.773438 448.117188 2854.675781 448.117188 C 2859.417969 448.117188 2863.820312 449.132812 2867.546875 450.828125 C 2858.402344 453.875 2853.996094 459.972656 2853.996094 469.117188 C 2853.996094 477.925781 2858.738281 482.328125 2867.886719 482.328125 C 2878.722656 482.328125 2887.191406 472.503906 2887.191406 461.667969 Z M 2887.191406 461.667969 " fill-opacity="1" fill-rule="nonzero"/><path fill="#000000" d="M 3042.207031 606.007812 C 3036.699219 624.925781 3028.796875 634.503906 3018.980469 634.503906 C 3015.867188 634.503906 3014.1875 632.109375 3014.1875 627.558594 C 3014.1875 624.207031 3015.625 618.699219 3018.5 611.273438 C 3028.078125 585.171875 3032.867188 567.929688 3032.867188 559.070312 C 3032.867188 542.308594 3021.613281 532.96875 3004.851562 532.96875 C 2990.722656 532.96875 2978.507812 539.195312 2968.691406 551.886719 C 2966.773438 541.347656 2958.390625 532.96875 2946.179688 532.96875 C 2932.769531 532.96875 2927.5 545.421875 2924.148438 556.195312 C 2921.753906 563.859375 2920.554688 568.410156 2920.554688 570.085938 C 2920.554688 572.242188 2921.753906 573.4375 2924.386719 573.4375 C 2925.585938 573.4375 2926.304688 573.199219 2927.023438 572.71875 C 2928.21875 570.566406 2928.9375 568.886719 2929.175781 567.210938 C 2933.488281 549.011719 2938.996094 539.914062 2945.460938 539.914062 C 2949.769531 539.914062 2951.925781 543.265625 2951.925781 549.96875 C 2951.925781 553.082031 2950.730469 559.550781 2948.09375 569.367188 L 2934.445312 623.726562 C 2933.726562 626.839844 2932.289062 633.066406 2932.289062 634.265625 C 2932.289062 639.054688 2934.925781 641.449219 2940.191406 641.449219 C 2944.742188 641.449219 2948.09375 639.054688 2949.769531 634.265625 C 2950.25 633.066406 2951.6875 627.078125 2954.320312 616.78125 L 2959.351562 595.46875 L 2966.535156 568.171875 C 2969.167969 562.660156 2973.238281 557.152344 2978.269531 551.40625 C 2985.214844 543.742188 2993.835938 539.914062 3004.132812 539.914062 C 3012.035156 539.914062 3015.867188 545.179688 3015.867188 555.476562 C 3015.867188 564.578125 3010.835938 582.777344 3000.539062 610.078125 C 2998.863281 614.386719 2998.144531 617.980469 2998.144531 621.09375 C 2998.144531 632.828125 3007.003906 641.449219 3018.5 641.449219 C 3029.035156 641.449219 3037.417969 635.460938 3043.40625 623.488281 C 3047.953125 613.910156 3050.347656 607.441406 3050.347656 604.332031 C 3050.347656 602.175781 3049.152344 600.976562 3046.519531 600.976562 C 3045.800781 600.976562 3042.207031 603.132812 3042.207031 606.007812 Z M 3042.207031 606.007812 " fill-opacity="1" fill-rule="nonzero"/><path fill="#000000" d="M 3100.648438 670.992188 C 3120.972656 655.410156 3137.910156 632.378906 3151.796875 601.554688 C 3165.003906 572.085938 3171.78125 544.3125 3171.78125 517.554688 L 3171.78125 489.101562 C 3171.78125 462.34375 3165.003906 434.570312 3151.796875 405.101562 C 3137.910156 374.277344 3120.972656 351.246094 3100.648438 335.664062 C 3099.632812 334.988281 3098.617188 334.648438 3098.277344 334.648438 C 3095.230469 334.648438 3093.535156 336.34375 3093.535156 339.390625 C 3093.535156 340.746094 3094.214844 342.101562 3095.230469 343.117188 C 3112.84375 356.664062 3127.070312 379.019531 3137.570312 409.84375 C 3146.714844 436.601562 3151.457031 463.019531 3151.457031 489.101562 L 3151.457031 517.554688 C 3151.457031 543.636719 3146.714844 570.054688 3137.570312 596.8125 C 3127.070312 627.636719 3112.84375 649.992188 3095.230469 663.539062 C 3094.214844 664.894531 3093.535156 666.25 3093.535156 667.265625 C 3093.535156 670.3125 3095.230469 672.007812 3098.277344 672.007812 C 3098.617188 672.007812 3099.632812 671.667969 3100.648438 670.992188 Z M 3100.648438 670.992188 " fill-opacity="1" fill-rule="nonzero"/><path fill="#000000" d="M 403.328125 878.625 C 388.085938 878.625 376.234375 887.09375 367.765625 904.027344 C 361.328125 917.238281 357.941406 926.382812 357.941406 931.464844 C 357.941406 934.511719 359.636719 936.207031 363.363281 936.207031 C 368.101562 936.207031 368.441406 934.171875 369.796875 929.09375 C 377.585938 902.335938 388.425781 888.785156 402.3125 888.785156 C 406.71875 888.785156 409.089844 891.832031 409.089844 897.929688 C 409.089844 903.351562 407.394531 911.140625 403.667969 920.964844 C 390.796875 955.851562 384.363281 979.222656 384.363281 991.753906 C 384.363281 1017.496094 400.28125 1032.738281 426.363281 1032.738281 C 437.539062 1032.738281 448.039062 1028.675781 457.523438 1020.546875 C 445.667969 1065.253906 427.039062 1087.609375 401.636719 1087.609375 C 390.121094 1087.609375 382.328125 1083.886719 378.265625 1076.433594 C 391.8125 1075.757812 398.585938 1069.320312 398.585938 1057.125 C 398.585938 1048.660156 394.183594 1044.253906 385.039062 1044.253906 C 372.507812 1044.253906 365.054688 1054.753906 365.054688 1067.289062 C 365.054688 1085.917969 381.992188 1097.773438 401.636719 1097.773438 C 440.589844 1097.773438 472.425781 1061.867188 480.894531 1028.675781 L 512.734375 900.640625 C 513.75 896.914062 514.089844 894.203125 514.089844 892.511719 C 514.089844 885.738281 510.363281 882.351562 503.25 882.351562 C 497.832031 882.351562 493.429688 885.058594 490.378906 890.140625 C 488.347656 897.253906 486.652344 903.351562 485.636719 908.429688 L 463.960938 995.480469 C 460.574219 1007.675781 442.621094 1022.917969 427.378906 1022.917969 C 414.507812 1022.917969 408.070312 1014.449219 408.070312 997.175781 C 408.070312 982.949219 413.828125 961.269531 425.007812 932.140625 C 429.410156 920.285156 431.78125 912.15625 431.78125 907.414062 C 431.78125 890.816406 419.925781 878.625 403.328125 878.625 Z M 403.328125 878.625 " fill-opacity="1" fill-rule="nonzero"/><path fill="#000000" d="M 653.863281 1046.335938 C 648.355469 1065.253906 640.453125 1074.832031 630.632812 1074.832031 C 627.519531 1074.832031 625.84375 1072.4375 625.84375 1067.886719 C 625.84375 1064.535156 627.28125 1059.027344 630.15625 1051.605469 C 639.734375 1025.5 644.523438 1008.257812 644.523438 999.398438 C 644.523438 982.636719 633.269531 973.296875 616.503906 973.296875 C 602.375 973.296875 590.164062 979.523438 580.34375 992.214844 C 578.429688 981.679688 570.046875 973.296875 557.835938 973.296875 C 544.425781 973.296875 539.15625 985.75 535.804688 996.527344 C 533.410156 1004.1875 532.210938 1008.738281 532.210938 1010.414062 C 532.210938 1012.570312 533.410156 1013.765625 536.042969 1013.765625 C 537.242188 1013.765625 537.960938 1013.527344 538.675781 1013.050781 C 539.875 1010.894531 540.59375 1009.21875 540.832031 1007.542969 C 545.144531 989.339844 550.652344 980.242188 557.117188 980.242188 C 561.425781 980.242188 563.582031 983.59375 563.582031 990.300781 C 563.582031 993.414062 562.386719 999.878906 559.75 1009.695312 L 546.101562 1064.054688 C 545.382812 1067.167969 543.945312 1073.394531 543.945312 1074.59375 C 543.945312 1079.382812 546.578125 1081.777344 551.847656 1081.777344 C 556.398438 1081.777344 559.75 1079.382812 561.425781 1074.59375 C 561.90625 1073.394531 563.34375 1067.410156 565.976562 1057.113281 L 571.007812 1035.796875 L 578.191406 1008.5 C 580.824219 1002.992188 584.894531 997.484375 589.925781 991.734375 C 596.867188 984.074219 605.488281 980.242188 615.789062 980.242188 C 623.691406 980.242188 627.519531 985.511719 627.519531 995.808594 C 627.519531 1004.90625 622.492188 1023.105469 612.195312 1050.40625 C 610.519531 1054.71875 609.800781 1058.308594 609.800781 1061.421875 C 609.800781 1073.15625 618.660156 1081.777344 630.15625 1081.777344 C 640.691406 1081.777344 649.074219 1075.789062 655.058594 1063.816406 C 659.609375 1054.238281 662.003906 1047.773438 662.003906 1044.660156 C 662.003906 1042.503906 660.808594 1041.308594 658.171875 1041.308594 C 657.457031 1041.308594 653.863281 1043.460938 653.863281 1046.335938 Z M 653.863281 1046.335938 " fill-opacity="1" fill-rule="nonzero"/><path fill="#000000" d="M 836.101562 1013.527344 L 767.851562 1013.527344 L 767.851562 945.277344 C 767.851562 941.445312 765.9375 939.53125 762.105469 939.53125 C 758.273438 939.53125 756.355469 941.445312 756.355469 945.277344 L 756.355469 1013.527344 L 688.109375 1013.527344 C 684.277344 1013.527344 682.359375 1015.445312 682.359375 1019.273438 C 682.359375 1023.105469 684.277344 1025.023438 688.109375 1025.023438 L 756.355469 1025.023438 L 756.355469 1093.273438 C 756.355469 1097.101562 758.273438 1099.019531 762.105469 1099.019531 C 765.9375 1099.019531 767.851562 1097.101562 767.851562 1093.273438 L 767.851562 1025.023438 L 836.101562 1025.023438 C 839.933594 1025.023438 841.847656 1023.105469 841.847656 1019.273438 C 841.847656 1016.164062 839.214844 1013.527344 836.101562 1013.527344 Z M 836.101562 1013.527344 " fill-opacity="1" fill-rule="nonzero"/><path fill="#000000" d="M 919.675781 919.65625 C 909.859375 929.714844 895.488281 934.742188 876.570312 934.742188 L 876.570312 944.082031 C 889.023438 944.082031 899.320312 942.164062 907.222656 938.335938 L 907.222656 1059.507812 C 907.222656 1063.816406 906.265625 1066.691406 904.109375 1067.886719 C 901.957031 1069.085938 895.96875 1069.804688 886.390625 1069.804688 L 878.007812 1069.804688 L 878.007812 1079.144531 C 883.996094 1078.664062 896.925781 1078.425781 916.800781 1078.425781 C 936.679688 1078.425781 949.609375 1078.664062 955.597656 1079.144531 L 955.597656 1069.804688 L 947.214844 1069.804688 C 937.398438 1069.804688 931.410156 1069.085938 929.496094 1067.886719 C 927.578125 1066.691406 926.382812 1063.816406 926.382812 1059.507812 L 926.382812 926.839844 C 926.382812 921.09375 925.902344 919.65625 919.675781 919.65625 Z M 919.675781 919.65625 " fill-opacity="1" fill-rule="nonzero"/><path fill="#000000" d="M 1322.5 904.027344 L 1113.175781 904.027344 C 1107.753906 904.027344 1105.046875 906.738281 1105.046875 911.816406 C 1105.046875 916.898438 1107.753906 919.609375 1113.175781 919.609375 L 1322.5 919.609375 C 1327.917969 919.609375 1330.628906 916.898438 1330.628906 911.816406 C 1330.628906 907.753906 1326.902344 904.027344 1322.5 904.027344 M 1322.5 967.707031 L 1113.175781 967.707031 C 1107.753906 967.707031 1105.046875 970.414062 1105.046875 975.496094 C 1105.046875 980.578125 1107.753906 983.285156 1113.175781 983.285156 L 1322.5 983.285156 C 1327.917969 983.285156 1330.628906 980.578125 1330.628906 975.496094 C 1330.628906 971.09375 1326.902344 967.707031 1322.5 967.707031 Z M 1322.5 967.707031 " fill-opacity="1" fill-rule="nonzero"/><path fill="#000000" d="M 1630.664062 813.929688 C 1630.664062 799.027344 1616.097656 789.542969 1600.179688 789.542969 C 1579.175781 789.542969 1564.613281 803.089844 1556.824219 829.847656 C 1555.128906 835.945312 1551.402344 853.21875 1545.984375 881.671875 L 1523.96875 881.671875 C 1516.515625 881.671875 1512.789062 882.011719 1512.789062 889.125 C 1512.789062 892.851562 1516.175781 894.542969 1523.289062 894.542969 L 1543.613281 894.542969 L 1518.886719 1025.625 C 1515.160156 1044.933594 1511.773438 1059.160156 1508.726562 1068.644531 C 1504.660156 1081.175781 1498.902344 1087.609375 1491.449219 1087.609375 C 1486.371094 1087.609375 1482.304688 1086.257812 1478.578125 1083.886719 C 1489.417969 1082.191406 1494.835938 1075.757812 1494.835938 1064.917969 C 1494.835938 1056.109375 1490.433594 1051.707031 1481.289062 1051.707031 C 1469.773438 1051.707031 1461.644531 1061.867188 1461.644531 1073.386719 C 1461.644531 1088.289062 1475.53125 1097.773438 1491.449219 1097.773438 C 1499.917969 1097.773438 1507.707031 1094.386719 1514.144531 1087.273438 C 1524.984375 1076.09375 1533.449219 1060.175781 1539.546875 1038.835938 C 1543.273438 1025.625 1546.660156 1012.753906 1549.03125 999.882812 L 1568.675781 894.542969 L 1596.453125 894.542969 C 1604.242188 894.542969 1607.628906 894.203125 1607.628906 886.414062 C 1607.628906 883.367188 1604.242188 881.671875 1597.46875 881.671875 L 1571.386719 881.671875 C 1573.417969 867.785156 1582.902344 816.640625 1585.953125 810.203125 C 1589.339844 803.089844 1594.082031 799.703125 1600.179688 799.703125 C 1605.257812 799.703125 1609.660156 801.058594 1613.386719 803.429688 C 1602.886719 805.800781 1597.46875 811.898438 1597.46875 822.398438 C 1597.46875 831.203125 1601.871094 835.605469 1611.015625 835.605469 C 1622.53125 835.605469 1630.664062 825.445312 1630.664062 813.929688 Z M 1630.664062 813.929688 " fill-opacity="1" fill-rule="nonzero"/><path fill="#000000" d="M 1738.375 1112.335938 C 1741.421875 1112.335938 1743.117188 1110.644531 1743.117188 1107.59375 C 1743.117188 1106.578125 1742.4375 1105.222656 1741.421875 1103.871094 C 1723.808594 1090.320312 1709.582031 1067.964844 1699.082031 1037.140625 C 1689.9375 1010.382812 1685.195312 983.964844 1685.195312 957.882812 L 1685.195312 929.429688 C 1685.195312 903.351562 1689.9375 876.929688 1699.082031 850.171875 C 1709.582031 819.347656 1723.808594 796.992188 1741.421875 783.445312 C 1742.4375 782.429688 1743.117188 781.074219 1743.117188 779.71875 C 1743.117188 776.671875 1741.421875 774.976562 1738.375 774.976562 C 1738.035156 774.976562 1737.019531 775.316406 1736.003906 775.992188 C 1715.679688 791.574219 1698.742188 814.605469 1684.855469 845.429688 C 1671.648438 874.898438 1664.871094 902.671875 1664.871094 929.429688 L 1664.871094 957.882812 C 1664.871094 984.640625 1671.648438 1012.417969 1684.855469 1041.882812 C 1698.742188 1072.707031 1715.679688 1095.738281 1736.003906 1111.320312 C 1737.019531 1112 1738.035156 1112.335938 1738.375 1112.335938 Z M 1738.375 1112.335938 " fill-opacity="1" fill-rule="nonzero"/><path fill="#000000" d="M 1940.925781 901.996094 C 1940.925781 886.414062 1925.683594 878.625 1908.746094 878.625 C 1894.183594 878.625 1882.664062 886.414062 1873.859375 901.996094 C 1866.746094 886.414062 1854.890625 878.625 1837.617188 878.625 C 1821.019531 878.625 1807.472656 886.414062 1796.632812 901.65625 C 1787.488281 914.867188 1782.746094 924.6875 1782.746094 931.125 C 1782.746094 934.171875 1784.4375 935.867188 1787.824219 935.867188 C 1790.875 935.867188 1792.90625 934.171875 1793.582031 931.125 C 1800.019531 911.480469 1814.246094 888.445312 1836.9375 888.445312 C 1848.117188 888.445312 1853.535156 895.558594 1853.535156 909.445312 C 1853.535156 916.558594 1847.441406 942.980469 1835.585938 988.367188 C 1829.828125 1011.0625 1819.664062 1022.238281 1805.101562 1022.238281 C 1800.359375 1022.238281 1795.953125 1021.222656 1792.230469 1019.53125 C 1801.035156 1016.140625 1805.4375 1010.046875 1805.4375 1001.238281 C 1805.4375 992.433594 1801.035156 988.027344 1791.890625 988.027344 C 1780.710938 988.027344 1772.246094 997.511719 1772.246094 1008.691406 C 1772.246094 1024.269531 1788.164062 1032.0625 1804.761719 1032.0625 C 1818.988281 1032.0625 1830.503906 1024.269531 1839.648438 1008.691406 C 1846.085938 1024.269531 1858.277344 1032.0625 1875.890625 1032.0625 C 1892.148438 1032.0625 1905.699219 1024.269531 1916.539062 1009.027344 C 1925.683594 995.820312 1930.425781 985.996094 1930.425781 979.5625 C 1930.425781 976.511719 1928.730469 974.820312 1925.34375 974.820312 C 1922.296875 974.820312 1920.601562 976.511719 1919.585938 979.5625 C 1913.828125 998.867188 1898.585938 1022.238281 1876.570312 1022.238281 C 1865.390625 1022.238281 1859.632812 1015.464844 1859.632812 1001.578125 C 1859.632812 997.175781 1861.328125 987.691406 1865.054688 972.449219 L 1876.570312 926.722656 C 1883.003906 901.316406 1893.503906 888.445312 1908.410156 888.445312 C 1913.148438 888.445312 1917.554688 889.464844 1921.28125 891.15625 C 1912.132812 894.203125 1907.730469 900.300781 1907.730469 909.445312 C 1907.730469 918.253906 1912.472656 922.65625 1921.617188 922.65625 C 1932.457031 922.65625 1940.925781 912.835938 1940.925781 901.996094 Z M 1940.925781 901.996094 " fill-opacity="1" fill-rule="nonzero"/><path fill="#000000" d="M 2095.941406 1046.335938 C 2090.433594 1065.253906 2082.53125 1074.832031 2072.710938 1074.832031 C 2069.597656 1074.832031 2067.921875 1072.4375 2067.921875 1067.886719 C 2067.921875 1064.535156 2069.359375 1059.027344 2072.234375 1051.605469 C 2081.8125 1025.5 2086.601562 1008.257812 2086.601562 999.398438 C 2086.601562 982.636719 2075.347656 973.296875 2058.582031 973.296875 C 2044.453125 973.296875 2032.242188 979.523438 2022.421875 992.214844 C 2020.507812 981.679688 2012.125 973.296875 1999.914062 973.296875 C 1986.503906 973.296875 1981.234375 985.75 1977.882812 996.527344 C 1975.484375 1004.1875 1974.289062 1008.738281 1974.289062 1010.414062 C 1974.289062 1012.570312 1975.484375 1013.765625 1978.121094 1013.765625 C 1979.316406 1013.765625 1980.035156 1013.527344 1980.753906 1013.050781 C 1981.953125 1010.894531 1982.671875 1009.21875 1982.910156 1007.542969 C 1987.21875 989.339844 1992.726562 980.242188 1999.195312 980.242188 C 2003.503906 980.242188 2005.660156 983.59375 2005.660156 990.300781 C 2005.660156 993.414062 2004.460938 999.878906 2001.828125 1009.695312 L 1988.179688 1064.054688 C 1987.460938 1067.167969 1986.023438 1073.394531 1986.023438 1074.59375 C 1986.023438 1079.382812 1988.65625 1081.777344 1993.925781 1081.777344 C 1998.476562 1081.777344 2001.828125 1079.382812 2003.503906 1074.59375 C 2003.984375 1073.394531 2005.421875 1067.410156 2008.054688 1057.113281 L 2013.082031 1035.796875 L 2020.265625 1008.5 C 2022.902344 1002.992188 2026.972656 997.484375 2032 991.734375 C 2038.945312 984.074219 2047.566406 980.242188 2057.863281 980.242188 C 2065.765625 980.242188 2069.597656 985.511719 2069.597656 995.808594 C 2069.597656 1004.90625 2064.570312 1023.105469 2054.273438 1050.40625 C 2052.597656 1054.71875 2051.878906 1058.308594 2051.878906 1061.421875 C 2051.878906 1073.15625 2060.738281 1081.777344 2072.234375 1081.777344 C 2082.769531 1081.777344 2091.152344 1075.789062 2097.136719 1063.816406 C 2101.6875 1054.238281 2104.082031 1047.773438 2104.082031 1044.660156 C 2104.082031 1042.503906 2102.886719 1041.308594 2100.25 1041.308594 C 2099.53125 1041.308594 2095.941406 1043.460938 2095.941406 1046.335938 Z M 2095.941406 1046.335938 " fill-opacity="1" fill-rule="nonzero"/><path fill="#000000" d="M 2278.179688 1013.527344 L 2209.929688 1013.527344 L 2209.929688 945.277344 C 2209.929688 941.445312 2208.011719 939.53125 2204.179688 939.53125 C 2200.351562 939.53125 2198.433594 941.445312 2198.433594 945.277344 L 2198.433594 1013.527344 L 2130.183594 1013.527344 C 2126.351562 1013.527344 2124.4375 1015.445312 2124.4375 1019.273438 C 2124.4375 1023.105469 2126.351562 1025.023438 2130.183594 1025.023438 L 2198.433594 1025.023438 L 2198.433594 1093.273438 C 2198.433594 1097.101562 2200.351562 1099.019531 2204.179688 1099.019531 C 2208.011719 1099.019531 2209.929688 1097.101562 2209.929688 1093.273438 L 2209.929688 1025.023438 L 2278.179688 1025.023438 C 2282.011719 1025.023438 2283.925781 1023.105469 2283.925781 1019.273438 C 2283.925781 1016.164062 2281.292969 1013.527344 2278.179688 1013.527344 Z M 2278.179688 1013.527344 " fill-opacity="1" fill-rule="nonzero"/><path fill="#000000" d="M 2361.753906 919.65625 C 2351.933594 929.714844 2337.566406 934.742188 2318.648438 934.742188 L 2318.648438 944.082031 C 2331.101562 944.082031 2341.398438 942.164062 2349.300781 938.335938 L 2349.300781 1059.507812 C 2349.300781 1063.816406 2348.34375 1066.691406 2346.1875 1067.886719 C 2344.03125 1069.085938 2338.046875 1069.804688 2328.46875 1069.804688 L 2320.085938 1069.804688 L 2320.085938 1079.144531 C 2326.074219 1078.664062 2339.003906 1078.425781 2358.878906 1078.425781 C 2378.757812 1078.425781 2391.6875 1078.664062 2397.675781 1079.144531 L 2397.675781 1069.804688 L 2389.292969 1069.804688 C 2379.472656 1069.804688 2373.488281 1069.085938 2371.570312 1067.886719 C 2369.65625 1066.691406 2368.457031 1063.816406 2368.457031 1059.507812 L 2368.457031 926.839844 C 2368.457031 921.09375 2367.980469 919.65625 2361.753906 919.65625 Z M 2361.753906 919.65625 " fill-opacity="1" fill-rule="nonzero"/><path fill="#000000" d="M 2460.480469 1111.320312 C 2480.800781 1095.738281 2497.738281 1072.707031 2511.625 1041.882812 C 2524.835938 1012.417969 2531.609375 984.640625 2531.609375 957.882812 L 2531.609375 929.429688 C 2531.609375 902.671875 2524.835938 874.898438 2511.625 845.429688 C 2497.738281 814.605469 2480.800781 791.574219 2460.480469 775.992188 C 2459.464844 775.316406 2458.445312 774.976562 2458.109375 774.976562 C 2455.058594 774.976562 2453.367188 776.671875 2453.367188 779.71875 C 2453.367188 781.074219 2454.042969 782.429688 2455.058594 783.445312 C 2472.671875 796.992188 2486.898438 819.347656 2497.398438 850.171875 C 2506.542969 876.929688 2511.285156 903.351562 2511.285156 929.429688 L 2511.285156 957.882812 C 2511.285156 983.964844 2506.542969 1010.382812 2497.398438 1037.140625 C 2486.898438 1067.964844 2472.671875 1090.320312 2455.058594 1103.871094 C 2454.042969 1105.222656 2453.367188 1106.578125 2453.367188 1107.59375 C 2453.367188 1110.644531 2455.058594 1112.335938 2458.109375 1112.335938 C 2458.445312 1112.335938 2459.464844 1112 2460.480469 1111.320312 Z M 2460.480469 1111.320312 " fill-opacity="1" fill-rule="nonzero"/><path fill="#000000" d="M 2877.503906 936.882812 L 2668.179688 936.882812 C 2662.757812 936.882812 2660.050781 939.253906 2660.050781 943.65625 C 2660.050781 948.0625 2662.757812 950.429688 2668.179688 950.429688 L 2877.503906 950.429688 C 2882.925781 950.429688 2885.632812 948.0625 2885.632812 943.65625 C 2885.632812 939.59375 2881.570312 936.882812 2877.503906 936.882812 Z M 2877.503906 936.882812 " fill-opacity="1" fill-rule="nonzero"/><path fill="#000000" d="M 3158.367188 901.996094 C 3158.367188 886.414062 3143.125 878.625 3126.1875 878.625 C 3111.625 878.625 3100.109375 886.414062 3091.300781 901.996094 C 3084.1875 886.414062 3072.332031 878.625 3055.058594 878.625 C 3038.460938 878.625 3024.914062 886.414062 3014.074219 901.65625 C 3004.929688 914.867188 3000.1875 924.6875 3000.1875 931.125 C 3000.1875 934.171875 3001.878906 935.867188 3005.269531 935.867188 C 3008.316406 935.867188 3010.347656 934.171875 3011.027344 931.125 C 3017.460938 911.480469 3031.6875 888.445312 3054.382812 888.445312 C 3065.558594 888.445312 3070.976562 895.558594 3070.976562 909.445312 C 3070.976562 916.558594 3064.882812 942.980469 3053.027344 988.367188 C 3047.269531 1011.0625 3037.105469 1022.238281 3022.542969 1022.238281 C 3017.800781 1022.238281 3013.398438 1021.222656 3009.671875 1019.53125 C 3018.476562 1016.140625 3022.882812 1010.046875 3022.882812 1001.238281 C 3022.882812 992.433594 3018.476562 988.027344 3009.332031 988.027344 C 2998.15625 988.027344 2989.6875 997.511719 2989.6875 1008.691406 C 2989.6875 1024.269531 3005.605469 1032.0625 3022.203125 1032.0625 C 3036.429688 1032.0625 3047.945312 1024.269531 3057.089844 1008.691406 C 3063.527344 1024.269531 3075.71875 1032.0625 3093.332031 1032.0625 C 3109.59375 1032.0625 3123.140625 1024.269531 3133.980469 1009.027344 C 3143.125 995.820312 3147.867188 985.996094 3147.867188 979.5625 C 3147.867188 976.511719 3146.171875 974.820312 3142.785156 974.820312 C 3139.738281 974.820312 3138.042969 976.511719 3137.027344 979.5625 C 3131.269531 998.867188 3116.027344 1022.238281 3094.011719 1022.238281 C 3082.832031 1022.238281 3077.074219 1015.464844 3077.074219 1001.578125 C 3077.074219 997.175781 3078.769531 987.691406 3082.496094 972.449219 L 3094.011719 926.722656 C 3100.445312 901.316406 3110.945312 888.445312 3125.851562 888.445312 C 3130.59375 888.445312 3134.996094 889.464844 3138.722656 891.15625 C 3129.574219 894.203125 3125.171875 900.300781 3125.171875 909.445312 C 3125.171875 918.253906 3129.914062 922.65625 3139.058594 922.65625 C 3149.898438 922.65625 3158.367188 912.835938 3158.367188 901.996094 Z M 3158.367188 901.996094 " fill-opacity="1" fill-rule="nonzero"/><path fill="#000000" d="M 3313.382812 1046.335938 C 3307.875 1065.253906 3299.972656 1074.832031 3290.152344 1074.832031 C 3287.039062 1074.832031 3285.363281 1072.4375 3285.363281 1067.886719 C 3285.363281 1064.535156 3286.800781 1059.027344 3289.675781 1051.605469 C 3299.253906 1025.5 3304.042969 1008.257812 3304.042969 999.398438 C 3304.042969 982.636719 3292.789062 973.296875 3276.023438 973.296875 C 3261.894531 973.296875 3249.683594 979.523438 3239.863281 992.214844 C 3237.949219 981.679688 3229.566406 973.296875 3217.355469 973.296875 C 3203.945312 973.296875 3198.675781 985.75 3195.324219 996.527344 C 3192.929688 1004.1875 3191.730469 1008.738281 3191.730469 1010.414062 C 3191.730469 1012.570312 3192.929688 1013.765625 3195.5625 1013.765625 C 3196.761719 1013.765625 3197.476562 1013.527344 3198.195312 1013.050781 C 3199.394531 1010.894531 3200.113281 1009.21875 3200.351562 1007.542969 C 3204.664062 989.339844 3210.171875 980.242188 3216.636719 980.242188 C 3220.945312 980.242188 3223.101562 983.59375 3223.101562 990.300781 C 3223.101562 993.414062 3221.90625 999.878906 3219.269531 1009.695312 L 3205.621094 1064.054688 C 3204.902344 1067.167969 3203.464844 1073.394531 3203.464844 1074.59375 C 3203.464844 1079.382812 3206.097656 1081.777344 3211.367188 1081.777344 C 3215.917969 1081.777344 3219.269531 1079.382812 3220.945312 1074.59375 C 3221.425781 1073.394531 3222.863281 1067.410156 3225.496094 1057.113281 L 3230.523438 1035.796875 L 3237.710938 1008.5 C 3240.34375 1002.992188 3244.414062 997.484375 3249.445312 991.734375 C 3256.386719 984.074219 3265.007812 980.242188 3275.304688 980.242188 C 3283.210938 980.242188 3287.039062 985.511719 3287.039062 995.808594 C 3287.039062 1004.90625 3282.011719 1023.105469 3271.714844 1050.40625 C 3270.039062 1054.71875 3269.320312 1058.308594 3269.320312 1061.421875 C 3269.320312 1073.15625 3278.179688 1081.777344 3289.675781 1081.777344 C 3300.210938 1081.777344 3308.59375 1075.789062 3314.578125 1063.816406 C 3319.128906 1054.238281 3321.523438 1047.773438 3321.523438 1044.660156 C 3321.523438 1042.503906 3320.328125 1041.308594 3317.691406 1041.308594 C 3316.972656 1041.308594 3313.382812 1043.460938 3313.382812 1046.335938 Z M 3313.382812 1046.335938 " fill-opacity="1" fill-rule="nonzero"/><path fill="#000000" d="M 534.71875 1522.488281 C 534.71875 1507.582031 520.152344 1498.097656 504.234375 1498.097656 C 483.234375 1498.097656 468.667969 1511.648438 460.878906 1538.40625 C 459.183594 1544.503906 455.457031 1561.777344 450.039062 1590.230469 L 428.023438 1590.230469 C 420.570312 1590.230469 416.84375 1590.566406 416.84375 1597.679688 C 416.84375 1601.40625 420.230469 1603.101562 427.34375 1603.101562 L 447.667969 1603.101562 L 422.941406 1734.183594 C 419.214844 1753.488281 415.828125 1767.714844 412.78125 1777.199219 C 408.714844 1789.734375 402.957031 1796.167969 395.503906 1796.167969 C 390.425781 1796.167969 386.359375 1794.8125 382.632812 1792.441406 C 393.472656 1790.75 398.894531 1784.3125 398.894531 1773.472656 C 398.894531 1764.667969 394.488281 1760.265625 385.34375 1760.265625 C 373.828125 1760.265625 365.699219 1770.425781 365.699219 1781.941406 C 365.699219 1796.84375 379.585938 1806.328125 395.503906 1806.328125 C 403.972656 1806.328125 411.765625 1802.941406 418.199219 1795.828125 C 429.039062 1784.652344 437.507812 1768.730469 443.601562 1747.394531 C 447.328125 1734.183594 450.714844 1721.3125 453.085938 1708.441406 L 472.730469 1603.101562 L 500.507812 1603.101562 C 508.296875 1603.101562 511.683594 1602.761719 511.683594 1594.972656 C 511.683594 1591.921875 508.296875 1590.230469 501.523438 1590.230469 L 475.441406 1590.230469 C 477.472656 1576.34375 486.957031 1525.195312 490.007812 1518.761719 C 493.394531 1511.648438 498.136719 1508.261719 504.234375 1508.261719 C 509.3125 1508.261719 513.71875 1509.617188 517.441406 1511.988281 C 506.941406 1514.359375 501.523438 1520.453125 501.523438 1530.953125 C 501.523438 1539.761719 505.925781 1544.164062 515.070312 1544.164062 C 526.589844 1544.164062 534.71875 1534.003906 534.71875 1522.488281 Z M 534.71875 1522.488281 " fill-opacity="1" fill-rule="nonzero"/><path fill="#000000" d="M 642.429688 1820.894531 C 645.476562 1820.894531 647.171875 1819.199219 647.171875 1816.152344 C 647.171875 1815.136719 646.492188 1813.78125 645.476562 1812.425781 C 627.863281 1798.878906 613.636719 1776.523438 603.136719 1745.699219 C 593.992188 1718.941406 589.25 1692.519531 589.25 1666.441406 L 589.25 1637.988281 C 589.25 1611.90625 593.992188 1585.488281 603.136719 1558.730469 C 613.636719 1527.90625 627.863281 1505.550781 645.476562 1492.003906 C 646.492188 1490.984375 647.171875 1489.632812 647.171875 1488.277344 C 647.171875 1485.226562 645.476562 1483.535156 642.429688 1483.535156 C 642.089844 1483.535156 641.074219 1483.875 640.058594 1484.550781 C 619.734375 1500.132812 602.800781 1523.164062 588.910156 1553.988281 C 575.703125 1583.457031 568.925781 1611.230469 568.925781 1637.988281 L 568.925781 1666.441406 C 568.925781 1693.199219 575.703125 1720.972656 588.910156 1750.441406 C 602.800781 1781.265625 619.734375 1804.296875 640.058594 1819.878906 C 641.074219 1820.554688 642.089844 1820.894531 642.429688 1820.894531 Z M 642.429688 1820.894531 " fill-opacity="1" fill-rule="nonzero"/><path fill="#000000" d="M 844.980469 1610.550781 C 844.980469 1594.972656 829.738281 1587.179688 812.800781 1587.179688 C 798.238281 1587.179688 786.722656 1594.972656 777.914062 1610.550781 C 770.800781 1594.972656 758.945312 1587.179688 741.671875 1587.179688 C 725.074219 1587.179688 711.527344 1594.972656 700.6875 1610.214844 C 691.542969 1623.421875 686.800781 1633.246094 686.800781 1639.683594 C 686.800781 1642.730469 688.492188 1644.425781 691.878906 1644.425781 C 694.929688 1644.425781 696.960938 1642.730469 697.640625 1639.683594 C 704.074219 1620.035156 718.300781 1597.003906 740.996094 1597.003906 C 752.171875 1597.003906 757.589844 1604.117188 757.589844 1618.003906 C 757.589844 1625.117188 751.496094 1651.535156 739.640625 1696.925781 C 733.882812 1719.617188 723.71875 1730.796875 709.15625 1730.796875 C 704.414062 1730.796875 700.011719 1729.78125 696.285156 1728.085938 C 705.089844 1724.699219 709.492188 1718.601562 709.492188 1709.796875 C 709.492188 1700.988281 705.089844 1696.585938 695.945312 1696.585938 C 684.769531 1696.585938 676.300781 1706.070312 676.300781 1717.246094 C 676.300781 1732.828125 692.21875 1740.617188 708.816406 1740.617188 C 723.042969 1740.617188 734.558594 1732.828125 743.703125 1717.246094 C 750.140625 1732.828125 762.332031 1740.617188 779.945312 1740.617188 C 796.203125 1740.617188 809.753906 1732.828125 820.59375 1717.585938 C 829.738281 1704.375 834.480469 1694.554688 834.480469 1688.117188 C 834.480469 1685.070312 832.785156 1683.375 829.398438 1683.375 C 826.351562 1683.375 824.65625 1685.070312 823.640625 1688.117188 C 817.882812 1707.425781 802.640625 1730.796875 780.625 1730.796875 C 769.445312 1730.796875 763.6875 1724.023438 763.6875 1710.132812 C 763.6875 1705.730469 765.382812 1696.246094 769.109375 1681.003906 L 780.625 1635.277344 C 787.058594 1609.875 797.558594 1597.003906 812.464844 1597.003906 C 817.207031 1597.003906 821.609375 1598.019531 825.335938 1599.714844 C 816.1875 1602.761719 811.785156 1608.859375 811.785156 1618.003906 C 811.785156 1626.8125 816.527344 1631.214844 825.671875 1631.214844 C 836.511719 1631.214844 844.980469 1621.390625 844.980469 1610.550781 Z M 844.980469 1610.550781 " fill-opacity="1" fill-rule="nonzero"/><path fill="#000000" d="M 886.640625 1819.878906 C 906.964844 1804.296875 923.898438 1781.265625 937.789062 1750.441406 C 950.996094 1720.972656 957.773438 1693.199219 957.773438 1666.441406 L 957.773438 1637.988281 C 957.773438 1611.230469 950.996094 1583.457031 937.789062 1553.988281 C 923.898438 1523.164062 906.964844 1500.132812 886.640625 1484.550781 C 885.625 1483.875 884.609375 1483.535156 884.269531 1483.535156 C 881.222656 1483.535156 879.527344 1485.226562 879.527344 1488.277344 C 879.527344 1489.632812 880.207031 1490.984375 881.222656 1492.003906 C 898.835938 1505.550781 913.0625 1527.90625 923.5625 1558.730469 C 932.707031 1585.488281 937.449219 1611.90625 937.449219 1637.988281 L 937.449219 1666.441406 C 937.449219 1692.519531 932.707031 1718.941406 923.5625 1745.699219 C 913.0625 1776.523438 898.835938 1798.878906 881.222656 1812.425781 C 880.207031 1813.78125 879.527344 1815.136719 879.527344 1816.152344 C 879.527344 1819.199219 881.222656 1820.894531 884.269531 1820.894531 C 884.609375 1820.894531 885.625 1820.554688 886.640625 1819.878906 Z M 886.640625 1819.878906 " fill-opacity="1" fill-rule="nonzero"/><path fill="#000000" d="M 1322.5 1612.585938 L 1113.175781 1612.585938 C 1107.753906 1612.585938 1105.046875 1615.292969 1105.046875 1620.375 C 1105.046875 1625.457031 1107.753906 1628.164062 1113.175781 1628.164062 L 1322.5 1628.164062 C 1327.917969 1628.164062 1330.628906 1625.457031 1330.628906 1620.375 C 1330.628906 1616.3125 1326.902344 1612.585938 1322.5 1612.585938 M 1322.5 1676.261719 L 1113.175781 1676.261719 C 1107.753906 1676.261719 1105.046875 1678.972656 1105.046875 1684.054688 C 1105.046875 1689.132812 1107.753906 1691.84375 1113.175781 1691.84375 L 1322.5 1691.84375 C 1327.917969 1691.84375 1330.628906 1689.132812 1330.628906 1684.054688 C 1330.628906 1679.648438 1326.902344 1676.261719 1322.5 1676.261719 Z M 1322.5 1676.261719 " fill-opacity="1" fill-rule="nonzero"/><path fill="#000000" d="M 1548.691406 1587.179688 C 1525.320312 1587.179688 1504.320312 1597.34375 1485.691406 1617.328125 C 1467.0625 1637.3125 1457.578125 1659.328125 1457.578125 1683.039062 C 1457.578125 1716.230469 1479.933594 1740.617188 1513.128906 1740.617188 C 1536.5 1740.617188 1559.53125 1731.472656 1582.566406 1713.523438 C 1587.644531 1731.472656 1598.144531 1740.617188 1613.726562 1740.617188 C 1625.921875 1740.617188 1643.195312 1727.746094 1643.195312 1715.554688 C 1643.195312 1712.503906 1641.5 1711.152344 1637.773438 1711.152344 C 1635.402344 1711.152344 1633.371094 1712.503906 1632.355469 1715.214844 C 1629.644531 1722.328125 1622.53125 1730.796875 1614.742188 1730.796875 C 1608.984375 1730.796875 1605.9375 1719.957031 1605.9375 1697.941406 C 1605.9375 1693.199219 1606.953125 1689.472656 1608.984375 1687.101562 C 1618.128906 1675.925781 1626.257812 1663.054688 1632.695312 1648.828125 C 1641.164062 1630.535156 1646.242188 1616.988281 1647.597656 1608.179688 L 1647.597656 1606.828125 C 1646.582031 1604.457031 1644.550781 1603.4375 1642.179688 1603.4375 C 1640.484375 1603.777344 1638.453125 1606.488281 1636.082031 1611.230469 C 1628.96875 1635.617188 1619.144531 1656.617188 1605.9375 1673.890625 L 1605.9375 1656.957031 C 1605.9375 1617.664062 1586.289062 1587.179688 1548.691406 1587.179688 M 1580.195312 1665.425781 C 1580.195312 1685.410156 1580.53125 1697.601562 1580.871094 1702.003906 C 1558.855469 1721.3125 1536.5 1730.796875 1513.804688 1730.796875 C 1494.5 1730.796875 1485.015625 1718.941406 1485.015625 1695.570312 C 1485.015625 1675.925781 1496.191406 1639.34375 1503.984375 1627.148438 C 1516.855469 1607.164062 1531.757812 1597.003906 1548.355469 1597.003906 C 1558.855469 1597.003906 1565.96875 1601.070312 1570.371094 1609.199219 C 1572.742188 1613.261719 1574.4375 1617.328125 1576.128906 1621.050781 C 1578.839844 1628.84375 1580.195312 1649.503906 1580.195312 1665.425781 Z M 1580.195312 1665.425781 " fill-opacity="1" fill-rule="nonzero"/><path fill="#000000" d="M 1838.972656 1610.550781 C 1838.972656 1594.972656 1823.730469 1587.179688 1806.792969 1587.179688 C 1792.230469 1587.179688 1780.710938 1594.972656 1771.90625 1610.550781 C 1764.792969 1594.972656 1752.9375 1587.179688 1735.664062 1587.179688 C 1719.066406 1587.179688 1705.519531 1594.972656 1694.679688 1610.214844 C 1685.535156 1623.421875 1680.792969 1633.246094 1680.792969 1639.683594 C 1680.792969 1642.730469 1682.484375 1644.425781 1685.871094 1644.425781 C 1688.921875 1644.425781 1690.953125 1642.730469 1691.628906 1639.683594 C 1698.066406 1620.035156 1712.292969 1597.003906 1734.984375 1597.003906 C 1746.164062 1597.003906 1751.582031 1604.117188 1751.582031 1618.003906 C 1751.582031 1625.117188 1745.488281 1651.535156 1733.632812 1696.925781 C 1727.875 1719.617188 1717.710938 1730.796875 1703.148438 1730.796875 C 1698.40625 1730.796875 1694 1729.78125 1690.277344 1728.085938 C 1699.082031 1724.699219 1703.484375 1718.601562 1703.484375 1709.796875 C 1703.484375 1700.988281 1699.082031 1696.585938 1689.9375 1696.585938 C 1678.757812 1696.585938 1670.292969 1706.070312 1670.292969 1717.246094 C 1670.292969 1732.828125 1686.210938 1740.617188 1702.808594 1740.617188 C 1717.035156 1740.617188 1728.550781 1732.828125 1737.695312 1717.246094 C 1744.132812 1732.828125 1756.324219 1740.617188 1773.9375 1740.617188 C 1790.195312 1740.617188 1803.746094 1732.828125 1814.585938 1717.585938 C 1823.730469 1704.375 1828.472656 1694.554688 1828.472656 1688.117188 C 1828.472656 1685.070312 1826.777344 1683.375 1823.390625 1683.375 C 1820.34375 1683.375 1818.648438 1685.070312 1817.632812 1688.117188 C 1811.875 1707.425781 1796.632812 1730.796875 1774.617188 1730.796875 C 1763.4375 1730.796875 1757.679688 1724.023438 1757.679688 1710.132812 C 1757.679688 1705.730469 1759.375 1696.246094 1763.101562 1681.003906 L 1774.617188 1635.277344 C 1781.050781 1609.875 1791.550781 1597.003906 1806.457031 1597.003906 C 1811.195312 1597.003906 1815.601562 1598.019531 1819.328125 1599.714844 C 1810.179688 1602.761719 1805.777344 1608.859375 1805.777344 1618.003906 C 1805.777344 1626.8125 1810.519531 1631.214844 1819.664062 1631.214844 C 1830.503906 1631.214844 1838.972656 1621.390625 1838.972656 1610.550781 Z M 1838.972656 1610.550781 " fill-opacity="1" fill-rule="nonzero"/><path fill="#000000" d="M 2165.898438 1644.085938 L 2069.367188 1644.085938 L 2069.367188 1547.550781 C 2069.367188 1542.132812 2066.65625 1539.421875 2061.234375 1539.421875 C 2055.816406 1539.421875 2053.105469 1542.132812 2053.105469 1547.550781 L 2053.105469 1644.085938 L 1956.574219 1644.085938 C 1951.152344 1644.085938 1948.445312 1646.792969 1948.445312 1652.214844 C 1948.445312 1657.632812 1951.152344 1660.34375 1956.574219 1660.34375 L 2053.105469 1660.34375 L 2053.105469 1756.878906 C 2053.105469 1762.296875 2055.816406 1765.007812 2061.234375 1765.007812 C 2066.65625 1765.007812 2069.367188 1762.296875 2069.367188 1756.878906 L 2069.367188 1660.34375 L 2165.898438 1660.34375 C 2171.320312 1660.34375 2174.027344 1657.632812 2174.027344 1652.214844 C 2174.027344 1647.8125 2170.300781 1644.085938 2165.898438 1644.085938 Z M 2165.898438 1644.085938 " fill-opacity="1" fill-rule="nonzero"/><path fill="#000000" d="M 2423.050781 1271.5 C 2405.777344 1271.5 2391.210938 1277.597656 2378.679688 1289.789062 C 2366.148438 1301.984375 2359.710938 1316.210938 2359.710938 1333.484375 C 2359.710938 1345 2368.179688 1353.46875 2378.679688 1353.46875 C 2388.839844 1353.46875 2397.308594 1344.660156 2397.308594 1334.5 C 2397.308594 1323.324219 2389.179688 1315.53125 2378.339844 1315.53125 C 2377.324219 1315.53125 2376.648438 1315.53125 2375.96875 1315.871094 C 2382.40625 1299.273438 2397.308594 1284.707031 2418.648438 1284.707031 C 2446.421875 1284.707031 2462.003906 1308.757812 2462.003906 1337.886719 C 2462.003906 1360.582031 2450.488281 1384.96875 2427.453125 1410.710938 L 2363.777344 1482.519531 C 2359.371094 1487.597656 2359.710938 1487.261719 2359.710938 1497.082031 L 2485.375 1497.082031 L 2495.199219 1436.113281 L 2484.019531 1436.113281 C 2481.308594 1453.390625 2478.9375 1463.210938 2476.90625 1466.261719 C 2475.214844 1467.953125 2465.050781 1468.632812 2446.421875 1468.632812 L 2389.855469 1468.632812 L 2422.710938 1436.453125 C 2445.746094 1414.773438 2474.875 1391.402344 2484.695312 1373.453125 C 2491.472656 1361.597656 2494.859375 1349.742188 2494.859375 1337.886719 C 2494.859375 1297.917969 2463.695312 1271.5 2423.050781 1271.5 Z M 2423.050781 1271.5 " fill-opacity="1" fill-rule="nonzero"/><path fill="#000000" d="M 2619.84375 1581.085938 C 2622.894531 1581.085938 2624.585938 1579.390625 2624.585938 1576.34375 C 2624.585938 1575.324219 2623.910156 1573.972656 2622.894531 1572.617188 C 2605.28125 1559.066406 2591.054688 1536.710938 2580.554688 1505.890625 C 2571.40625 1479.132812 2566.667969 1452.710938 2566.667969 1426.628906 L 2566.667969 1398.179688 C 2566.667969 1372.097656 2571.40625 1345.675781 2580.554688 1318.917969 C 2591.054688 1288.097656 2605.28125 1265.742188 2622.894531 1252.191406 C 2623.910156 1251.175781 2624.585938 1249.820312 2624.585938 1248.464844 C 2624.585938 1245.417969 2622.894531 1243.722656 2619.84375 1243.722656 C 2619.503906 1243.722656 2618.488281 1244.0625 2617.472656 1244.742188 C 2597.148438 1260.320312 2580.214844 1283.355469 2566.328125 1314.175781 C 2553.117188 1343.644531 2546.34375 1371.417969 2546.34375 1398.179688 L 2546.34375 1426.628906 C 2546.34375 1453.390625 2553.117188 1481.164062 2566.328125 1510.632812 C 2580.214844 1541.453125 2597.148438 1564.488281 2617.472656 1580.066406 C 2618.488281 1580.746094 2619.503906 1581.085938 2619.84375 1581.085938 Z M 2619.84375 1581.085938 " fill-opacity="1" fill-rule="nonzero"/><path fill="#000000" d="M 2735.007812 1271.5 C 2721.121094 1285.726562 2700.796875 1292.839844 2674.039062 1292.839844 L 2674.039062 1306.046875 C 2691.652344 1306.046875 2706.214844 1303.339844 2717.394531 1297.917969 L 2717.394531 1469.308594 C 2717.394531 1475.40625 2716.039062 1479.46875 2712.992188 1481.164062 C 2709.941406 1482.855469 2701.472656 1483.875 2687.925781 1483.875 L 2676.070312 1483.875 L 2676.070312 1497.082031 C 2684.539062 1496.40625 2702.828125 1496.066406 2730.941406 1496.066406 C 2759.054688 1496.066406 2777.347656 1496.40625 2785.8125 1497.082031 L 2785.8125 1483.875 L 2773.960938 1483.875 C 2760.070312 1483.875 2751.605469 1482.855469 2748.894531 1481.164062 C 2746.183594 1479.46875 2744.492188 1475.40625 2744.492188 1469.308594 L 2744.492188 1281.660156 C 2744.492188 1273.53125 2743.8125 1271.5 2735.007812 1271.5 Z M 2735.007812 1271.5 " fill-opacity="1" fill-rule="nonzero"/><path fill="#000000" d="M 3124.933594 1405.628906 L 2915.609375 1405.628906 C 2910.191406 1405.628906 2907.480469 1408 2907.480469 1412.40625 C 2907.480469 1416.808594 2910.191406 1419.179688 2915.609375 1419.179688 L 3124.933594 1419.179688 C 3130.355469 1419.179688 3133.066406 1416.808594 3133.066406 1412.40625 C 3133.066406 1408.339844 3129 1405.628906 3124.933594 1405.628906 Z M 3124.933594 1405.628906 " fill-opacity="1" fill-rule="nonzero"/><path fill="#000000" d="M 3332.296875 1347.371094 C 3308.925781 1347.371094 3287.925781 1357.53125 3269.296875 1377.515625 C 3250.667969 1397.5 3241.183594 1419.515625 3241.183594 1443.226562 C 3241.183594 1476.421875 3263.539062 1500.808594 3296.730469 1500.808594 C 3320.101562 1500.808594 3343.136719 1491.664062 3366.167969 1473.710938 C 3371.25 1491.664062 3381.75 1500.808594 3397.328125 1500.808594 C 3409.523438 1500.808594 3426.796875 1487.9375 3426.796875 1475.742188 C 3426.796875 1472.695312 3425.105469 1471.339844 3421.378906 1471.339844 C 3419.007812 1471.339844 3416.976562 1472.695312 3415.960938 1475.40625 C 3413.25 1482.519531 3406.136719 1490.984375 3398.347656 1490.984375 C 3392.585938 1490.984375 3389.539062 1480.148438 3389.539062 1458.128906 C 3389.539062 1453.390625 3390.554688 1449.664062 3392.585938 1447.292969 C 3401.734375 1436.113281 3409.863281 1423.242188 3416.296875 1409.015625 C 3424.765625 1390.726562 3429.847656 1377.179688 3431.203125 1368.371094 L 3431.203125 1367.015625 C 3430.183594 1364.644531 3428.152344 1363.628906 3425.78125 1363.628906 C 3424.089844 1363.96875 3422.054688 1366.679688 3419.683594 1371.417969 C 3412.570312 1395.808594 3402.75 1416.808594 3389.539062 1434.082031 L 3389.539062 1417.144531 C 3389.539062 1377.855469 3369.894531 1347.371094 3332.296875 1347.371094 M 3363.796875 1425.613281 C 3363.796875 1445.597656 3364.136719 1457.792969 3364.472656 1462.195312 C 3342.457031 1481.503906 3320.101562 1490.984375 3297.410156 1490.984375 C 3278.101562 1490.984375 3268.617188 1479.132812 3268.617188 1455.761719 C 3268.617188 1436.113281 3279.796875 1399.53125 3287.585938 1387.339844 C 3300.457031 1367.355469 3315.359375 1357.195312 3331.957031 1357.195312 C 3342.457031 1357.195312 3349.570312 1361.257812 3353.972656 1369.386719 C 3356.34375 1373.453125 3358.039062 1377.515625 3359.734375 1381.242188 C 3362.441406 1389.03125 3363.796875 1409.695312 3363.796875 1425.613281 Z M 3363.796875 1425.613281 " fill-opacity="1" fill-rule="nonzero"/><path fill="#000000" d="M 3470.492188 1580.066406 C 3490.816406 1564.488281 3507.75 1541.453125 3521.636719 1510.632812 C 3534.847656 1481.164062 3541.621094 1453.390625 3541.621094 1426.628906 L 3541.621094 1398.179688 C 3541.621094 1371.417969 3534.847656 1343.644531 3521.636719 1314.175781 C 3507.75 1283.355469 3490.816406 1260.320312 3470.492188 1244.742188 C 3469.476562 1244.0625 3468.460938 1243.722656 3468.121094 1243.722656 C 3465.074219 1243.722656 3463.378906 1245.417969 3463.378906 1248.464844 C 3463.378906 1249.820312 3464.054688 1251.175781 3465.074219 1252.191406 C 3482.6875 1265.742188 3496.910156 1288.097656 3507.410156 1318.917969 C 3516.558594 1345.675781 3521.300781 1372.097656 3521.300781 1398.179688 L 3521.300781 1426.628906 C 3521.300781 1452.710938 3516.558594 1479.132812 3507.410156 1505.890625 C 3496.910156 1536.710938 3482.6875 1559.066406 3465.074219 1572.617188 C 3464.054688 1573.972656 3463.378906 1575.324219 3463.378906 1576.34375 C 3463.378906 1579.390625 3465.074219 1581.085938 3468.121094 1581.085938 C 3468.460938 1581.085938 3469.476562 1580.746094 3470.492188 1580.066406 Z M 3470.492188 1580.066406 " fill-opacity="1" fill-rule="nonzero"/><path fill="#000000" d="M 3754.335938 1370.742188 C 3754.335938 1355.160156 3739.09375 1347.371094 3722.15625 1347.371094 C 3707.59375 1347.371094 3696.074219 1355.160156 3687.269531 1370.742188 C 3680.15625 1355.160156 3668.300781 1347.371094 3651.027344 1347.371094 C 3634.429688 1347.371094 3620.882812 1355.160156 3610.042969 1370.402344 C 3600.898438 1383.613281 3596.15625 1393.4375 3596.15625 1399.871094 C 3596.15625 1402.921875 3597.847656 1404.613281 3601.234375 1404.613281 C 3604.285156 1404.613281 3606.316406 1402.921875 3606.992188 1399.871094 C 3613.429688 1380.226562 3627.65625 1357.195312 3650.347656 1357.195312 C 3661.527344 1357.195312 3666.945312 1364.308594 3666.945312 1378.195312 C 3666.945312 1385.308594 3660.847656 1411.726562 3648.996094 1457.113281 C 3643.238281 1479.808594 3633.074219 1490.984375 3618.511719 1490.984375 C 3613.769531 1490.984375 3609.363281 1489.96875 3605.640625 1488.277344 C 3614.445312 1484.890625 3618.847656 1478.792969 3618.847656 1469.984375 C 3618.847656 1461.179688 3614.445312 1456.777344 3605.300781 1456.777344 C 3594.121094 1456.777344 3585.65625 1466.261719 3585.65625 1477.4375 C 3585.65625 1493.019531 3601.574219 1500.808594 3618.171875 1500.808594 C 3632.398438 1500.808594 3643.914062 1493.019531 3653.058594 1477.4375 C 3659.496094 1493.019531 3671.6875 1500.808594 3689.300781 1500.808594 C 3705.558594 1500.808594 3719.109375 1493.019531 3729.949219 1477.777344 C 3739.09375 1464.566406 3743.835938 1454.742188 3743.835938 1448.308594 C 3743.835938 1445.257812 3742.140625 1443.566406 3738.753906 1443.566406 C 3735.707031 1443.566406 3734.011719 1445.257812 3732.996094 1448.308594 C 3727.238281 1467.613281 3711.996094 1490.984375 3689.980469 1490.984375 C 3678.800781 1490.984375 3673.042969 1484.210938 3673.042969 1470.324219 C 3673.042969 1465.921875 3674.738281 1456.4375 3678.460938 1441.195312 L 3689.980469 1395.46875 C 3696.414062 1370.066406 3706.914062 1357.195312 3721.816406 1357.195312 C 3726.558594 1357.195312 3730.964844 1358.210938 3734.6875 1359.902344 C 3725.542969 1362.953125 3721.140625 1369.050781 3721.140625 1378.195312 C 3721.140625 1387 3725.882812 1391.402344 3735.027344 1391.402344 C 3745.867188 1391.402344 3754.335938 1381.582031 3754.335938 1370.742188 Z M 3754.335938 1370.742188 " fill-opacity="1" fill-rule="nonzero"/><path fill="#000000" d="M 3837.507812 1214.640625 C 3825.296875 1214.640625 3815 1218.953125 3806.140625 1227.574219 C 3797.277344 1236.195312 3792.726562 1246.253906 3792.726562 1258.464844 C 3792.726562 1266.605469 3798.714844 1272.59375 3806.140625 1272.59375 C 3813.324219 1272.59375 3819.308594 1266.367188 3819.308594 1259.183594 C 3819.308594 1251.28125 3813.5625 1245.773438 3805.898438 1245.773438 C 3805.179688 1245.773438 3804.703125 1245.773438 3804.222656 1246.011719 C 3808.773438 1234.277344 3819.308594 1223.980469 3834.394531 1223.980469 C 3854.03125 1223.980469 3865.046875 1240.984375 3865.046875 1261.578125 C 3865.046875 1277.621094 3856.90625 1294.863281 3840.621094 1313.066406 L 3795.601562 1363.832031 C 3792.488281 1367.425781 3792.726562 1367.183594 3792.726562 1374.128906 L 3881.570312 1374.128906 L 3888.515625 1331.023438 L 3880.613281 1331.023438 C 3878.699219 1343.238281 3877.023438 1350.183594 3875.585938 1352.335938 C 3874.386719 1353.535156 3867.203125 1354.015625 3854.03125 1354.015625 L 3814.042969 1354.015625 L 3837.269531 1331.265625 C 3853.554688 1315.9375 3874.148438 1299.414062 3881.09375 1286.722656 C 3885.882812 1278.339844 3888.277344 1269.960938 3888.277344 1261.578125 C 3888.277344 1233.320312 3866.246094 1214.640625 3837.507812 1214.640625 Z M 3837.507812 1214.640625 " fill-opacity="1" fill-rule="nonzero"/><path fill="#000000" d="M 2758.71875 1755.148438 C 2744.828125 1769.375 2724.507812 1776.488281 2697.75 1776.488281 L 2697.75 1789.699219 C 2715.363281 1789.699219 2729.925781 1786.988281 2741.105469 1781.570312 L 2741.105469 1952.957031 C 2741.105469 1959.054688 2739.75 1963.121094 2736.699219 1964.8125 C 2733.652344 1966.507812 2725.183594 1967.523438 2711.636719 1967.523438 L 2699.78125 1967.523438 L 2699.78125 1980.734375 C 2708.25 1980.054688 2726.539062 1979.71875 2754.652344 1979.71875 C 2782.765625 1979.71875 2801.054688 1980.054688 2809.523438 1980.734375 L 2809.523438 1967.523438 L 2797.667969 1967.523438 C 2783.78125 1967.523438 2775.3125 1966.507812 2772.605469 1964.8125 C 2769.894531 1963.121094 2768.199219 1959.054688 2768.199219 1952.957031 L 2768.199219 1765.3125 C 2768.199219 1757.183594 2767.523438 1755.148438 2758.71875 1755.148438 Z M 2758.71875 1755.148438 " fill-opacity="1" fill-rule="nonzero"/><path fill="#000000" d="M 3148.644531 1887.925781 L 3052.113281 1887.925781 L 3052.113281 1791.390625 C 3052.113281 1785.972656 3049.402344 1783.261719 3043.984375 1783.261719 C 3038.5625 1783.261719 3035.855469 1785.972656 3035.855469 1791.390625 L 3035.855469 1887.925781 L 2939.320312 1887.925781 C 2933.902344 1887.925781 2931.191406 1890.636719 2931.191406 1896.054688 C 2931.191406 1901.472656 2933.902344 1904.183594 2939.320312 1904.183594 L 3035.855469 1904.183594 L 3035.855469 2000.71875 C 3035.855469 2006.136719 3038.5625 2008.847656 3043.984375 2008.847656 C 3049.402344 2008.847656 3052.113281 2006.136719 3052.113281 2000.71875 L 3052.113281 1904.183594 L 3148.644531 1904.183594 C 3154.066406 1904.183594 3156.773438 1901.472656 3156.773438 1896.054688 C 3156.773438 1891.652344 3153.050781 1887.925781 3148.644531 1887.925781 Z M 3148.644531 1887.925781 " fill-opacity="1" fill-rule="nonzero"/><path fill="#000000" d="M 3429.507812 1854.394531 C 3429.507812 1838.8125 3414.265625 1831.023438 3397.328125 1831.023438 C 3382.765625 1831.023438 3371.25 1838.8125 3362.441406 1854.394531 C 3355.328125 1838.8125 3343.472656 1831.023438 3326.199219 1831.023438 C 3309.601562 1831.023438 3296.054688 1838.8125 3285.214844 1854.054688 C 3276.070312 1867.265625 3271.328125 1877.085938 3271.328125 1883.523438 C 3271.328125 1886.570312 3273.023438 1888.265625 3276.410156 1888.265625 C 3279.457031 1888.265625 3281.488281 1886.570312 3282.167969 1883.523438 C 3288.601562 1863.878906 3302.828125 1840.84375 3325.523438 1840.84375 C 3336.699219 1840.84375 3342.121094 1847.957031 3342.121094 1861.84375 C 3342.121094 1868.957031 3336.023438 1895.378906 3324.167969 1940.765625 C 3318.410156 1963.460938 3308.246094 1974.636719 3293.683594 1974.636719 C 3288.941406 1974.636719 3284.539062 1973.621094 3280.8125 1971.925781 C 3289.617188 1968.539062 3294.023438 1962.441406 3294.023438 1953.636719 C 3294.023438 1944.828125 3289.617188 1940.425781 3280.472656 1940.425781 C 3269.296875 1940.425781 3260.828125 1949.910156 3260.828125 1961.089844 C 3260.828125 1976.667969 3276.746094 1984.460938 3293.34375 1984.460938 C 3307.570312 1984.460938 3319.085938 1976.667969 3328.230469 1961.089844 C 3334.667969 1976.667969 3346.863281 1984.460938 3364.476562 1984.460938 C 3380.734375 1984.460938 3394.28125 1976.667969 3405.121094 1961.425781 C 3414.265625 1948.21875 3419.007812 1938.394531 3419.007812 1931.957031 C 3419.007812 1928.910156 3417.3125 1927.214844 3413.925781 1927.214844 C 3410.878906 1927.214844 3409.183594 1928.910156 3408.167969 1931.957031 C 3402.410156 1951.265625 3387.167969 1974.636719 3365.152344 1974.636719 C 3353.972656 1974.636719 3348.214844 1967.863281 3348.214844 1953.976562 C 3348.214844 1949.570312 3349.910156 1940.085938 3353.636719 1924.84375 L 3365.152344 1879.121094 C 3371.585938 1853.714844 3382.085938 1840.84375 3396.992188 1840.84375 C 3401.734375 1840.84375 3406.136719 1841.859375 3409.863281 1843.554688 C 3400.71875 1846.601562 3396.3125 1852.699219 3396.3125 1861.84375 C 3396.3125 1870.652344 3401.054688 1875.054688 3410.199219 1875.054688 C 3421.039062 1875.054688 3429.507812 1865.230469 3429.507812 1854.394531 Z M 3429.507812 1854.394531 " fill-opacity="1" fill-rule="nonzero"/><path fill="#000000" d="M 3512.683594 1723.355469 C 3500.46875 1723.355469 3490.171875 1727.667969 3481.3125 1736.289062 C 3472.449219 1744.910156 3467.902344 1754.96875 3467.902344 1767.179688 C 3467.902344 1775.324219 3473.886719 1781.308594 3481.3125 1781.308594 C 3488.496094 1781.308594 3494.480469 1775.082031 3494.480469 1767.898438 C 3494.480469 1759.996094 3488.734375 1754.488281 3481.070312 1754.488281 C 3480.351562 1754.488281 3479.875 1754.488281 3479.394531 1754.726562 C 3483.945312 1742.992188 3494.480469 1732.695312 3509.570312 1732.695312 C 3529.207031 1732.695312 3540.222656 1749.699219 3540.222656 1770.292969 C 3540.222656 1786.339844 3532.078125 1803.582031 3515.796875 1821.78125 L 3470.773438 1872.546875 C 3467.660156 1876.140625 3467.902344 1875.902344 3467.902344 1882.84375 L 3556.746094 1882.84375 L 3563.691406 1839.742188 L 3555.785156 1839.742188 C 3553.871094 1851.953125 3552.195312 1858.898438 3550.757812 1861.054688 C 3549.5625 1862.25 3542.375 1862.730469 3529.207031 1862.730469 L 3489.214844 1862.730469 L 3512.441406 1839.980469 C 3528.726562 1824.652344 3549.320312 1808.128906 3556.265625 1795.4375 C 3561.054688 1787.054688 3563.449219 1778.675781 3563.449219 1770.292969 C 3563.449219 1742.035156 3541.417969 1723.355469 3512.683594 1723.355469 Z M 3512.683594 1723.355469 " fill-opacity="1" fill-rule="nonzero"/><path fill="#000000" d="M 2308.90625 1662.375 L 3951.332031 1662.375 L 3951.332031 1642.054688 L 2308.90625 1642.054688 Z M 2308.90625 1662.375 " fill-opacity="1" fill-rule="nonzero"/></svg>