<svg xmlns="http://www.w3.org/2000/svg" xmlns:xlink="http://www.w3.org/1999/xlink" width="4708" zoomAndPan="magnify" viewBox="0 0 3530.88 2343.749891" height="3125" preserveAspectRatio="xMidYMid meet" version="1.0"><path fill="#000000" d="M 400.832031 280.652344 L 385.085938 345.515625 C 379.480469 335.636719 371.738281 330.566406 361.328125 330.566406 C 343.980469 330.566406 328.765625 339.375 315.421875 357.257812 C 303.144531 373.808594 297.003906 391.15625 297.003906 409.039062 C 297.003906 432.527344 310.617188 452.28125 333.035156 452.28125 C 344.515625 452.28125 355.722656 446.140625 366.402344 433.59375 C 369.335938 443.738281 378.414062 452.28125 390.957031 452.28125 C 409.375 452.28125 415.246094 430.390625 419.25 410.640625 C 419.25 408.238281 417.914062 406.902344 415.246094 406.902344 C 412.84375 406.902344 411.242188 408.773438 410.441406 412.507812 C 405.105469 433.59375 398.699219 444.273438 391.492188 444.273438 C 386.953125 444.273438 384.550781 440.535156 384.550781 433.328125 C 384.550781 429.324219 385.085938 425.054688 386.152344 420.785156 L 424.054688 268.109375 L 424.054688 267.042969 C 423.253906 265.171875 421.652344 264.105469 419.515625 264.105469 C 413.378906 264.105469 402.167969 265.171875 386.152344 267.042969 C 383.214844 267.308594 381.613281 269.445312 381.613281 273.179688 C 381.613281 275.851562 384.015625 277.183594 388.820312 277.183594 C 393.894531 277.183594 400.832031 276.917969 400.832031 280.652344 M 377.34375 348.984375 C 380.015625 354.589844 381.347656 358.324219 381.347656 360.726562 C 381.082031 361.796875 380.8125 363.128906 380.546875 365 L 367.46875 416.78125 C 366.667969 419.714844 364.800781 422.917969 362.398438 426.121094 C 352.523438 438.132812 342.914062 444.273438 333.570312 444.273438 C 323.160156 444.273438 317.824219 436.265625 317.824219 420.515625 C 317.824219 414.109375 319.425781 404.5 322.628906 391.691406 C 328.234375 369.003906 336.238281 353.519531 346.117188 345.246094 C 351.453125 340.710938 356.523438 338.574219 361.597656 338.574219 C 368.804688 338.574219 374.140625 342.042969 377.34375 348.984375 Z M 377.34375 348.984375 " fill-opacity="1" fill-rule="nonzero"/><path fill="#000000" d="M 565.785156 349.785156 C 565.785156 337.507812 553.773438 331.367188 540.429688 331.367188 C 528.953125 331.367188 519.875 337.507812 512.9375 349.785156 C 507.332031 337.507812 497.988281 331.367188 484.375 331.367188 C 471.296875 331.367188 460.621094 337.507812 452.082031 349.519531 C 444.875 359.925781 441.136719 367.667969 441.136719 372.738281 C 441.136719 375.140625 442.472656 376.476562 445.140625 376.476562 C 447.542969 376.476562 449.144531 375.140625 449.679688 372.738281 C 454.75 357.257812 465.960938 339.109375 483.84375 339.109375 C 492.652344 339.109375 496.921875 344.714844 496.921875 355.65625 C 496.921875 361.261719 492.117188 382.082031 482.777344 417.847656 C 478.238281 435.730469 470.230469 444.539062 458.753906 444.539062 C 455.015625 444.539062 451.546875 443.738281 448.609375 442.402344 C 455.550781 439.734375 459.019531 434.929688 459.019531 427.992188 C 459.019531 421.050781 455.550781 417.582031 448.34375 417.582031 C 439.535156 417.582031 432.863281 425.054688 432.863281 433.863281 C 432.863281 446.140625 445.40625 452.28125 458.484375 452.28125 C 469.695312 452.28125 478.773438 446.140625 485.976562 433.863281 C 491.050781 446.140625 500.660156 452.28125 514.539062 452.28125 C 527.351562 452.28125 538.027344 446.140625 546.566406 434.128906 C 553.773438 423.71875 557.511719 415.980469 557.511719 410.90625 C 557.511719 408.503906 556.175781 407.171875 553.507812 407.171875 C 551.105469 407.171875 549.769531 408.503906 548.96875 410.90625 C 544.433594 426.121094 532.421875 444.539062 515.070312 444.539062 C 506.265625 444.539062 501.726562 439.199219 501.726562 428.257812 C 501.726562 424.789062 503.0625 417.3125 505.996094 405.300781 L 515.070312 369.269531 C 520.144531 349.25 528.417969 339.109375 540.160156 339.109375 C 543.898438 339.109375 547.367188 339.910156 550.304688 341.242188 C 543.097656 343.644531 539.628906 348.449219 539.628906 355.65625 C 539.628906 362.597656 543.363281 366.066406 550.570312 366.066406 C 559.113281 366.066406 565.785156 358.324219 565.785156 349.785156 Z M 565.785156 349.785156 " fill-opacity="1" fill-rule="nonzero"/><path fill="#000000" d="M 428.992188 644.191406 L 413.246094 709.050781 C 407.640625 699.175781 399.898438 694.101562 389.488281 694.101562 C 372.140625 694.101562 356.925781 702.910156 343.578125 720.792969 C 331.300781 737.34375 325.164062 754.691406 325.164062 772.574219 C 325.164062 796.0625 338.777344 815.816406 361.195312 815.816406 C 372.671875 815.816406 383.882812 809.675781 394.558594 797.132812 C 397.496094 807.273438 406.570312 815.816406 419.117188 815.816406 C 437.535156 815.816406 443.40625 793.929688 447.410156 774.175781 C 447.410156 771.773438 446.074219 770.441406 443.40625 770.441406 C 441.003906 770.441406 439.402344 772.308594 438.601562 776.046875 C 433.261719 797.132812 426.855469 807.808594 419.652344 807.808594 C 415.113281 807.808594 412.710938 804.070312 412.710938 796.863281 C 412.710938 792.859375 413.246094 788.589844 414.3125 784.320312 L 452.214844 631.644531 L 452.214844 630.578125 C 451.414062 628.710938 449.8125 627.640625 447.675781 627.640625 C 441.539062 627.640625 430.328125 628.710938 414.3125 630.578125 C 411.375 630.84375 409.773438 632.980469 409.773438 636.714844 C 409.773438 639.386719 412.175781 640.71875 416.980469 640.71875 C 422.050781 640.71875 428.992188 640.453125 428.992188 644.191406 M 405.503906 712.519531 C 408.171875 718.125 409.507812 721.863281 409.507812 724.265625 C 409.242188 725.332031 408.972656 726.667969 408.707031 728.535156 L 395.628906 780.316406 C 394.828125 783.253906 392.960938 786.457031 390.558594 789.65625 C 380.679688 801.667969 371.070312 807.808594 361.730469 807.808594 C 351.320312 807.808594 345.980469 799.800781 345.980469 784.054688 C 345.980469 777.648438 347.582031 768.039062 350.785156 755.226562 C 356.390625 732.539062 364.398438 717.058594 374.273438 708.785156 C 379.613281 704.246094 384.683594 702.109375 389.757812 702.109375 C 396.960938 702.109375 402.300781 705.582031 405.503906 712.519531 Z M 405.503906 712.519531 " fill-opacity="1" fill-rule="nonzero"/><path fill="#000000" d="M 541.363281 701.042969 C 541.363281 698.640625 538.695312 697.304688 533.089844 697.304688 L 511.46875 697.304688 C 518.410156 669.546875 521.878906 655.132812 521.878906 654.066406 C 521.878906 648.460938 518.941406 645.792969 513.335938 645.792969 C 507.199219 645.792969 503.460938 649.261719 501.859375 656.203125 L 491.984375 697.304688 L 468.230469 697.304688 C 462.355469 697.304688 459.421875 697.574219 459.421875 703.179688 C 459.421875 706.113281 462.089844 707.449219 467.695312 707.449219 L 489.316406 707.449219 C 476.234375 759.496094 469.832031 786.988281 469.832031 790.457031 C 469.832031 805.40625 479.972656 815.816406 494.921875 815.816406 C 505.0625 815.816406 513.871094 811.277344 521.609375 801.9375 C 528.015625 794.195312 532.554688 786.722656 535.492188 779.515625 C 536.558594 776.578125 537.09375 774.976562 537.09375 774.175781 C 537.09375 771.773438 535.757812 770.441406 533.089844 770.441406 C 530.953125 770.441406 529.351562 771.773438 528.285156 774.710938 C 519.210938 796.863281 508.265625 807.808594 495.1875 807.808594 C 490.648438 807.808594 488.246094 804.070312 488.246094 796.863281 C 488.246094 792.859375 488.78125 788.589844 489.847656 784.320312 L 508.800781 707.449219 L 532.554688 707.449219 C 539.496094 707.449219 541.363281 706.914062 541.363281 701.042969 Z M 541.363281 701.042969 " fill-opacity="1" fill-rule="nonzero"/><path fill="#000000" d="M 259.636719 571.054688 L 604.488281 571.054688 L 604.488281 555.042969 L 259.636719 555.042969 Z M 259.636719 571.054688 " fill-opacity="1" fill-rule="nonzero"/><path fill="#000000" d="M 896.972656 531.820312 L 732.019531 531.820312 C 727.75 531.820312 725.613281 533.953125 725.613281 537.957031 C 725.613281 541.960938 727.75 544.097656 732.019531 544.097656 L 896.972656 544.097656 C 901.242188 544.097656 903.378906 541.960938 903.378906 537.957031 C 903.378906 534.753906 900.441406 531.820312 896.972656 531.820312 M 896.972656 582 L 732.019531 582 C 727.75 582 725.613281 584.132812 725.613281 588.136719 C 725.613281 592.140625 727.75 594.277344 732.019531 594.277344 L 896.972656 594.277344 C 901.242188 594.277344 903.378906 592.140625 903.378906 588.136719 C 903.378906 584.667969 900.441406 582 896.972656 582 Z M 896.972656 582 " fill-opacity="1" fill-rule="nonzero"/><path fill="#000000" d="M 1178.777344 557.710938 L 1013.828125 557.710938 C 1009.554688 557.710938 1007.421875 559.578125 1007.421875 563.046875 C 1007.421875 566.519531 1009.554688 568.386719 1013.828125 568.386719 L 1178.777344 568.386719 C 1183.050781 568.386719 1185.183594 566.519531 1185.183594 563.046875 C 1185.183594 559.84375 1181.980469 557.710938 1178.777344 557.710938 Z M 1178.777344 557.710938 " fill-opacity="1" fill-rule="nonzero"/><path fill="#000000" d="M 1282.875 511.800781 C 1264.457031 511.800781 1247.910156 519.808594 1233.230469 535.554688 C 1218.550781 551.304688 1211.074219 568.652344 1211.074219 587.335938 C 1211.074219 613.496094 1228.691406 632.714844 1254.847656 632.714844 C 1273.265625 632.714844 1291.417969 625.507812 1309.566406 611.359375 C 1313.570312 625.507812 1321.84375 632.714844 1334.121094 632.714844 C 1343.730469 632.714844 1357.34375 622.570312 1357.34375 612.960938 C 1357.34375 610.558594 1356.007812 609.492188 1353.074219 609.492188 C 1351.207031 609.492188 1349.605469 610.558594 1348.804688 612.695312 C 1346.667969 618.300781 1341.0625 624.972656 1334.921875 624.972656 C 1330.386719 624.972656 1327.984375 616.429688 1327.984375 599.082031 C 1327.984375 595.34375 1328.785156 592.410156 1330.386719 590.539062 C 1337.59375 581.734375 1344 571.589844 1349.070312 560.378906 C 1355.742188 545.964844 1359.746094 535.289062 1360.8125 528.351562 L 1360.8125 527.28125 C 1360.011719 525.414062 1358.410156 524.613281 1356.542969 524.613281 C 1355.207031 524.878906 1353.605469 527.015625 1351.738281 530.753906 C 1346.132812 549.96875 1338.394531 566.519531 1327.984375 580.132812 L 1327.984375 566.785156 C 1327.984375 535.824219 1312.503906 511.800781 1282.875 511.800781 M 1307.699219 573.457031 C 1307.699219 589.207031 1307.964844 598.816406 1308.230469 602.285156 C 1290.882812 617.5 1273.265625 624.972656 1255.382812 624.972656 C 1240.167969 624.972656 1232.695312 615.628906 1232.695312 597.214844 C 1232.695312 581.734375 1241.503906 552.90625 1247.644531 543.296875 C 1257.785156 527.550781 1269.53125 519.542969 1282.609375 519.542969 C 1290.882812 519.542969 1296.488281 522.746094 1299.957031 529.152344 C 1301.824219 532.351562 1303.160156 535.554688 1304.496094 538.492188 C 1306.628906 544.632812 1307.699219 560.914062 1307.699219 573.457031 Z M 1307.699219 573.457031 " fill-opacity="1" fill-rule="nonzero"/><path fill="#000000" d="M 1511.621094 530.21875 C 1511.621094 517.941406 1499.609375 511.800781 1486.261719 511.800781 C 1474.785156 511.800781 1465.710938 517.941406 1458.769531 530.21875 C 1453.167969 517.941406 1443.824219 511.800781 1430.210938 511.800781 C 1417.132812 511.800781 1406.457031 517.941406 1397.914062 529.953125 C 1390.707031 540.359375 1386.972656 548.101562 1386.972656 553.171875 C 1386.972656 555.574219 1388.304688 556.910156 1390.976562 556.910156 C 1393.378906 556.910156 1394.980469 555.574219 1395.511719 553.171875 C 1400.585938 537.691406 1411.792969 519.542969 1429.675781 519.542969 C 1438.484375 519.542969 1442.757812 525.148438 1442.757812 536.089844 C 1442.757812 541.695312 1437.953125 562.515625 1428.609375 598.28125 C 1424.074219 616.164062 1416.066406 624.972656 1404.585938 624.972656 C 1400.851562 624.972656 1397.382812 624.171875 1394.445312 622.835938 C 1401.386719 620.167969 1404.855469 615.363281 1404.855469 608.425781 C 1404.855469 601.484375 1401.386719 598.015625 1394.179688 598.015625 C 1385.371094 598.015625 1378.695312 605.488281 1378.695312 614.296875 C 1378.695312 626.574219 1391.242188 632.714844 1404.320312 632.714844 C 1415.53125 632.714844 1424.605469 626.574219 1431.8125 614.296875 C 1436.882812 626.574219 1446.492188 632.714844 1460.371094 632.714844 C 1473.183594 632.714844 1483.859375 626.574219 1492.402344 614.5625 C 1499.609375 604.152344 1503.347656 596.414062 1503.347656 591.339844 C 1503.347656 588.9375 1502.011719 587.605469 1499.34375 587.605469 C 1496.941406 587.605469 1495.605469 588.9375 1494.804688 591.339844 C 1490.265625 606.554688 1478.257812 624.972656 1460.90625 624.972656 C 1452.097656 624.972656 1447.5625 619.632812 1447.5625 608.691406 C 1447.5625 605.222656 1448.894531 597.746094 1451.832031 585.734375 L 1460.90625 549.703125 C 1465.976562 529.683594 1474.253906 519.542969 1485.996094 519.542969 C 1489.734375 519.542969 1493.203125 520.34375 1496.140625 521.675781 C 1488.933594 524.078125 1485.460938 528.882812 1485.460938 536.089844 C 1485.460938 543.03125 1489.199219 546.5 1496.40625 546.5 C 1504.949219 546.5 1511.621094 538.757812 1511.621094 530.21875 Z M 1511.621094 530.21875 " fill-opacity="1" fill-rule="nonzero"/><path fill="#000000" d="M 1769.246094 557.710938 L 1604.292969 557.710938 C 1600.023438 557.710938 1597.886719 559.578125 1597.886719 563.046875 C 1597.886719 566.519531 1600.023438 568.386719 1604.292969 568.386719 L 1769.246094 568.386719 C 1773.515625 568.386719 1775.652344 566.519531 1775.652344 563.046875 C 1775.652344 559.84375 1772.449219 557.710938 1769.246094 557.710938 Z M 1769.246094 557.710938 " fill-opacity="1" fill-rule="nonzero"/><path fill="#000000" d="M 1944.125 449.078125 C 1941.722656 449.078125 1939.589844 450.410156 1937.988281 452.8125 L 1857.378906 576.660156 L 1857.378906 586.269531 L 1927.042969 586.269531 L 1927.042969 608.15625 C 1927.042969 612.960938 1925.976562 616.164062 1924.109375 617.5 C 1922.238281 618.832031 1917.167969 619.367188 1908.359375 619.367188 L 1901.6875 619.367188 L 1901.6875 629.777344 C 1909.429688 629.242188 1921.707031 628.976562 1938.253906 628.976562 C 1954.804688 628.976562 1967.082031 629.242188 1974.820312 629.777344 L 1974.820312 619.367188 L 1968.148438 619.367188 C 1959.339844 619.367188 1954.269531 618.832031 1952.402344 617.5 C 1950.53125 616.164062 1949.464844 612.960938 1949.464844 608.15625 L 1949.464844 586.269531 L 1975.621094 586.269531 L 1975.621094 575.859375 L 1949.464844 575.859375 L 1949.464844 453.613281 C 1949.464844 450.945312 1947.597656 449.078125 1944.125 449.078125 M 1928.644531 482.171875 L 1928.644531 575.859375 L 1867.789062 575.859375 Z M 1928.644531 482.171875 " fill-opacity="1" fill-rule="nonzero"/><path fill="#000000" d="M 2026.871094 511.800781 C 2014.859375 511.800781 2005.515625 518.472656 1998.84375 531.820312 C 1993.773438 542.230469 1991.105469 549.4375 1991.105469 553.441406 C 1991.105469 555.84375 1992.4375 557.175781 1995.375 557.175781 C 1999.109375 557.175781 1999.378906 555.574219 2000.445312 551.570312 C 2006.585938 530.484375 2015.125 519.808594 2026.070312 519.808594 C 2029.539062 519.808594 2031.40625 522.210938 2031.40625 527.015625 C 2031.40625 531.285156 2030.074219 537.425781 2027.136719 545.164062 C 2016.996094 572.65625 2011.921875 591.074219 2011.921875 600.949219 C 2011.921875 621.234375 2024.46875 633.246094 2045.019531 633.246094 C 2053.828125 633.246094 2062.101562 630.042969 2069.578125 623.636719 C 2060.234375 658.871094 2045.554688 676.488281 2025.535156 676.488281 C 2016.460938 676.488281 2010.320312 673.550781 2007.117188 667.679688 C 2017.796875 667.144531 2023.132812 662.074219 2023.132812 652.464844 C 2023.132812 645.792969 2019.664062 642.320312 2012.457031 642.320312 C 2002.582031 642.320312 1996.707031 650.597656 1996.707031 660.472656 C 1996.707031 675.152344 2010.054688 684.496094 2025.535156 684.496094 C 2056.230469 684.496094 2081.320312 656.203125 2087.992188 630.042969 L 2113.082031 529.152344 C 2113.882812 526.214844 2114.152344 524.078125 2114.152344 522.746094 C 2114.152344 517.40625 2111.214844 514.738281 2105.609375 514.738281 C 2101.339844 514.738281 2097.867188 516.871094 2095.46875 520.875 C 2093.867188 526.480469 2092.53125 531.285156 2091.730469 535.289062 L 2074.648438 603.886719 C 2071.976562 613.496094 2057.832031 625.507812 2045.820312 625.507812 C 2035.679688 625.507812 2030.605469 618.832031 2030.605469 605.222656 C 2030.605469 594.011719 2035.144531 576.929688 2043.953125 553.972656 C 2047.421875 544.632812 2049.289062 538.226562 2049.289062 534.488281 C 2049.289062 521.410156 2039.949219 511.800781 2026.871094 511.800781 Z M 2026.871094 511.800781 " fill-opacity="1" fill-rule="nonzero"/><path fill="#000000" d="M 2359.765625 557.710938 L 2194.8125 557.710938 C 2190.542969 557.710938 2188.40625 559.578125 2188.40625 563.046875 C 2188.40625 566.519531 2190.542969 568.386719 2194.8125 568.386719 L 2359.765625 568.386719 C 2364.035156 568.386719 2366.171875 566.519531 2366.171875 563.046875 C 2366.171875 559.84375 2362.96875 557.710938 2359.765625 557.710938 Z M 2359.765625 557.710938 " fill-opacity="1" fill-rule="nonzero"/><path fill="#000000" d="M 2534.644531 449.078125 C 2532.242188 449.078125 2530.109375 450.410156 2528.507812 452.8125 L 2447.898438 576.660156 L 2447.898438 586.269531 L 2517.5625 586.269531 L 2517.5625 608.15625 C 2517.5625 612.960938 2516.496094 616.164062 2514.628906 617.5 C 2512.757812 618.832031 2507.6875 619.367188 2498.878906 619.367188 L 2492.207031 619.367188 L 2492.207031 629.777344 C 2499.949219 629.242188 2512.226562 628.976562 2528.773438 628.976562 C 2545.324219 628.976562 2557.601562 629.242188 2565.339844 629.777344 L 2565.339844 619.367188 L 2558.667969 619.367188 C 2549.859375 619.367188 2544.789062 618.832031 2542.921875 617.5 C 2541.050781 616.164062 2539.984375 612.960938 2539.984375 608.15625 L 2539.984375 586.269531 L 2566.140625 586.269531 L 2566.140625 575.859375 L 2539.984375 575.859375 L 2539.984375 453.613281 C 2539.984375 450.945312 2538.117188 449.078125 2534.644531 449.078125 M 2519.164062 482.171875 L 2519.164062 575.859375 L 2458.308594 575.859375 Z M 2519.164062 482.171875 " fill-opacity="1" fill-rule="nonzero"/><path fill="#000000" d="M 2617.121094 605.222656 L 2612.585938 605.753906 C 2625.398438 593.210938 2635.273438 584.132812 2641.945312 577.996094 L 2667.570312 554.242188 C 2673.707031 548.636719 2680.113281 541.695312 2686.253906 533.953125 C 2694.527344 523.8125 2698.53125 517.671875 2698.53125 515.539062 C 2698.53125 513.136719 2697.195312 511.800781 2694.527344 511.800781 C 2692.660156 511.800781 2691.058594 512.867188 2689.722656 515.269531 C 2683.050781 526.214844 2676.910156 531.554688 2671.039062 531.554688 C 2665.167969 531.554688 2660.898438 526.75 2658.496094 523.546875 C 2652.089844 515.804688 2645.683594 511.800781 2639.542969 511.800781 C 2632.605469 511.800781 2625.398438 515.003906 2617.921875 521.945312 C 2610.449219 528.882812 2606.714844 535.824219 2606.714844 542.761719 C 2606.714844 545.433594 2608.046875 546.765625 2610.984375 546.765625 C 2612.851562 546.765625 2614.453125 545.433594 2615.519531 543.03125 C 2618.457031 535.289062 2625.664062 531.554688 2636.605469 531.554688 C 2640.34375 531.554688 2645.683594 532.886719 2652.890625 535.289062 C 2659.296875 537.691406 2665.433594 539.027344 2671.039062 539.292969 C 2656.09375 553.972656 2644.613281 564.648438 2636.339844 571.855469 L 2612.585938 594.011719 C 2608.582031 598.015625 2603.511719 603.351562 2597.90625 610.023438 C 2589.628906 620.433594 2585.359375 626.574219 2585.359375 628.976562 C 2585.359375 631.378906 2586.695312 632.714844 2589.628906 632.714844 C 2591.230469 632.714844 2592.832031 631.378906 2594.703125 628.710938 C 2601.375 618.300781 2608.582031 612.960938 2616.054688 612.960938 C 2620.324219 612.960938 2625.128906 616.164062 2630.46875 622.835938 C 2635.804688 629.511719 2641.945312 632.714844 2648.085938 632.714844 C 2657.160156 632.714844 2666.234375 627.910156 2675.84375 618.566406 C 2685.453125 609.222656 2690.257812 600.148438 2690.257812 591.339844 C 2690.257812 588.9375 2688.921875 587.605469 2685.988281 587.605469 C 2684.117188 587.605469 2682.515625 588.9375 2681.183594 591.609375 C 2677.179688 603.085938 2665.699219 612.960938 2650.753906 612.960938 C 2644.347656 612.960938 2623.527344 605.222656 2617.121094 605.222656 Z M 2617.121094 605.222656 " fill-opacity="1" fill-rule="nonzero"/><path fill="#000000" d="M 2944.171875 557.710938 L 2779.21875 557.710938 C 2774.949219 557.710938 2772.8125 559.578125 2772.8125 563.046875 C 2772.8125 566.519531 2774.949219 568.386719 2779.21875 568.386719 L 2944.171875 568.386719 C 2948.441406 568.386719 2950.578125 566.519531 2950.578125 563.046875 C 2950.578125 559.84375 2947.375 557.710938 2944.171875 557.710938 Z M 2944.171875 557.710938 " fill-opacity="1" fill-rule="nonzero"/><path fill="#000000" d="M 3068.339844 511.800781 C 3056.328125 511.800781 3046.988281 518.472656 3040.3125 531.820312 C 3035.242188 542.230469 3032.574219 549.4375 3032.574219 553.441406 C 3032.574219 555.84375 3033.90625 557.175781 3036.84375 557.175781 C 3040.582031 557.175781 3040.847656 555.574219 3041.914062 551.570312 C 3048.054688 530.484375 3056.59375 519.808594 3067.539062 519.808594 C 3071.007812 519.808594 3072.878906 522.210938 3072.878906 527.015625 C 3072.878906 531.285156 3071.542969 537.425781 3068.605469 545.164062 C 3058.464844 572.65625 3053.394531 591.074219 3053.394531 600.949219 C 3053.394531 621.234375 3065.9375 633.246094 3086.488281 633.246094 C 3095.296875 633.246094 3103.574219 630.042969 3111.046875 623.636719 C 3101.703125 658.871094 3087.023438 676.488281 3067.003906 676.488281 C 3057.929688 676.488281 3051.792969 673.550781 3048.589844 667.679688 C 3059.265625 667.144531 3064.601562 662.074219 3064.601562 652.464844 C 3064.601562 645.792969 3061.132812 642.320312 3053.925781 642.320312 C 3044.050781 642.320312 3038.179688 650.597656 3038.179688 660.472656 C 3038.179688 675.152344 3051.523438 684.496094 3067.003906 684.496094 C 3097.699219 684.496094 3122.789062 656.203125 3129.464844 630.042969 L 3154.554688 529.152344 C 3155.355469 526.214844 3155.621094 524.078125 3155.621094 522.746094 C 3155.621094 517.40625 3152.683594 514.738281 3147.078125 514.738281 C 3142.808594 514.738281 3139.339844 516.871094 3136.9375 520.875 C 3135.335938 526.480469 3134 531.285156 3133.199219 535.289062 L 3116.117188 603.886719 C 3113.449219 613.496094 3099.300781 625.507812 3087.289062 625.507812 C 3077.148438 625.507812 3072.078125 618.832031 3072.078125 605.222656 C 3072.078125 594.011719 3076.613281 576.929688 3085.421875 553.972656 C 3088.890625 544.632812 3090.761719 538.226562 3090.761719 534.488281 C 3090.761719 521.410156 3081.417969 511.800781 3068.339844 511.800781 Z M 3068.339844 511.800781 " fill-opacity="1" fill-rule="nonzero"/><path fill="#000000" d="M 3209.152344 393.863281 C 3199.527344 393.863281 3191.414062 397.257812 3184.433594 404.050781 C 3177.449219 410.847656 3173.863281 418.773438 3173.863281 428.394531 C 3173.863281 434.8125 3178.582031 439.53125 3184.433594 439.53125 C 3190.09375 439.53125 3194.8125 434.625 3194.8125 428.960938 C 3194.8125 422.734375 3190.28125 418.394531 3184.242188 418.394531 C 3183.675781 418.394531 3183.300781 418.394531 3182.921875 418.582031 C 3186.507812 409.335938 3194.8125 401.222656 3206.699219 401.222656 C 3222.171875 401.222656 3230.855469 414.621094 3230.855469 430.847656 C 3230.855469 443.492188 3224.4375 457.078125 3211.605469 471.421875 L 3176.128906 511.425781 C 3173.675781 514.257812 3173.863281 514.070312 3173.863281 519.542969 L 3243.875 519.542969 L 3249.347656 485.574219 L 3243.121094 485.574219 C 3241.609375 495.199219 3240.289062 500.671875 3239.15625 502.371094 C 3238.214844 503.3125 3232.550781 503.691406 3222.171875 503.691406 L 3190.660156 503.691406 L 3208.964844 485.761719 C 3221.796875 473.6875 3238.023438 460.664062 3243.496094 450.664062 C 3247.269531 444.058594 3249.160156 437.453125 3249.160156 430.847656 C 3249.160156 408.582031 3231.796875 393.863281 3209.152344 393.863281 Z M 3209.152344 393.863281 " fill-opacity="1" fill-rule="nonzero"/><path fill="#000000" d="M 422.71875 912.4375 L 406.972656 977.296875 C 401.367188 967.421875 393.625 962.351562 383.214844 962.351562 C 365.867188 962.351562 350.652344 971.160156 337.308594 989.042969 C 325.03125 1005.589844 318.890625 1022.941406 318.890625 1040.824219 C 318.890625 1064.3125 332.503906 1084.0625 354.925781 1084.0625 C 366.402344 1084.0625 377.613281 1077.925781 388.289062 1065.378906 C 391.222656 1075.523438 400.300781 1084.0625 412.84375 1084.0625 C 431.261719 1084.0625 437.132812 1062.175781 441.136719 1042.425781 C 441.136719 1040.023438 439.800781 1038.6875 437.132812 1038.6875 C 434.730469 1038.6875 433.128906 1040.558594 432.328125 1044.292969 C 426.992188 1065.378906 420.585938 1076.054688 413.378906 1076.054688 C 408.839844 1076.054688 406.4375 1072.320312 406.4375 1065.113281 C 406.4375 1061.109375 406.972656 1056.839844 408.039062 1052.566406 L 445.941406 899.894531 L 445.941406 898.824219 C 445.140625 896.957031 443.539062 895.890625 441.402344 895.890625 C 435.265625 895.890625 424.054688 896.957031 408.039062 898.824219 C 405.105469 899.09375 403.503906 901.226562 403.503906 904.964844 C 403.503906 907.632812 405.90625 908.96875 410.707031 908.96875 C 415.78125 908.96875 422.71875 908.703125 422.71875 912.4375 M 399.230469 980.769531 C 401.902344 986.375 403.234375 990.109375 403.234375 992.511719 C 402.96875 993.582031 402.703125 994.914062 402.433594 996.78125 L 389.355469 1048.5625 C 388.554688 1051.5 386.6875 1054.703125 384.285156 1057.90625 C 374.410156 1069.917969 364.800781 1076.054688 355.457031 1076.054688 C 345.046875 1076.054688 339.710938 1068.050781 339.710938 1052.300781 C 339.710938 1045.894531 341.3125 1036.285156 344.515625 1023.472656 C 350.121094 1000.785156 358.125 985.304688 368.003906 977.03125 C 373.339844 972.492188 378.414062 970.359375 383.484375 970.359375 C 390.691406 970.359375 396.027344 973.828125 399.230469 980.769531 Z M 399.230469 980.769531 " fill-opacity="1" fill-rule="nonzero"/><path fill="#000000" d="M 490.515625 963.152344 C 478.503906 963.152344 469.164062 969.824219 462.488281 983.171875 C 457.417969 993.582031 454.75 1000.785156 454.75 1004.789062 C 454.75 1007.191406 456.085938 1008.527344 459.019531 1008.527344 C 462.757812 1008.527344 463.023438 1006.925781 464.089844 1002.921875 C 470.230469 981.835938 478.773438 971.160156 489.714844 971.160156 C 493.183594 971.160156 495.054688 973.5625 495.054688 978.367188 C 495.054688 982.636719 493.71875 988.777344 490.78125 996.515625 C 480.640625 1024.007812 475.570312 1042.425781 475.570312 1052.300781 C 475.570312 1072.585938 488.113281 1084.597656 508.667969 1084.597656 C 517.472656 1084.597656 525.75 1081.394531 533.222656 1074.988281 C 523.878906 1110.222656 509.199219 1127.835938 489.179688 1127.835938 C 480.105469 1127.835938 473.96875 1124.902344 470.765625 1119.03125 C 481.441406 1118.496094 486.777344 1113.425781 486.777344 1103.816406 C 486.777344 1097.140625 483.308594 1093.671875 476.101562 1093.671875 C 466.226562 1093.671875 460.355469 1101.945312 460.355469 1111.824219 C 460.355469 1126.503906 473.699219 1135.84375 489.179688 1135.84375 C 519.875 1135.84375 544.964844 1107.550781 551.640625 1081.394531 L 576.730469 980.5 C 577.53125 977.566406 577.796875 975.429688 577.796875 974.09375 C 577.796875 968.757812 574.859375 966.089844 569.253906 966.089844 C 564.984375 966.089844 561.515625 968.222656 559.113281 972.226562 C 557.511719 977.832031 556.175781 982.636719 555.375 986.640625 L 538.292969 1055.238281 C 535.625 1064.847656 521.476562 1076.855469 509.464844 1076.855469 C 499.324219 1076.855469 494.253906 1070.183594 494.253906 1056.570312 C 494.253906 1045.359375 498.789062 1028.277344 507.597656 1005.324219 C 511.066406 995.980469 512.9375 989.578125 512.9375 985.839844 C 512.9375 972.761719 503.59375 963.152344 490.515625 963.152344 Z M 490.515625 963.152344 " fill-opacity="1" fill-rule="nonzero"/><path fill="#000000" d="M 439.9375 1275.972656 L 424.1875 1340.835938 C 418.582031 1330.957031 410.84375 1325.886719 400.433594 1325.886719 C 383.082031 1325.886719 367.871094 1334.695312 354.523438 1352.578125 C 342.246094 1369.128906 336.105469 1386.476562 336.105469 1404.359375 C 336.105469 1427.847656 349.71875 1447.601562 372.140625 1447.601562 C 383.617188 1447.601562 394.828125 1441.460938 405.503906 1428.914062 C 408.441406 1439.058594 417.515625 1447.601562 430.058594 1447.601562 C 448.476562 1447.601562 454.347656 1425.714844 458.351562 1405.960938 C 458.351562 1403.558594 457.019531 1402.222656 454.347656 1402.222656 C 451.945312 1402.222656 450.34375 1404.09375 449.542969 1407.828125 C 444.207031 1428.914062 437.800781 1439.59375 430.59375 1439.59375 C 426.054688 1439.59375 423.652344 1435.855469 423.652344 1428.648438 C 423.652344 1424.644531 424.1875 1420.375 425.253906 1416.105469 L 463.15625 1263.429688 L 463.15625 1262.363281 C 462.355469 1260.492188 460.753906 1259.425781 458.621094 1259.425781 C 452.480469 1259.425781 441.269531 1260.492188 425.253906 1262.363281 C 422.320312 1262.628906 420.71875 1264.765625 420.71875 1268.5 C 420.71875 1271.171875 423.121094 1272.503906 427.925781 1272.503906 C 432.996094 1272.503906 439.9375 1272.238281 439.9375 1275.972656 M 416.449219 1344.304688 C 419.117188 1349.910156 420.449219 1353.644531 420.449219 1356.046875 C 420.183594 1357.117188 419.917969 1358.449219 419.648438 1360.320312 L 406.570312 1412.101562 C 405.769531 1415.035156 403.902344 1418.238281 401.5 1421.441406 C 391.625 1433.453125 382.015625 1439.59375 372.671875 1439.59375 C 362.265625 1439.59375 356.925781 1431.585938 356.925781 1415.835938 C 356.925781 1409.429688 358.527344 1399.824219 361.730469 1387.011719 C 367.335938 1364.324219 375.34375 1348.84375 385.21875 1340.566406 C 390.558594 1336.03125 395.628906 1333.894531 400.699219 1333.894531 C 407.90625 1333.894531 413.246094 1337.363281 416.449219 1344.304688 Z M 416.449219 1344.304688 " fill-opacity="1" fill-rule="nonzero"/><path fill="#000000" d="M 552.304688 1332.828125 C 552.304688 1330.425781 549.636719 1329.089844 544.03125 1329.089844 L 522.410156 1329.089844 C 529.351562 1301.332031 532.820312 1286.917969 532.820312 1285.851562 C 532.820312 1280.246094 529.886719 1277.574219 524.28125 1277.574219 C 518.140625 1277.574219 514.40625 1281.046875 512.804688 1287.984375 L 502.925781 1329.089844 L 479.171875 1329.089844 C 473.300781 1329.089844 470.363281 1329.355469 470.363281 1334.960938 C 470.363281 1337.898438 473.03125 1339.234375 478.636719 1339.234375 L 500.257812 1339.234375 C 487.179688 1391.28125 480.773438 1418.773438 480.773438 1422.242188 C 480.773438 1437.191406 490.917969 1447.601562 505.863281 1447.601562 C 516.007812 1447.601562 524.8125 1443.0625 532.554688 1433.71875 C 538.960938 1425.980469 543.5 1418.507812 546.433594 1411.300781 C 547.5 1408.363281 548.035156 1406.761719 548.035156 1405.960938 C 548.035156 1403.558594 546.699219 1402.222656 544.03125 1402.222656 C 541.898438 1402.222656 540.296875 1403.558594 539.226562 1406.496094 C 530.152344 1428.648438 519.210938 1439.59375 506.128906 1439.59375 C 501.59375 1439.59375 499.191406 1435.855469 499.191406 1428.648438 C 499.191406 1424.644531 499.722656 1420.375 500.792969 1416.105469 L 519.742188 1339.234375 L 543.5 1339.234375 C 550.4375 1339.234375 552.304688 1338.699219 552.304688 1332.828125 Z M 552.304688 1332.828125 " fill-opacity="1" fill-rule="nonzero"/><path fill="#000000" d="M 281.523438 1202.839844 L 604.488281 1202.839844 L 604.488281 1186.824219 L 281.523438 1186.824219 Z M 281.523438 1202.839844 " fill-opacity="1" fill-rule="nonzero"/><path fill="#000000" d="M 896.972656 1163.605469 L 732.019531 1163.605469 C 727.75 1163.605469 725.613281 1165.738281 725.613281 1169.742188 C 725.613281 1173.746094 727.75 1175.882812 732.019531 1175.882812 L 896.972656 1175.882812 C 901.242188 1175.882812 903.378906 1173.746094 903.378906 1169.742188 C 903.378906 1166.539062 900.441406 1163.605469 896.972656 1163.605469 M 896.972656 1213.785156 L 732.019531 1213.785156 C 727.75 1213.785156 725.613281 1215.917969 725.613281 1219.921875 C 725.613281 1223.925781 727.75 1226.0625 732.019531 1226.0625 L 896.972656 1226.0625 C 901.242188 1226.0625 903.378906 1223.925781 903.378906 1219.921875 C 903.378906 1216.453125 900.441406 1213.785156 896.972656 1213.785156 Z M 896.972656 1213.785156 " fill-opacity="1" fill-rule="nonzero"/><path fill="#000000" d="M 1178.777344 1189.496094 L 1013.828125 1189.496094 C 1009.554688 1189.496094 1007.421875 1191.363281 1007.421875 1194.832031 C 1007.421875 1198.300781 1009.554688 1200.171875 1013.828125 1200.171875 L 1178.777344 1200.171875 C 1183.050781 1200.171875 1185.183594 1198.300781 1185.183594 1194.832031 C 1185.183594 1191.628906 1181.980469 1189.496094 1178.777344 1189.496094 Z M 1178.777344 1189.496094 " fill-opacity="1" fill-rule="nonzero"/><path fill="#000000" d="M 1282.875 1143.585938 C 1264.457031 1143.585938 1247.910156 1151.59375 1233.230469 1167.339844 C 1218.550781 1183.089844 1211.074219 1200.4375 1211.074219 1219.121094 C 1211.074219 1245.28125 1228.691406 1264.496094 1254.847656 1264.496094 C 1273.265625 1264.496094 1291.417969 1257.289062 1309.566406 1243.144531 C 1313.570312 1257.289062 1321.84375 1264.496094 1334.121094 1264.496094 C 1343.730469 1264.496094 1357.34375 1254.355469 1357.34375 1244.746094 C 1357.34375 1242.34375 1356.007812 1241.277344 1353.074219 1241.277344 C 1351.207031 1241.277344 1349.605469 1242.34375 1348.804688 1244.480469 C 1346.667969 1250.082031 1341.0625 1256.757812 1334.921875 1256.757812 C 1330.386719 1256.757812 1327.984375 1248.214844 1327.984375 1230.867188 C 1327.984375 1227.128906 1328.785156 1224.191406 1330.386719 1222.324219 C 1337.59375 1213.515625 1344 1203.375 1349.070312 1192.164062 C 1355.742188 1177.75 1359.746094 1167.074219 1360.8125 1160.132812 L 1360.8125 1159.066406 C 1360.011719 1157.199219 1358.410156 1156.398438 1356.542969 1156.398438 C 1355.207031 1156.664062 1353.605469 1158.800781 1351.738281 1162.535156 C 1346.132812 1181.753906 1338.394531 1198.300781 1327.984375 1211.914062 L 1327.984375 1198.570312 C 1327.984375 1167.609375 1312.503906 1143.585938 1282.875 1143.585938 M 1307.699219 1205.242188 C 1307.699219 1220.992188 1307.964844 1230.597656 1308.230469 1234.070312 C 1290.882812 1249.28125 1273.265625 1256.757812 1255.382812 1256.757812 C 1240.167969 1256.757812 1232.695312 1247.414062 1232.695312 1228.996094 C 1232.695312 1213.515625 1241.503906 1184.691406 1247.644531 1175.082031 C 1257.785156 1159.332031 1269.53125 1151.324219 1282.609375 1151.324219 C 1290.882812 1151.324219 1296.488281 1154.527344 1299.957031 1160.933594 C 1301.824219 1164.136719 1303.160156 1167.339844 1304.496094 1170.277344 C 1306.628906 1176.414062 1307.699219 1192.699219 1307.699219 1205.242188 Z M 1307.699219 1205.242188 " fill-opacity="1" fill-rule="nonzero"/><path fill="#000000" d="M 1414.464844 1143.585938 C 1402.453125 1143.585938 1393.109375 1150.257812 1386.4375 1163.605469 C 1381.367188 1174.011719 1378.695312 1181.21875 1378.695312 1185.222656 C 1378.695312 1187.625 1380.03125 1188.960938 1382.96875 1188.960938 C 1386.703125 1188.960938 1386.972656 1187.359375 1388.039062 1183.355469 C 1394.179688 1162.269531 1402.71875 1151.59375 1413.664062 1151.59375 C 1417.132812 1151.59375 1419 1153.996094 1419 1158.800781 C 1419 1163.070312 1417.667969 1169.210938 1414.730469 1176.949219 C 1404.585938 1204.441406 1399.515625 1222.859375 1399.515625 1232.734375 C 1399.515625 1253.019531 1412.0625 1265.03125 1432.613281 1265.03125 C 1441.421875 1265.03125 1449.695312 1261.828125 1457.167969 1255.421875 C 1447.828125 1290.65625 1433.148438 1308.269531 1413.128906 1308.269531 C 1404.054688 1308.269531 1397.914062 1305.335938 1394.710938 1299.460938 C 1405.386719 1298.929688 1410.726562 1293.859375 1410.726562 1284.25 C 1410.726562 1277.574219 1407.257812 1274.105469 1400.050781 1274.105469 C 1390.175781 1274.105469 1384.300781 1282.378906 1384.300781 1292.257812 C 1384.300781 1306.9375 1397.648438 1316.277344 1413.128906 1316.277344 C 1443.824219 1316.277344 1468.914062 1287.984375 1475.585938 1261.828125 L 1500.675781 1160.933594 C 1501.476562 1158 1501.746094 1155.863281 1501.746094 1154.527344 C 1501.746094 1149.191406 1498.808594 1146.519531 1493.203125 1146.519531 C 1488.933594 1146.519531 1485.460938 1148.65625 1483.058594 1152.660156 C 1481.457031 1158.265625 1480.125 1163.070312 1479.324219 1167.074219 L 1462.242188 1235.671875 C 1459.570312 1245.28125 1445.425781 1257.289062 1433.414062 1257.289062 C 1423.273438 1257.289062 1418.199219 1250.617188 1418.199219 1237.003906 C 1418.199219 1225.792969 1422.738281 1208.710938 1431.546875 1185.757812 C 1435.015625 1176.414062 1436.882812 1170.011719 1436.882812 1166.273438 C 1436.882812 1153.195312 1427.542969 1143.585938 1414.464844 1143.585938 Z M 1414.464844 1143.585938 " fill-opacity="1" fill-rule="nonzero"/><path fill="#000000" d="M 1747.359375 1189.496094 L 1582.40625 1189.496094 C 1578.136719 1189.496094 1576 1191.363281 1576 1194.832031 C 1576 1198.300781 1578.136719 1200.171875 1582.40625 1200.171875 L 1747.359375 1200.171875 C 1751.628906 1200.171875 1753.765625 1198.300781 1753.765625 1194.832031 C 1753.765625 1191.628906 1750.5625 1189.496094 1747.359375 1189.496094 Z M 1747.359375 1189.496094 " fill-opacity="1" fill-rule="nonzero"/><path fill="#000000" d="M 1922.238281 1080.859375 C 1919.835938 1080.859375 1917.703125 1082.195312 1916.101562 1084.597656 L 1835.492188 1208.445312 L 1835.492188 1218.054688 L 1905.15625 1218.054688 L 1905.15625 1239.941406 C 1905.15625 1244.746094 1904.089844 1247.949219 1902.222656 1249.28125 C 1900.351562 1250.617188 1895.28125 1251.152344 1886.472656 1251.152344 L 1879.800781 1251.152344 L 1879.800781 1261.5625 C 1887.542969 1261.027344 1899.820312 1260.761719 1916.367188 1260.761719 C 1932.917969 1260.761719 1945.195312 1261.027344 1952.933594 1261.5625 L 1952.933594 1251.152344 L 1946.261719 1251.152344 C 1937.453125 1251.152344 1932.382812 1250.617188 1930.515625 1249.28125 C 1928.644531 1247.949219 1927.578125 1244.746094 1927.578125 1239.941406 L 1927.578125 1218.054688 L 1953.734375 1218.054688 L 1953.734375 1207.644531 L 1927.578125 1207.644531 L 1927.578125 1085.398438 C 1927.578125 1082.730469 1925.710938 1080.859375 1922.238281 1080.859375 M 1906.757812 1113.957031 L 1906.757812 1207.644531 L 1845.902344 1207.644531 Z M 1906.757812 1113.957031 " fill-opacity="1" fill-rule="nonzero"/><path fill="#000000" d="M 2004.714844 1237.003906 L 2000.179688 1237.539062 C 2012.992188 1224.992188 2022.867188 1215.917969 2029.539062 1209.78125 L 2055.164062 1186.023438 C 2061.300781 1180.417969 2067.707031 1173.480469 2073.847656 1165.738281 C 2082.121094 1155.597656 2086.125 1149.457031 2086.125 1147.320312 C 2086.125 1144.921875 2084.789062 1143.585938 2082.121094 1143.585938 C 2080.253906 1143.585938 2078.652344 1144.652344 2077.316406 1147.054688 C 2070.644531 1158 2064.503906 1163.335938 2058.632812 1163.335938 C 2052.761719 1163.335938 2048.488281 1158.53125 2046.085938 1155.328125 C 2039.683594 1147.589844 2033.277344 1143.585938 2027.136719 1143.585938 C 2020.195312 1143.585938 2012.992188 1146.789062 2005.515625 1153.726562 C 1998.042969 1160.667969 1994.304688 1167.609375 1994.304688 1174.546875 C 1994.304688 1177.214844 1995.640625 1178.550781 1998.578125 1178.550781 C 2000.445312 1178.550781 2002.046875 1177.214844 2003.113281 1174.8125 C 2006.050781 1167.074219 2013.257812 1163.335938 2024.199219 1163.335938 C 2027.9375 1163.335938 2033.277344 1164.671875 2040.484375 1167.074219 C 2046.886719 1169.476562 2053.027344 1170.8125 2058.632812 1171.078125 C 2043.683594 1185.757812 2032.207031 1196.433594 2023.933594 1203.640625 L 2000.179688 1225.792969 C 1996.175781 1229.796875 1991.101562 1235.136719 1985.5 1241.808594 C 1977.222656 1252.21875 1972.953125 1258.359375 1972.953125 1260.761719 C 1972.953125 1263.164062 1974.289062 1264.496094 1977.222656 1264.496094 C 1978.824219 1264.496094 1980.425781 1263.164062 1982.296875 1260.492188 C 1988.96875 1250.082031 1996.175781 1244.746094 2003.648438 1244.746094 C 2007.917969 1244.746094 2012.722656 1247.949219 2018.0625 1254.621094 C 2023.398438 1261.292969 2029.539062 1264.496094 2035.679688 1264.496094 C 2044.753906 1264.496094 2053.828125 1259.691406 2063.4375 1250.351562 C 2073.046875 1241.007812 2077.851562 1231.933594 2077.851562 1223.125 C 2077.851562 1220.722656 2076.515625 1219.390625 2073.578125 1219.390625 C 2071.710938 1219.390625 2070.109375 1220.722656 2068.773438 1223.390625 C 2064.773438 1234.871094 2053.292969 1244.746094 2038.347656 1244.746094 C 2031.941406 1244.746094 2011.121094 1237.003906 2004.714844 1237.003906 Z M 2004.714844 1237.003906 " fill-opacity="1" fill-rule="nonzero"/><path fill="#000000" d="M 2331.738281 1189.496094 L 2166.785156 1189.496094 C 2162.515625 1189.496094 2160.378906 1191.363281 2160.378906 1194.832031 C 2160.378906 1198.300781 2162.515625 1200.171875 2166.785156 1200.171875 L 2331.738281 1200.171875 C 2336.007812 1200.171875 2338.144531 1198.300781 2338.144531 1194.832031 C 2338.144531 1191.628906 2334.941406 1189.496094 2331.738281 1189.496094 Z M 2331.738281 1189.496094 " fill-opacity="1" fill-rule="nonzero"/><path fill="#000000" d="M 2506.621094 1080.859375 C 2504.21875 1080.859375 2502.082031 1082.195312 2500.480469 1084.597656 L 2419.875 1208.445312 L 2419.875 1218.054688 L 2489.539062 1218.054688 L 2489.539062 1239.941406 C 2489.539062 1244.746094 2488.46875 1247.949219 2486.601562 1249.28125 C 2484.734375 1250.617188 2479.660156 1251.152344 2470.855469 1251.152344 L 2464.179688 1251.152344 L 2464.179688 1261.5625 C 2471.921875 1261.027344 2484.199219 1260.761719 2500.75 1260.761719 C 2517.296875 1260.761719 2529.574219 1261.027344 2537.316406 1261.5625 L 2537.316406 1251.152344 L 2530.640625 1251.152344 C 2521.835938 1251.152344 2516.761719 1250.617188 2514.894531 1249.28125 C 2513.027344 1247.949219 2511.957031 1244.746094 2511.957031 1239.941406 L 2511.957031 1218.054688 L 2538.117188 1218.054688 L 2538.117188 1207.644531 L 2511.957031 1207.644531 L 2511.957031 1085.398438 C 2511.957031 1082.730469 2510.089844 1080.859375 2506.621094 1080.859375 M 2491.140625 1113.957031 L 2491.140625 1207.644531 L 2430.28125 1207.644531 Z M 2491.140625 1113.957031 " fill-opacity="1" fill-rule="nonzero"/><path fill="#000000" d="M 2686.519531 1162.003906 C 2686.519531 1149.722656 2674.507812 1143.585938 2661.164062 1143.585938 C 2649.6875 1143.585938 2640.609375 1149.722656 2633.671875 1162.003906 C 2628.066406 1149.722656 2618.722656 1143.585938 2605.113281 1143.585938 C 2592.03125 1143.585938 2581.355469 1149.722656 2572.816406 1161.734375 C 2565.609375 1172.144531 2561.871094 1179.886719 2561.871094 1184.957031 C 2561.871094 1187.359375 2563.207031 1188.695312 2565.875 1188.695312 C 2568.277344 1188.695312 2569.878906 1187.359375 2570.414062 1184.957031 C 2575.484375 1169.476562 2586.695312 1151.324219 2604.578125 1151.324219 C 2613.386719 1151.324219 2617.65625 1156.929688 2617.65625 1167.875 C 2617.65625 1173.480469 2612.851562 1194.300781 2603.511719 1230.066406 C 2598.972656 1247.949219 2590.964844 1256.757812 2579.488281 1256.757812 C 2575.75 1256.757812 2572.28125 1255.957031 2569.34375 1254.621094 C 2576.285156 1251.953125 2579.753906 1247.148438 2579.753906 1240.207031 C 2579.753906 1233.269531 2576.285156 1229.796875 2569.078125 1229.796875 C 2560.269531 1229.796875 2553.597656 1237.273438 2553.597656 1246.082031 C 2553.597656 1258.359375 2566.140625 1264.496094 2579.222656 1264.496094 C 2590.429688 1264.496094 2599.507812 1258.359375 2606.714844 1246.082031 C 2611.785156 1258.359375 2621.394531 1264.496094 2635.273438 1264.496094 C 2648.085938 1264.496094 2658.761719 1258.359375 2667.300781 1246.347656 C 2674.507812 1235.9375 2678.246094 1228.195312 2678.246094 1223.125 C 2678.246094 1220.722656 2676.910156 1219.390625 2674.242188 1219.390625 C 2671.839844 1219.390625 2670.503906 1220.722656 2669.703125 1223.125 C 2665.167969 1238.339844 2653.15625 1256.757812 2635.804688 1256.757812 C 2627 1256.757812 2622.460938 1251.417969 2622.460938 1240.476562 C 2622.460938 1237.003906 2623.796875 1229.53125 2626.730469 1217.519531 L 2635.804688 1181.488281 C 2640.878906 1161.46875 2649.152344 1151.324219 2660.898438 1151.324219 C 2664.632812 1151.324219 2668.101562 1152.125 2671.039062 1153.460938 C 2663.832031 1155.863281 2660.363281 1160.667969 2660.363281 1167.875 C 2660.363281 1174.8125 2664.097656 1178.285156 2671.304688 1178.285156 C 2679.847656 1178.285156 2686.519531 1170.542969 2686.519531 1162.003906 Z M 2686.519531 1162.003906 " fill-opacity="1" fill-rule="nonzero"/><path fill="#000000" d="M 2944.171875 1189.496094 L 2779.21875 1189.496094 C 2774.949219 1189.496094 2772.8125 1191.363281 2772.8125 1194.832031 C 2772.8125 1198.300781 2774.949219 1200.171875 2779.21875 1200.171875 L 2944.171875 1200.171875 C 2948.441406 1200.171875 2950.578125 1198.300781 2950.578125 1194.832031 C 2950.578125 1191.628906 2947.375 1189.496094 2944.171875 1189.496094 Z M 2944.171875 1189.496094 " fill-opacity="1" fill-rule="nonzero"/><path fill="#000000" d="M 3068.074219 1237.003906 L 3063.535156 1237.539062 C 3076.347656 1224.992188 3086.222656 1215.917969 3092.894531 1209.78125 L 3118.519531 1186.023438 C 3124.660156 1180.417969 3131.066406 1173.480469 3137.203125 1165.738281 C 3145.476562 1155.597656 3149.480469 1149.457031 3149.480469 1147.320312 C 3149.480469 1144.921875 3148.148438 1143.585938 3145.476562 1143.585938 C 3143.609375 1143.585938 3142.007812 1144.652344 3140.671875 1147.054688 C 3134 1158 3127.863281 1163.335938 3121.988281 1163.335938 C 3116.117188 1163.335938 3111.847656 1158.53125 3109.445312 1155.328125 C 3103.039062 1147.589844 3096.632812 1143.585938 3090.492188 1143.585938 C 3083.554688 1143.585938 3076.347656 1146.789062 3068.875 1153.726562 C 3061.398438 1160.667969 3057.664062 1167.609375 3057.664062 1174.546875 C 3057.664062 1177.214844 3058.996094 1178.550781 3061.933594 1178.550781 C 3063.800781 1178.550781 3065.402344 1177.214844 3066.472656 1174.8125 C 3069.40625 1167.074219 3076.613281 1163.335938 3087.558594 1163.335938 C 3091.292969 1163.335938 3096.632812 1164.671875 3103.839844 1167.074219 C 3110.246094 1169.476562 3116.382812 1170.8125 3121.988281 1171.078125 C 3107.042969 1185.757812 3095.566406 1196.433594 3087.289062 1203.640625 L 3063.535156 1225.792969 C 3059.53125 1229.796875 3054.460938 1235.136719 3048.855469 1241.808594 C 3040.582031 1252.21875 3036.308594 1258.359375 3036.308594 1260.761719 C 3036.308594 1263.164062 3037.644531 1264.496094 3040.582031 1264.496094 C 3042.183594 1264.496094 3043.785156 1263.164062 3045.652344 1260.492188 C 3052.324219 1250.082031 3059.53125 1244.746094 3067.003906 1244.746094 C 3071.277344 1244.746094 3076.082031 1247.949219 3081.417969 1254.621094 C 3086.757812 1261.292969 3092.894531 1264.496094 3099.035156 1264.496094 C 3108.109375 1264.496094 3117.183594 1259.691406 3126.792969 1250.351562 C 3136.402344 1241.007812 3141.207031 1231.933594 3141.207031 1223.125 C 3141.207031 1220.722656 3139.871094 1219.390625 3136.9375 1219.390625 C 3135.066406 1219.390625 3133.464844 1220.722656 3132.132812 1223.390625 C 3128.128906 1234.871094 3116.652344 1244.746094 3101.703125 1244.746094 C 3095.296875 1244.746094 3074.480469 1237.003906 3068.074219 1237.003906 Z M 3068.074219 1237.003906 " fill-opacity="1" fill-rule="nonzero"/><path fill="#000000" d="M 3216.386719 1025.648438 C 3206.761719 1025.648438 3198.648438 1029.042969 3191.664062 1035.835938 C 3184.683594 1042.628906 3181.097656 1050.554688 3181.097656 1060.179688 C 3181.097656 1066.597656 3185.816406 1071.3125 3191.664062 1071.3125 C 3197.328125 1071.3125 3202.042969 1066.40625 3202.042969 1060.746094 C 3202.042969 1054.519531 3197.515625 1050.179688 3191.476562 1050.179688 C 3190.910156 1050.179688 3190.53125 1050.179688 3190.15625 1050.367188 C 3193.742188 1041.121094 3202.042969 1033.007812 3213.933594 1033.007812 C 3229.40625 1033.007812 3238.085938 1046.40625 3238.085938 1062.632812 C 3238.085938 1075.277344 3231.671875 1088.863281 3218.839844 1103.207031 L 3183.363281 1143.210938 C 3180.910156 1146.042969 3181.097656 1145.851562 3181.097656 1151.324219 L 3251.109375 1151.324219 L 3256.582031 1117.359375 L 3250.351562 1117.359375 C 3248.84375 1126.984375 3247.523438 1132.457031 3246.390625 1134.152344 C 3245.445312 1135.097656 3239.785156 1135.472656 3229.40625 1135.472656 L 3197.890625 1135.472656 L 3216.195312 1117.546875 C 3229.027344 1105.46875 3245.257812 1092.449219 3250.730469 1082.449219 C 3254.503906 1075.84375 3256.390625 1069.238281 3256.390625 1062.632812 C 3256.390625 1040.367188 3239.03125 1025.648438 3216.386719 1025.648438 Z M 3216.386719 1025.648438 " fill-opacity="1" fill-rule="nonzero"/><path fill="#000000" d="M 428.859375 1544.222656 L 413.109375 1609.082031 C 407.503906 1599.207031 399.765625 1594.136719 389.355469 1594.136719 C 372.007812 1594.136719 356.792969 1602.945312 343.445312 1620.828125 C 331.167969 1637.375 325.03125 1654.726562 325.03125 1672.609375 C 325.03125 1696.097656 338.640625 1715.847656 361.0625 1715.847656 C 372.539062 1715.847656 383.75 1709.707031 394.425781 1697.164062 C 397.363281 1707.308594 406.4375 1715.847656 418.984375 1715.847656 C 437.398438 1715.847656 443.273438 1693.960938 447.277344 1674.210938 C 447.277344 1671.808594 445.941406 1670.472656 443.273438 1670.472656 C 440.871094 1670.472656 439.269531 1672.339844 438.46875 1676.078125 C 433.128906 1697.164062 426.722656 1707.839844 419.515625 1707.839844 C 414.980469 1707.839844 412.578125 1704.105469 412.578125 1696.898438 C 412.578125 1692.894531 413.109375 1688.621094 414.179688 1684.351562 L 452.082031 1531.675781 L 452.082031 1530.609375 C 451.28125 1528.742188 449.679688 1527.675781 447.542969 1527.675781 C 441.402344 1527.675781 430.195312 1528.742188 414.179688 1530.609375 C 411.242188 1530.875 409.640625 1533.011719 409.640625 1536.75 C 409.640625 1539.417969 412.042969 1540.753906 416.847656 1540.753906 C 421.917969 1540.753906 428.859375 1540.484375 428.859375 1544.222656 M 405.371094 1612.550781 C 408.039062 1618.15625 409.375 1621.894531 409.375 1624.296875 C 409.105469 1625.363281 408.839844 1626.699219 408.574219 1628.566406 L 395.496094 1680.347656 C 394.695312 1683.285156 392.824219 1686.488281 390.421875 1689.691406 C 380.546875 1701.703125 370.9375 1707.839844 361.597656 1707.839844 C 351.1875 1707.839844 345.847656 1699.832031 345.847656 1684.085938 C 345.847656 1677.679688 347.449219 1668.070312 350.652344 1655.257812 C 356.257812 1632.570312 364.265625 1617.089844 374.140625 1608.816406 C 379.480469 1604.277344 384.550781 1602.144531 389.621094 1602.144531 C 396.828125 1602.144531 402.167969 1605.613281 405.371094 1612.550781 Z M 405.371094 1612.550781 " fill-opacity="1" fill-rule="nonzero"/><path fill="#000000" d="M 496.386719 1688.355469 L 491.851562 1688.890625 C 504.664062 1676.34375 514.539062 1667.269531 521.210938 1661.128906 L 546.835938 1637.375 C 552.972656 1631.769531 559.378906 1624.832031 565.519531 1617.089844 C 573.792969 1606.949219 577.796875 1600.808594 577.796875 1598.671875 C 577.796875 1596.269531 576.460938 1594.9375 573.792969 1594.9375 C 571.925781 1594.9375 570.324219 1596.003906 568.988281 1598.40625 C 562.316406 1609.347656 556.175781 1614.6875 550.304688 1614.6875 C 544.433594 1614.6875 540.160156 1609.882812 537.757812 1606.679688 C 531.355469 1598.941406 524.949219 1594.9375 518.808594 1594.9375 C 511.867188 1594.9375 504.664062 1598.140625 497.1875 1605.078125 C 489.714844 1612.019531 485.976562 1618.957031 485.976562 1625.898438 C 485.976562 1628.566406 487.3125 1629.902344 490.25 1629.902344 C 492.117188 1629.902344 493.71875 1628.566406 494.785156 1626.164062 C 497.722656 1618.425781 504.929688 1614.6875 515.871094 1614.6875 C 519.609375 1614.6875 524.949219 1616.023438 532.15625 1618.425781 C 538.558594 1620.828125 544.699219 1622.160156 550.304688 1622.429688 C 535.355469 1637.109375 523.878906 1647.785156 515.605469 1654.992188 L 491.851562 1677.144531 C 487.847656 1681.148438 482.777344 1686.488281 477.171875 1693.160156 C 468.894531 1703.570312 464.625 1709.707031 464.625 1712.109375 C 464.625 1714.511719 465.960938 1715.847656 468.894531 1715.847656 C 470.496094 1715.847656 472.097656 1714.511719 473.96875 1711.84375 C 480.640625 1701.433594 487.847656 1696.097656 495.320312 1696.097656 C 499.589844 1696.097656 504.394531 1699.300781 509.734375 1705.972656 C 515.070312 1712.644531 521.210938 1715.847656 527.351562 1715.847656 C 536.425781 1715.847656 545.5 1711.042969 555.109375 1701.703125 C 564.71875 1692.359375 569.523438 1683.285156 569.523438 1674.476562 C 569.523438 1672.074219 568.1875 1670.738281 565.25 1670.738281 C 563.382812 1670.738281 561.78125 1672.074219 560.445312 1674.742188 C 556.445312 1686.21875 544.964844 1696.097656 530.019531 1696.097656 C 523.613281 1696.097656 502.792969 1688.355469 496.386719 1688.355469 Z M 496.386719 1688.355469 " fill-opacity="1" fill-rule="nonzero"/><path fill="#000000" d="M 443.003906 1907.757812 L 427.257812 1972.617188 C 421.652344 1962.742188 413.910156 1957.671875 403.503906 1957.671875 C 386.152344 1957.671875 370.9375 1966.480469 357.59375 1984.363281 C 345.316406 2000.910156 339.175781 2018.261719 339.175781 2036.144531 C 339.175781 2059.632812 352.789062 2079.382812 375.210938 2079.382812 C 386.6875 2079.382812 397.898438 2073.246094 408.574219 2060.699219 C 411.507812 2070.84375 420.585938 2079.382812 433.128906 2079.382812 C 451.546875 2079.382812 457.417969 2057.496094 461.421875 2037.746094 C 461.421875 2035.34375 460.085938 2034.007812 457.417969 2034.007812 C 455.015625 2034.007812 453.414062 2035.878906 452.613281 2039.613281 C 447.277344 2060.699219 440.871094 2071.375 433.664062 2071.375 C 429.125 2071.375 426.722656 2067.640625 426.722656 2060.433594 C 426.722656 2056.429688 427.257812 2052.160156 428.324219 2047.886719 L 466.226562 1895.214844 L 466.226562 1894.144531 C 465.425781 1892.277344 463.824219 1891.210938 461.6875 1891.210938 C 455.550781 1891.210938 444.339844 1892.277344 428.324219 1894.144531 C 425.390625 1894.414062 423.789062 1896.546875 423.789062 1900.285156 C 423.789062 1902.953125 426.191406 1904.289062 430.996094 1904.289062 C 436.066406 1904.289062 443.003906 1904.023438 443.003906 1907.757812 M 419.515625 1976.089844 C 422.1875 1981.695312 423.519531 1985.429688 423.519531 1987.832031 C 423.253906 1988.902344 422.988281 1990.234375 422.71875 1992.101562 L 409.640625 2043.882812 C 408.839844 2046.820312 406.972656 2050.023438 404.570312 2053.226562 C 394.695312 2065.238281 385.085938 2071.375 375.742188 2071.375 C 365.332031 2071.375 359.996094 2063.371094 359.996094 2047.621094 C 359.996094 2041.214844 361.597656 2031.605469 364.800781 2018.792969 C 370.40625 1996.105469 378.414062 1980.625 388.289062 1972.351562 C 393.625 1967.8125 398.699219 1965.679688 403.769531 1965.679688 C 410.976562 1965.679688 416.3125 1969.148438 419.515625 1976.089844 Z M 419.515625 1976.089844 " fill-opacity="1" fill-rule="nonzero"/><path fill="#000000" d="M 555.375 1964.613281 C 555.375 1962.210938 552.707031 1960.875 547.101562 1960.875 L 525.480469 1960.875 C 532.421875 1933.117188 535.890625 1918.703125 535.890625 1917.632812 C 535.890625 1912.03125 532.957031 1909.359375 527.351562 1909.359375 C 521.210938 1909.359375 517.472656 1912.832031 515.871094 1919.769531 L 505.996094 1960.875 L 482.242188 1960.875 C 476.371094 1960.875 473.433594 1961.140625 473.433594 1966.746094 C 473.433594 1969.683594 476.101562 1971.015625 481.707031 1971.015625 L 503.328125 1971.015625 C 490.25 2023.066406 483.84375 2050.558594 483.84375 2054.027344 C 483.84375 2068.972656 493.984375 2079.382812 508.933594 2079.382812 C 519.074219 2079.382812 527.882812 2074.847656 535.625 2065.503906 C 542.03125 2057.765625 546.566406 2050.289062 549.503906 2043.082031 C 550.570312 2040.148438 551.105469 2038.546875 551.105469 2037.746094 C 551.105469 2035.34375 549.769531 2034.007812 547.101562 2034.007812 C 544.964844 2034.007812 543.363281 2035.34375 542.296875 2038.28125 C 533.222656 2060.433594 522.277344 2071.375 509.199219 2071.375 C 504.664062 2071.375 502.261719 2067.640625 502.261719 2060.433594 C 502.261719 2056.429688 502.792969 2052.160156 503.863281 2047.886719 L 522.8125 1971.015625 L 546.566406 1971.015625 C 553.507812 1971.015625 555.375 1970.484375 555.375 1964.613281 Z M 555.375 1964.613281 " fill-opacity="1" fill-rule="nonzero"/><path fill="#000000" d="M 287.660156 1834.625 L 604.488281 1834.625 L 604.488281 1818.609375 L 287.660156 1818.609375 Z M 287.660156 1834.625 " fill-opacity="1" fill-rule="nonzero"/><path fill="#000000" d="M 896.972656 1795.386719 L 732.019531 1795.386719 C 727.75 1795.386719 725.613281 1797.523438 725.613281 1801.527344 C 725.613281 1805.53125 727.75 1807.667969 732.019531 1807.667969 L 896.972656 1807.667969 C 901.242188 1807.667969 903.378906 1805.53125 903.378906 1801.527344 C 903.378906 1798.324219 900.441406 1795.386719 896.972656 1795.386719 M 896.972656 1845.566406 L 732.019531 1845.566406 C 727.75 1845.566406 725.613281 1847.703125 725.613281 1851.707031 C 725.613281 1855.710938 727.75 1857.847656 732.019531 1857.847656 L 896.972656 1857.847656 C 901.242188 1857.847656 903.378906 1855.710938 903.378906 1851.707031 C 903.378906 1848.238281 900.441406 1845.566406 896.972656 1845.566406 Z M 896.972656 1845.566406 " fill-opacity="1" fill-rule="nonzero"/><path fill="#000000" d="M 1178.777344 1821.277344 L 1013.828125 1821.277344 C 1009.554688 1821.277344 1007.421875 1823.148438 1007.421875 1826.617188 C 1007.421875 1830.085938 1009.554688 1831.957031 1013.828125 1831.957031 L 1178.777344 1831.957031 C 1183.050781 1831.957031 1185.183594 1830.085938 1185.183594 1826.617188 C 1185.183594 1823.414062 1181.980469 1821.277344 1178.777344 1821.277344 Z M 1178.777344 1821.277344 " fill-opacity="1" fill-rule="nonzero"/><path fill="#000000" d="M 1282.875 1775.371094 C 1264.457031 1775.371094 1247.910156 1783.378906 1233.230469 1799.125 C 1218.550781 1814.871094 1211.074219 1832.222656 1211.074219 1850.90625 C 1211.074219 1877.0625 1228.691406 1896.28125 1254.847656 1896.28125 C 1273.265625 1896.28125 1291.417969 1889.074219 1309.566406 1874.929688 C 1313.570312 1889.074219 1321.84375 1896.28125 1334.121094 1896.28125 C 1343.730469 1896.28125 1357.34375 1886.140625 1357.34375 1876.53125 C 1357.34375 1874.128906 1356.007812 1873.058594 1353.074219 1873.058594 C 1351.207031 1873.058594 1349.605469 1874.128906 1348.804688 1876.261719 C 1346.667969 1881.867188 1341.0625 1888.539062 1334.921875 1888.539062 C 1330.386719 1888.539062 1327.984375 1880 1327.984375 1862.648438 C 1327.984375 1858.914062 1328.785156 1855.976562 1330.386719 1854.109375 C 1337.59375 1845.300781 1344 1835.160156 1349.070312 1823.949219 C 1355.742188 1809.535156 1359.746094 1798.859375 1360.8125 1791.917969 L 1360.8125 1790.851562 C 1360.011719 1788.980469 1358.410156 1788.179688 1356.542969 1788.179688 C 1355.207031 1788.449219 1353.605469 1790.582031 1351.738281 1794.320312 C 1346.132812 1813.539062 1338.394531 1830.085938 1327.984375 1843.699219 L 1327.984375 1830.355469 C 1327.984375 1799.390625 1312.503906 1775.371094 1282.875 1775.371094 M 1307.699219 1837.027344 C 1307.699219 1852.773438 1307.964844 1862.382812 1308.230469 1865.851562 C 1290.882812 1881.066406 1273.265625 1888.539062 1255.382812 1888.539062 C 1240.167969 1888.539062 1232.695312 1879.199219 1232.695312 1860.78125 C 1232.695312 1845.300781 1241.503906 1816.472656 1247.644531 1806.867188 C 1257.785156 1791.117188 1269.53125 1783.109375 1282.609375 1783.109375 C 1290.882812 1783.109375 1296.488281 1786.3125 1299.957031 1792.71875 C 1301.824219 1795.921875 1303.160156 1799.125 1304.496094 1802.0625 C 1306.628906 1808.199219 1307.699219 1824.480469 1307.699219 1837.027344 Z M 1307.699219 1837.027344 " fill-opacity="1" fill-rule="nonzero"/><path fill="#000000" d="M 1414.195312 1868.789062 L 1409.660156 1869.324219 C 1422.472656 1856.777344 1432.347656 1847.703125 1439.019531 1841.5625 L 1464.644531 1817.808594 C 1470.78125 1812.203125 1477.1875 1805.265625 1483.328125 1797.523438 C 1491.601562 1787.378906 1495.605469 1781.242188 1495.605469 1779.105469 C 1495.605469 1776.703125 1494.269531 1775.371094 1491.601562 1775.371094 C 1489.734375 1775.371094 1488.132812 1776.4375 1486.796875 1778.839844 C 1480.125 1789.78125 1473.984375 1795.121094 1468.113281 1795.121094 C 1462.242188 1795.121094 1457.96875 1790.316406 1455.566406 1787.113281 C 1449.164062 1779.375 1442.757812 1775.371094 1436.617188 1775.371094 C 1429.675781 1775.371094 1422.472656 1778.574219 1414.996094 1785.511719 C 1407.523438 1792.453125 1403.785156 1799.390625 1403.785156 1806.332031 C 1403.785156 1809 1405.121094 1810.335938 1408.058594 1810.335938 C 1409.925781 1810.335938 1411.527344 1809 1412.59375 1806.597656 C 1415.53125 1798.859375 1422.738281 1795.121094 1433.679688 1795.121094 C 1437.417969 1795.121094 1442.757812 1796.457031 1449.964844 1798.859375 C 1456.367188 1801.261719 1462.507812 1802.59375 1468.113281 1802.863281 C 1453.167969 1817.542969 1441.6875 1828.21875 1433.414062 1835.425781 L 1409.660156 1857.578125 C 1405.65625 1861.582031 1400.585938 1866.921875 1394.980469 1873.59375 C 1386.703125 1884.003906 1382.433594 1890.140625 1382.433594 1892.542969 C 1382.433594 1894.945312 1383.769531 1896.28125 1386.703125 1896.28125 C 1388.304688 1896.28125 1389.90625 1894.945312 1391.777344 1892.277344 C 1398.449219 1881.867188 1405.65625 1876.53125 1413.128906 1876.53125 C 1417.398438 1876.53125 1422.203125 1879.734375 1427.542969 1886.40625 C 1432.878906 1893.078125 1439.019531 1896.28125 1445.160156 1896.28125 C 1454.234375 1896.28125 1463.308594 1891.476562 1472.917969 1882.136719 C 1482.527344 1872.792969 1487.332031 1863.71875 1487.332031 1854.910156 C 1487.332031 1852.507812 1485.996094 1851.171875 1483.058594 1851.171875 C 1481.191406 1851.171875 1479.589844 1852.507812 1478.257812 1855.175781 C 1474.253906 1866.652344 1462.773438 1876.53125 1447.828125 1876.53125 C 1441.421875 1876.53125 1420.601562 1868.789062 1414.195312 1868.789062 Z M 1414.195312 1868.789062 " fill-opacity="1" fill-rule="nonzero"/><path fill="#000000" d="M 1741.21875 1821.277344 L 1576.265625 1821.277344 C 1571.996094 1821.277344 1569.859375 1823.148438 1569.859375 1826.617188 C 1569.859375 1830.085938 1571.996094 1831.957031 1576.265625 1831.957031 L 1741.21875 1831.957031 C 1745.488281 1831.957031 1747.625 1830.085938 1747.625 1826.617188 C 1747.625 1823.414062 1744.421875 1821.277344 1741.21875 1821.277344 Z M 1741.21875 1821.277344 " fill-opacity="1" fill-rule="nonzero"/><path fill="#000000" d="M 1916.101562 1712.644531 C 1913.699219 1712.644531 1911.5625 1713.980469 1909.960938 1716.382812 L 1829.355469 1840.230469 L 1829.355469 1849.839844 L 1899.019531 1849.839844 L 1899.019531 1871.726562 C 1899.019531 1876.53125 1897.949219 1879.734375 1896.082031 1881.066406 C 1894.214844 1882.402344 1889.144531 1882.9375 1880.335938 1882.9375 L 1873.660156 1882.9375 L 1873.660156 1893.34375 C 1881.402344 1892.8125 1893.679688 1892.542969 1910.230469 1892.542969 C 1926.777344 1892.542969 1939.054688 1892.8125 1946.796875 1893.34375 L 1946.796875 1882.9375 L 1940.125 1882.9375 C 1931.316406 1882.9375 1926.242188 1882.402344 1924.375 1881.066406 C 1922.507812 1879.734375 1921.4375 1876.53125 1921.4375 1871.726562 L 1921.4375 1849.839844 L 1947.597656 1849.839844 L 1947.597656 1839.429688 L 1921.4375 1839.429688 L 1921.4375 1717.183594 C 1921.4375 1714.511719 1919.570312 1712.644531 1916.101562 1712.644531 M 1900.621094 1745.742188 L 1900.621094 1839.429688 L 1839.761719 1839.429688 Z M 1900.621094 1745.742188 " fill-opacity="1" fill-rule="nonzero"/><path fill="#000000" d="M 2096 1793.785156 C 2096 1781.507812 2083.988281 1775.371094 2070.644531 1775.371094 C 2059.167969 1775.371094 2050.089844 1781.507812 2043.152344 1793.785156 C 2037.546875 1781.507812 2028.203125 1775.371094 2014.59375 1775.371094 C 2001.511719 1775.371094 1990.835938 1781.507812 1982.296875 1793.519531 C 1975.089844 1803.929688 1971.351562 1811.667969 1971.351562 1816.742188 C 1971.351562 1819.144531 1972.6875 1820.476562 1975.355469 1820.476562 C 1977.757812 1820.476562 1979.359375 1819.144531 1979.894531 1816.742188 C 1984.964844 1801.261719 1996.175781 1783.109375 2014.058594 1783.109375 C 2022.867188 1783.109375 2027.136719 1788.714844 2027.136719 1799.660156 C 2027.136719 1805.265625 2022.332031 1826.082031 2012.992188 1861.847656 C 2008.453125 1879.734375 2000.445312 1888.539062 1988.96875 1888.539062 C 1985.230469 1888.539062 1981.761719 1887.738281 1978.824219 1886.40625 C 1985.765625 1883.738281 1989.234375 1878.933594 1989.234375 1871.992188 C 1989.234375 1865.050781 1985.765625 1861.582031 1978.558594 1861.582031 C 1969.75 1861.582031 1963.078125 1869.054688 1963.078125 1877.863281 C 1963.078125 1890.140625 1975.621094 1896.28125 1988.703125 1896.28125 C 1999.910156 1896.28125 2008.988281 1890.140625 2016.195312 1877.863281 C 2021.265625 1890.140625 2030.875 1896.28125 2044.753906 1896.28125 C 2057.566406 1896.28125 2068.242188 1890.140625 2076.78125 1878.132812 C 2083.988281 1867.722656 2087.726562 1859.980469 2087.726562 1854.910156 C 2087.726562 1852.507812 2086.390625 1851.171875 2083.722656 1851.171875 C 2081.320312 1851.171875 2079.984375 1852.507812 2079.183594 1854.910156 C 2074.648438 1870.125 2062.636719 1888.539062 2045.285156 1888.539062 C 2036.480469 1888.539062 2031.941406 1883.203125 2031.941406 1872.257812 C 2031.941406 1868.789062 2033.277344 1861.316406 2036.210938 1849.304688 L 2045.285156 1813.269531 C 2050.359375 1793.253906 2058.632812 1783.109375 2070.375 1783.109375 C 2074.113281 1783.109375 2077.582031 1783.910156 2080.519531 1785.246094 C 2073.3125 1787.648438 2069.84375 1792.453125 2069.84375 1799.660156 C 2069.84375 1806.597656 2073.578125 1810.070312 2080.785156 1810.070312 C 2089.328125 1810.070312 2096 1802.328125 2096 1793.785156 Z M 2096 1793.785156 " fill-opacity="1" fill-rule="nonzero"/><path fill="#000000" d="M 2353.625 1821.277344 L 2188.671875 1821.277344 C 2184.402344 1821.277344 2182.265625 1823.148438 2182.265625 1826.617188 C 2182.265625 1830.085938 2184.402344 1831.957031 2188.671875 1831.957031 L 2353.625 1831.957031 C 2357.894531 1831.957031 2360.03125 1830.085938 2360.03125 1826.617188 C 2360.03125 1823.414062 2356.828125 1821.277344 2353.625 1821.277344 Z M 2353.625 1821.277344 " fill-opacity="1" fill-rule="nonzero"/><path fill="#000000" d="M 2528.507812 1712.644531 C 2526.105469 1712.644531 2523.96875 1713.980469 2522.367188 1716.382812 L 2441.761719 1840.230469 L 2441.761719 1849.839844 L 2511.425781 1849.839844 L 2511.425781 1871.726562 C 2511.425781 1876.53125 2510.355469 1879.734375 2508.488281 1881.066406 C 2506.621094 1882.402344 2501.550781 1882.9375 2492.742188 1882.9375 L 2486.066406 1882.9375 L 2486.066406 1893.34375 C 2493.808594 1892.8125 2506.085938 1892.542969 2522.636719 1892.542969 C 2539.183594 1892.542969 2551.460938 1892.8125 2559.203125 1893.34375 L 2559.203125 1882.9375 L 2552.53125 1882.9375 C 2543.722656 1882.9375 2538.648438 1882.402344 2536.78125 1881.066406 C 2534.914062 1879.734375 2533.847656 1876.53125 2533.847656 1871.726562 L 2533.847656 1849.839844 L 2560.003906 1849.839844 L 2560.003906 1839.429688 L 2533.847656 1839.429688 L 2533.847656 1717.183594 C 2533.847656 1714.511719 2531.976562 1712.644531 2528.507812 1712.644531 M 2513.027344 1745.742188 L 2513.027344 1839.429688 L 2452.171875 1839.429688 Z M 2513.027344 1745.742188 " fill-opacity="1" fill-rule="nonzero"/><path fill="#000000" d="M 2611.25 1775.371094 C 2599.238281 1775.371094 2589.898438 1782.042969 2583.222656 1795.386719 C 2578.152344 1805.796875 2575.484375 1813.003906 2575.484375 1817.007812 C 2575.484375 1819.410156 2576.820312 1820.746094 2579.753906 1820.746094 C 2583.492188 1820.746094 2583.757812 1819.144531 2584.824219 1815.140625 C 2590.964844 1794.054688 2599.507812 1783.378906 2610.449219 1783.378906 C 2613.917969 1783.378906 2615.789062 1785.777344 2615.789062 1790.582031 C 2615.789062 1794.855469 2614.453125 1800.992188 2611.515625 1808.734375 C 2601.375 1836.226562 2596.304688 1854.644531 2596.304688 1864.519531 C 2596.304688 1884.804688 2608.847656 1896.816406 2629.402344 1896.816406 C 2638.207031 1896.816406 2646.484375 1893.613281 2653.957031 1887.207031 C 2644.613281 1922.4375 2629.933594 1940.054688 2609.914062 1940.054688 C 2600.839844 1940.054688 2594.703125 1937.121094 2591.5 1931.246094 C 2602.175781 1930.714844 2607.511719 1925.640625 2607.511719 1916.03125 C 2607.511719 1909.359375 2604.042969 1905.890625 2596.835938 1905.890625 C 2586.960938 1905.890625 2581.089844 1914.164062 2581.089844 1924.039062 C 2581.089844 1938.71875 2594.433594 1948.0625 2609.914062 1948.0625 C 2640.609375 1948.0625 2665.699219 1919.769531 2672.375 1893.613281 L 2697.464844 1792.71875 C 2698.265625 1789.78125 2698.53125 1787.648438 2698.53125 1786.3125 C 2698.53125 1780.976562 2695.59375 1778.304688 2689.988281 1778.304688 C 2685.71875 1778.304688 2682.25 1780.441406 2679.847656 1784.445312 C 2678.246094 1790.050781 2676.910156 1794.855469 2676.109375 1798.859375 L 2659.027344 1867.453125 C 2656.359375 1877.0625 2642.210938 1889.074219 2630.203125 1889.074219 C 2620.058594 1889.074219 2614.988281 1882.402344 2614.988281 1868.789062 C 2614.988281 1857.578125 2619.523438 1840.496094 2628.332031 1817.542969 C 2631.800781 1808.199219 2633.671875 1801.792969 2633.671875 1798.058594 C 2633.671875 1784.976562 2624.328125 1775.371094 2611.25 1775.371094 Z M 2611.25 1775.371094 " fill-opacity="1" fill-rule="nonzero"/><path fill="#000000" d="M 2944.171875 1821.277344 L 2779.21875 1821.277344 C 2774.949219 1821.277344 2772.8125 1823.148438 2772.8125 1826.617188 C 2772.8125 1830.085938 2774.949219 1831.957031 2779.21875 1831.957031 L 2944.171875 1831.957031 C 2948.441406 1831.957031 2950.578125 1830.085938 2950.578125 1826.617188 C 2950.578125 1823.414062 2947.375 1821.277344 2944.171875 1821.277344 Z M 2944.171875 1821.277344 " fill-opacity="1" fill-rule="nonzero"/><path fill="#000000" d="M 3165.496094 1793.785156 C 3165.496094 1781.507812 3153.484375 1775.371094 3140.140625 1775.371094 C 3128.664062 1775.371094 3119.585938 1781.507812 3112.648438 1793.785156 C 3107.042969 1781.507812 3097.699219 1775.371094 3084.085938 1775.371094 C 3071.007812 1775.371094 3060.332031 1781.507812 3051.792969 1793.519531 C 3044.585938 1803.929688 3040.847656 1811.667969 3040.847656 1816.742188 C 3040.847656 1819.144531 3042.183594 1820.476562 3044.851562 1820.476562 C 3047.253906 1820.476562 3048.855469 1819.144531 3049.390625 1816.742188 C 3054.460938 1801.261719 3065.671875 1783.109375 3083.554688 1783.109375 C 3092.363281 1783.109375 3096.632812 1788.714844 3096.632812 1799.660156 C 3096.632812 1805.265625 3091.828125 1826.082031 3082.484375 1861.847656 C 3077.949219 1879.734375 3069.941406 1888.539062 3058.464844 1888.539062 C 3054.726562 1888.539062 3051.257812 1887.738281 3048.320312 1886.40625 C 3055.261719 1883.738281 3058.730469 1878.933594 3058.730469 1871.992188 C 3058.730469 1865.050781 3055.261719 1861.582031 3048.054688 1861.582031 C 3039.246094 1861.582031 3032.574219 1869.054688 3032.574219 1877.863281 C 3032.574219 1890.140625 3045.117188 1896.28125 3058.195312 1896.28125 C 3069.40625 1896.28125 3078.484375 1890.140625 3085.6875 1877.863281 C 3090.761719 1890.140625 3100.371094 1896.28125 3114.25 1896.28125 C 3127.0625 1896.28125 3137.738281 1890.140625 3146.277344 1878.132812 C 3153.484375 1867.722656 3157.222656 1859.980469 3157.222656 1854.910156 C 3157.222656 1852.507812 3155.886719 1851.171875 3153.21875 1851.171875 C 3150.816406 1851.171875 3149.480469 1852.507812 3148.679688 1854.910156 C 3144.144531 1870.125 3132.132812 1888.539062 3114.78125 1888.539062 C 3105.976562 1888.539062 3101.4375 1883.203125 3101.4375 1872.257812 C 3101.4375 1868.789062 3102.773438 1861.316406 3105.707031 1849.304688 L 3114.78125 1813.269531 C 3119.855469 1793.253906 3128.128906 1783.109375 3139.871094 1783.109375 C 3143.609375 1783.109375 3147.078125 1783.910156 3150.015625 1785.246094 C 3142.808594 1787.648438 3139.339844 1792.453125 3139.339844 1799.660156 C 3139.339844 1806.597656 3143.074219 1810.070312 3150.28125 1810.070312 C 3158.824219 1810.070312 3165.496094 1802.328125 3165.496094 1793.785156 Z M 3165.496094 1793.785156 " fill-opacity="1" fill-rule="nonzero"/><path fill="#000000" d="M 3231.039062 1657.429688 C 3221.414062 1657.429688 3213.300781 1660.828125 3206.320312 1667.621094 C 3199.335938 1674.414062 3195.75 1682.339844 3195.75 1691.964844 C 3195.75 1698.378906 3200.46875 1703.097656 3206.320312 1703.097656 C 3211.980469 1703.097656 3216.699219 1698.191406 3216.699219 1692.53125 C 3216.699219 1686.304688 3212.167969 1681.960938 3206.128906 1681.960938 C 3205.5625 1681.960938 3205.1875 1681.960938 3204.808594 1682.152344 C 3208.394531 1672.90625 3216.699219 1664.789062 3228.585938 1664.789062 C 3244.058594 1664.789062 3252.742188 1678.1875 3252.742188 1694.417969 C 3252.742188 1707.0625 3246.324219 1720.648438 3233.492188 1734.988281 L 3198.015625 1774.996094 C 3195.5625 1777.828125 3195.75 1777.636719 3195.75 1783.109375 L 3265.761719 1783.109375 L 3271.234375 1749.144531 L 3265.007812 1749.144531 C 3263.496094 1758.765625 3262.175781 1764.238281 3261.042969 1765.9375 C 3260.101562 1766.882812 3254.4375 1767.257812 3244.058594 1767.257812 L 3212.546875 1767.257812 L 3230.851562 1749.332031 C 3243.683594 1737.253906 3259.910156 1724.234375 3265.382812 1714.230469 C 3269.15625 1707.628906 3271.046875 1701.023438 3271.046875 1694.417969 C 3271.046875 1672.148438 3253.683594 1657.429688 3231.039062 1657.429688 Z M 3231.039062 1657.429688 " fill-opacity="1" fill-rule="nonzero"/></svg>