<svg xmlns="http://www.w3.org/2000/svg" xmlns:xlink="http://www.w3.org/1999/xlink" width="3547" zoomAndPan="magnify" viewBox="0 0 2660.25 2343.74993" height="3125" preserveAspectRatio="xMidYMid meet" version="1.0"><path fill="#000000" d="M 401.441406 280.726562 L 385.695312 345.582031 C 380.089844 335.707031 372.347656 330.632812 361.941406 330.632812 C 344.59375 330.632812 329.378906 339.441406 316.035156 357.324219 C 303.757812 373.871094 297.617188 391.21875 297.617188 409.101562 C 297.617188 432.585938 311.230469 452.339844 333.648438 452.339844 C 345.125 452.339844 356.335938 446.199219 367.011719 433.65625 C 369.945312 443.796875 379.023438 452.339844 391.566406 452.339844 C 409.980469 452.339844 415.851562 430.453125 419.855469 410.703125 C 419.855469 408.300781 418.523438 406.964844 415.851562 406.964844 C 413.449219 406.964844 411.847656 408.835938 411.046875 412.570312 C 405.710938 433.65625 399.304688 444.332031 392.097656 444.332031 C 387.5625 444.332031 385.160156 440.59375 385.160156 433.386719 C 385.160156 429.386719 385.695312 425.113281 386.761719 420.84375 L 424.660156 268.179688 L 424.660156 267.113281 C 423.859375 265.246094 422.257812 264.179688 420.125 264.179688 C 413.984375 264.179688 402.773438 265.246094 386.761719 267.113281 C 383.824219 267.378906 382.222656 269.515625 382.222656 273.253906 C 382.222656 275.921875 384.625 277.253906 389.429688 277.253906 C 394.5 277.253906 401.441406 276.988281 401.441406 280.726562 M 377.953125 349.050781 C 380.621094 354.65625 381.957031 358.390625 381.957031 360.792969 C 381.691406 361.859375 381.421875 363.195312 381.15625 365.0625 L 368.078125 416.839844 C 367.277344 419.777344 365.410156 422.980469 363.007812 426.183594 C 353.132812 438.191406 343.523438 444.332031 334.183594 444.332031 C 323.773438 444.332031 318.4375 436.324219 318.4375 420.578125 C 318.4375 414.171875 320.039062 404.5625 323.242188 391.753906 C 328.84375 369.066406 336.851562 353.585938 346.726562 345.3125 C 352.066406 340.777344 357.136719 338.640625 362.207031 338.640625 C 369.414062 338.640625 374.75 342.109375 377.953125 349.050781 Z M 377.953125 349.050781 " fill-opacity="1" fill-rule="nonzero"/><path fill="#000000" d="M 566.378906 349.851562 C 566.378906 337.574219 554.371094 331.433594 541.027344 331.433594 C 529.550781 331.433594 520.476562 337.574219 513.535156 349.851562 C 507.929688 337.574219 498.589844 331.433594 484.976562 331.433594 C 471.902344 331.433594 461.226562 337.574219 452.683594 349.582031 C 445.476562 359.992188 441.742188 367.734375 441.742188 372.804688 C 441.742188 375.207031 443.074219 376.539062 445.746094 376.539062 C 448.148438 376.539062 449.75 375.207031 450.28125 372.804688 C 455.351562 357.324219 466.5625 339.175781 484.445312 339.175781 C 493.25 339.175781 497.523438 344.78125 497.523438 355.722656 C 497.523438 361.328125 492.71875 382.144531 483.375 417.910156 C 478.839844 435.789062 470.832031 444.597656 459.355469 444.597656 C 455.621094 444.597656 452.148438 443.796875 449.214844 442.460938 C 456.152344 439.792969 459.625 434.988281 459.625 428.050781 C 459.625 421.113281 456.152344 417.640625 448.949219 417.640625 C 440.140625 417.640625 433.46875 425.113281 433.46875 433.921875 C 433.46875 446.199219 446.011719 452.339844 459.089844 452.339844 C 470.300781 452.339844 479.375 446.199219 486.578125 433.921875 C 491.652344 446.199219 501.257812 452.339844 515.136719 452.339844 C 527.949219 452.339844 538.625 446.199219 547.164062 434.1875 C 554.371094 423.78125 558.105469 416.039062 558.105469 410.96875 C 558.105469 408.566406 556.773438 407.234375 554.105469 407.234375 C 551.703125 407.234375 550.367188 408.566406 549.566406 410.96875 C 545.027344 426.183594 533.019531 444.597656 515.671875 444.597656 C 506.863281 444.597656 502.328125 439.261719 502.328125 428.316406 C 502.328125 424.847656 503.660156 417.375 506.597656 405.363281 L 515.671875 369.335938 C 520.742188 349.316406 529.015625 339.175781 540.757812 339.175781 C 544.496094 339.175781 547.964844 339.976562 550.902344 341.308594 C 543.695312 343.710938 540.226562 348.515625 540.226562 355.722656 C 540.226562 362.660156 543.960938 366.132812 551.167969 366.132812 C 559.707031 366.132812 566.378906 358.390625 566.378906 349.851562 Z M 566.378906 349.851562 " fill-opacity="1" fill-rule="nonzero"/><path fill="#000000" d="M 429.597656 644.234375 L 413.851562 709.089844 C 408.246094 699.214844 400.507812 694.144531 390.097656 694.144531 C 372.75 694.144531 357.535156 702.949219 344.191406 720.832031 C 331.914062 737.378906 325.777344 754.726562 325.777344 772.609375 C 325.777344 796.097656 339.386719 815.847656 361.808594 815.847656 C 373.285156 815.847656 384.492188 809.707031 395.167969 797.164062 C 398.105469 807.304688 407.179688 815.847656 419.722656 815.847656 C 438.136719 815.847656 444.011719 793.960938 448.011719 774.210938 C 448.011719 771.808594 446.679688 770.476562 444.011719 770.476562 C 441.609375 770.476562 440.007812 772.34375 439.207031 776.078125 C 433.867188 797.164062 427.460938 807.839844 420.257812 807.839844 C 415.71875 807.839844 413.316406 804.101562 413.316406 796.898438 C 413.316406 792.894531 413.851562 788.625 414.917969 784.351562 L 452.816406 631.691406 L 452.816406 630.621094 C 452.015625 628.753906 450.414062 627.6875 448.28125 627.6875 C 442.140625 627.6875 430.933594 628.753906 414.917969 630.621094 C 411.984375 630.890625 410.382812 633.023438 410.382812 636.761719 C 410.382812 639.429688 412.785156 640.765625 417.585938 640.765625 C 422.660156 640.765625 429.597656 640.496094 429.597656 644.234375 M 406.109375 712.558594 C 408.78125 718.164062 410.113281 721.898438 410.113281 724.300781 C 409.847656 725.371094 409.582031 726.703125 409.3125 728.574219 L 396.234375 780.351562 C 395.433594 783.285156 393.566406 786.488281 391.164062 789.691406 C 381.289062 801.703125 371.683594 807.839844 362.339844 807.839844 C 351.933594 807.839844 346.59375 799.832031 346.59375 784.085938 C 346.59375 777.679688 348.195312 768.074219 351.398438 755.261719 C 357.003906 732.574219 365.007812 717.097656 374.882812 708.824219 C 380.222656 704.285156 385.292969 702.148438 390.363281 702.148438 C 397.570312 702.148438 402.910156 705.621094 406.109375 712.558594 Z M 406.109375 712.558594 " fill-opacity="1" fill-rule="nonzero"/><path fill="#000000" d="M 541.960938 701.082031 C 541.960938 698.679688 539.292969 697.347656 533.6875 697.347656 L 512.066406 697.347656 C 519.007812 669.589844 522.476562 655.175781 522.476562 654.109375 C 522.476562 648.503906 519.539062 645.835938 513.9375 645.835938 C 507.796875 645.835938 504.0625 649.304688 502.460938 656.246094 L 492.585938 697.347656 L 468.832031 697.347656 C 462.960938 697.347656 460.023438 697.613281 460.023438 703.21875 C 460.023438 706.152344 462.691406 707.488281 468.296875 707.488281 L 489.914062 707.488281 C 476.839844 759.53125 470.433594 787.023438 470.433594 790.492188 C 470.433594 805.4375 480.574219 815.847656 495.519531 815.847656 C 505.664062 815.847656 514.46875 811.308594 522.210938 801.96875 C 528.617188 794.226562 533.152344 786.753906 536.089844 779.550781 C 537.15625 776.613281 537.691406 775.011719 537.691406 774.210938 C 537.691406 771.808594 536.355469 770.476562 533.6875 770.476562 C 531.550781 770.476562 529.949219 771.808594 528.882812 774.746094 C 519.808594 796.898438 508.863281 807.839844 495.789062 807.839844 C 491.25 807.839844 488.847656 804.101562 488.847656 796.898438 C 488.847656 792.894531 489.382812 788.625 490.449219 784.351562 L 509.398438 707.488281 L 533.152344 707.488281 C 540.089844 707.488281 541.960938 706.953125 541.960938 701.082031 Z M 541.960938 701.082031 " fill-opacity="1" fill-rule="nonzero"/><path fill="#000000" d="M 260.253906 571.105469 L 605.082031 571.105469 L 605.082031 555.09375 L 260.253906 555.09375 Z M 260.253906 571.105469 " fill-opacity="1" fill-rule="nonzero"/><path fill="#000000" d="M 897.542969 531.871094 L 732.601562 531.871094 C 728.332031 531.871094 726.195312 534.007812 726.195312 538.011719 C 726.195312 542.015625 728.332031 544.148438 732.601562 544.148438 L 897.542969 544.148438 C 901.8125 544.148438 903.949219 542.015625 903.949219 538.011719 C 903.949219 534.808594 901.011719 531.871094 897.542969 531.871094 M 897.542969 582.046875 L 732.601562 582.046875 C 728.332031 582.046875 726.195312 584.183594 726.195312 588.1875 C 726.195312 592.191406 728.332031 594.324219 732.601562 594.324219 L 897.542969 594.324219 C 901.8125 594.324219 903.949219 592.191406 903.949219 588.1875 C 903.949219 584.71875 901.011719 582.046875 897.542969 582.046875 Z M 897.542969 582.046875 " fill-opacity="1" fill-rule="nonzero"/><path fill="#000000" d="M 1133.15625 514.789062 L 1073.105469 514.789062 C 1060.292969 514.789062 1048.285156 518.792969 1037.339844 527.066406 C 1020.257812 540.144531 1003.179688 563.097656 1003.179688 590.320312 C 1003.179688 614.34375 1019.726562 632.757812 1043.746094 632.757812 C 1061.628906 632.757812 1077.640625 625.019531 1091.253906 609.539062 C 1104.332031 594.59375 1110.738281 578.042969 1110.738281 559.628906 C 1110.738281 548.6875 1108.335938 539.613281 1103.53125 532.140625 L 1130.488281 532.140625 C 1139.828125 532.140625 1144.363281 528.9375 1144.363281 522.265625 C 1144.363281 516.125 1139.828125 514.789062 1133.15625 514.789062 M 1021.59375 597.527344 C 1021.59375 581.78125 1025.332031 567.367188 1033.070312 554.558594 C 1042.144531 539.613281 1053.886719 532.140625 1068.566406 532.140625 C 1084.046875 532.140625 1091.789062 540.144531 1091.789062 556.425781 C 1091.789062 563.097656 1090.453125 570.839844 1087.785156 579.914062 C 1082.445312 598.863281 1073.636719 612.207031 1061.363281 619.414062 C 1055.222656 623.148438 1049.351562 625.019531 1044.011719 625.019531 C 1029.335938 625.019531 1021.59375 613.007812 1021.59375 597.527344 Z M 1021.59375 597.527344 " fill-opacity="1" fill-rule="nonzero"/><path fill="#000000" d="M 1230.304688 696.011719 C 1232.707031 696.011719 1234.042969 694.675781 1234.042969 692.273438 C 1234.042969 691.472656 1233.507812 690.40625 1232.707031 689.339844 C 1218.828125 678.664062 1207.617188 661.046875 1199.34375 636.761719 C 1192.140625 615.675781 1188.402344 594.859375 1188.402344 574.308594 L 1188.402344 551.890625 C 1188.402344 531.339844 1192.140625 510.519531 1199.34375 489.4375 C 1207.617188 465.148438 1218.828125 447.535156 1232.707031 436.859375 C 1233.507812 436.058594 1234.042969 434.988281 1234.042969 433.921875 C 1234.042969 431.519531 1232.707031 430.1875 1230.304688 430.1875 C 1230.039062 430.1875 1229.238281 430.453125 1228.4375 430.988281 C 1212.421875 443.261719 1199.078125 461.414062 1188.136719 485.699219 C 1177.726562 508.917969 1172.390625 530.804688 1172.390625 551.890625 L 1172.390625 574.308594 C 1172.390625 595.394531 1177.726562 617.277344 1188.136719 640.496094 C 1199.078125 664.785156 1212.421875 682.933594 1228.4375 695.210938 C 1229.238281 695.746094 1230.039062 696.011719 1230.304688 696.011719 Z M 1230.304688 696.011719 " fill-opacity="1" fill-rule="nonzero"/><path fill="#000000" d="M 1292.757812 511.855469 C 1280.746094 511.855469 1271.40625 518.527344 1264.734375 531.871094 C 1259.664062 542.28125 1256.996094 549.488281 1256.996094 553.492188 C 1256.996094 555.890625 1258.328125 557.226562 1261.265625 557.226562 C 1265 557.226562 1265.269531 555.625 1266.335938 551.621094 C 1272.472656 530.539062 1281.015625 519.863281 1291.957031 519.863281 C 1295.425781 519.863281 1297.296875 522.265625 1297.296875 527.066406 C 1297.296875 531.339844 1295.960938 537.476562 1293.023438 545.21875 C 1282.882812 572.707031 1277.8125 591.121094 1277.8125 600.996094 C 1277.8125 621.28125 1290.355469 633.292969 1310.90625 633.292969 C 1319.714844 633.292969 1327.988281 630.089844 1335.460938 623.683594 C 1326.121094 658.914062 1311.441406 676.527344 1291.421875 676.527344 C 1282.347656 676.527344 1276.210938 673.59375 1273.007812 667.722656 C 1283.683594 667.1875 1289.019531 662.117188 1289.019531 652.507812 C 1289.019531 645.835938 1285.550781 642.367188 1278.34375 642.367188 C 1268.46875 642.367188 1262.597656 650.640625 1262.597656 660.515625 C 1262.597656 675.195312 1275.945312 684.535156 1291.421875 684.535156 C 1322.117188 684.535156 1347.203125 656.246094 1353.875 630.089844 L 1378.964844 529.203125 C 1379.765625 526.265625 1380.03125 524.132812 1380.03125 522.796875 C 1380.03125 517.460938 1377.097656 514.789062 1371.492188 514.789062 C 1367.222656 514.789062 1363.75 516.925781 1361.347656 520.929688 C 1359.75 526.535156 1358.414062 531.339844 1357.613281 535.339844 L 1340.53125 603.933594 C 1337.863281 613.542969 1323.71875 625.550781 1311.707031 625.550781 C 1301.566406 625.550781 1296.496094 618.878906 1296.496094 605.269531 C 1296.496094 594.058594 1301.03125 576.976562 1309.839844 554.023438 C 1313.308594 544.683594 1315.175781 538.277344 1315.175781 534.542969 C 1315.175781 521.464844 1305.835938 511.855469 1292.757812 511.855469 Z M 1292.757812 511.855469 " fill-opacity="1" fill-rule="nonzero"/><path fill="#000000" d="M 1625.628906 557.761719 L 1460.6875 557.761719 C 1456.417969 557.761719 1454.28125 559.628906 1454.28125 563.097656 C 1454.28125 566.566406 1456.417969 568.4375 1460.6875 568.4375 L 1625.628906 568.4375 C 1629.898438 568.4375 1632.03125 566.566406 1632.03125 563.097656 C 1632.03125 559.894531 1628.832031 557.761719 1625.628906 557.761719 Z M 1625.628906 557.761719 " fill-opacity="1" fill-rule="nonzero"/><path fill="#000000" d="M 1846.933594 530.269531 C 1846.933594 517.992188 1834.925781 511.855469 1821.582031 511.855469 C 1810.105469 511.855469 1801.03125 517.992188 1794.089844 530.269531 C 1788.484375 517.992188 1779.144531 511.855469 1765.53125 511.855469 C 1752.453125 511.855469 1741.78125 517.992188 1733.238281 530.003906 C 1726.03125 540.414062 1722.296875 548.152344 1722.296875 553.222656 C 1722.296875 555.625 1723.628906 556.960938 1726.300781 556.960938 C 1728.703125 556.960938 1730.304688 555.625 1730.835938 553.222656 C 1735.90625 537.742188 1747.117188 519.59375 1765 519.59375 C 1773.804688 519.59375 1778.078125 525.199219 1778.078125 536.140625 C 1778.078125 541.746094 1773.273438 562.566406 1763.929688 598.328125 C 1759.394531 616.210938 1751.386719 625.019531 1739.910156 625.019531 C 1736.175781 625.019531 1732.703125 624.21875 1729.769531 622.882812 C 1736.707031 620.214844 1740.179688 615.410156 1740.179688 608.46875 C 1740.179688 601.53125 1736.707031 598.0625 1729.503906 598.0625 C 1720.695312 598.0625 1714.023438 605.535156 1714.023438 614.34375 C 1714.023438 626.621094 1726.566406 632.757812 1739.644531 632.757812 C 1750.855469 632.757812 1759.929688 626.621094 1767.132812 614.34375 C 1772.207031 626.621094 1781.8125 632.757812 1795.691406 632.757812 C 1808.503906 632.757812 1819.179688 626.621094 1827.71875 614.609375 C 1834.925781 604.199219 1838.660156 596.460938 1838.660156 591.390625 C 1838.660156 588.988281 1837.328125 587.652344 1834.660156 587.652344 C 1832.257812 587.652344 1830.921875 588.988281 1830.121094 591.390625 C 1825.582031 606.601562 1813.574219 625.019531 1796.226562 625.019531 C 1787.417969 625.019531 1782.882812 619.679688 1782.882812 608.738281 C 1782.882812 605.269531 1784.214844 597.792969 1787.152344 585.785156 L 1796.226562 549.753906 C 1801.296875 529.738281 1809.570312 519.59375 1821.3125 519.59375 C 1825.050781 519.59375 1828.519531 520.394531 1831.457031 521.730469 C 1824.25 524.132812 1820.78125 528.9375 1820.78125 536.140625 C 1820.78125 543.082031 1824.515625 546.550781 1831.722656 546.550781 C 1840.261719 546.550781 1846.933594 538.8125 1846.933594 530.269531 Z M 1846.933594 530.269531 " fill-opacity="1" fill-rule="nonzero"/><path fill="#000000" d="M 1879.761719 695.210938 C 1895.777344 682.933594 1909.121094 664.785156 1920.0625 640.496094 C 1930.472656 617.277344 1935.8125 595.394531 1935.8125 574.308594 L 1935.8125 551.890625 C 1935.8125 530.804688 1930.472656 508.917969 1920.0625 485.699219 C 1909.121094 461.414062 1895.777344 443.261719 1879.761719 430.988281 C 1878.960938 430.453125 1878.160156 430.1875 1877.894531 430.1875 C 1875.492188 430.1875 1874.160156 431.519531 1874.160156 433.921875 C 1874.160156 434.988281 1874.691406 436.058594 1875.492188 436.859375 C 1889.371094 447.535156 1900.582031 465.148438 1908.855469 489.4375 C 1916.0625 510.519531 1919.796875 531.339844 1919.796875 551.890625 L 1919.796875 574.308594 C 1919.796875 594.859375 1916.0625 615.675781 1908.855469 636.761719 C 1900.582031 661.046875 1889.371094 678.664062 1875.492188 689.339844 C 1874.691406 690.40625 1874.160156 691.472656 1874.160156 692.273438 C 1874.160156 694.675781 1875.492188 696.011719 1877.894531 696.011719 C 1878.160156 696.011719 1878.960938 695.746094 1879.761719 695.210938 Z M 1879.761719 695.210938 " fill-opacity="1" fill-rule="nonzero"/><path fill="#000000" d="M 423.324219 912.460938 L 407.578125 977.316406 C 401.972656 967.441406 394.234375 962.371094 383.824219 962.371094 C 366.476562 962.371094 351.265625 971.179688 337.921875 989.0625 C 325.644531 1005.609375 319.503906 1022.957031 319.503906 1040.839844 C 319.503906 1064.324219 333.117188 1084.074219 355.535156 1084.074219 C 367.011719 1084.074219 378.222656 1077.9375 388.898438 1065.390625 C 391.832031 1075.535156 400.90625 1084.074219 413.449219 1084.074219 C 431.867188 1084.074219 437.738281 1062.191406 441.742188 1042.4375 C 441.742188 1040.039062 440.40625 1038.703125 437.738281 1038.703125 C 435.335938 1038.703125 433.734375 1040.570312 432.933594 1044.308594 C 427.597656 1065.390625 421.191406 1076.066406 413.984375 1076.066406 C 409.449219 1076.066406 407.046875 1072.332031 407.046875 1065.125 C 407.046875 1061.121094 407.578125 1056.851562 408.648438 1052.582031 L 446.546875 899.917969 L 446.546875 898.851562 C 445.746094 896.984375 444.144531 895.914062 442.007812 895.914062 C 435.871094 895.914062 424.660156 896.984375 408.648438 898.851562 C 405.710938 899.117188 404.109375 901.253906 404.109375 904.988281 C 404.109375 907.660156 406.511719 908.992188 411.316406 908.992188 C 416.386719 908.992188 423.324219 908.726562 423.324219 912.460938 M 399.839844 980.785156 C 402.507812 986.390625 403.84375 990.128906 403.84375 992.53125 C 403.574219 993.597656 403.308594 994.933594 403.042969 996.800781 L 389.964844 1048.578125 C 389.164062 1051.515625 387.296875 1054.714844 384.894531 1057.917969 C 375.019531 1069.929688 365.410156 1076.066406 356.070312 1076.066406 C 345.660156 1076.066406 340.320312 1068.0625 340.320312 1052.316406 C 340.320312 1045.910156 341.921875 1036.300781 345.125 1023.488281 C 350.730469 1000.804688 358.738281 985.324219 368.613281 977.050781 C 373.949219 972.511719 379.023438 970.378906 384.09375 970.378906 C 391.296875 970.378906 396.636719 973.847656 399.839844 980.785156 Z M 399.839844 980.785156 " fill-opacity="1" fill-rule="nonzero"/><path fill="#000000" d="M 491.117188 963.171875 C 479.105469 963.171875 469.765625 969.84375 463.09375 983.1875 C 458.023438 993.597656 455.351562 1000.804688 455.351562 1004.808594 C 455.351562 1007.210938 456.6875 1008.542969 459.625 1008.542969 C 463.359375 1008.542969 463.625 1006.941406 464.695312 1002.9375 C 470.832031 981.855469 479.375 971.179688 490.316406 971.179688 C 493.785156 971.179688 495.652344 973.582031 495.652344 978.386719 C 495.652344 982.65625 494.320312 988.792969 491.382812 996.535156 C 481.242188 1024.023438 476.171875 1042.4375 476.171875 1052.316406 C 476.171875 1072.597656 488.714844 1084.609375 509.265625 1084.609375 C 518.074219 1084.609375 526.347656 1081.40625 533.820312 1075 C 524.476562 1110.230469 509.800781 1127.84375 489.78125 1127.84375 C 480.707031 1127.84375 474.570312 1124.910156 471.367188 1119.039062 C 482.042969 1118.503906 487.378906 1113.433594 487.378906 1103.824219 C 487.378906 1097.152344 483.910156 1093.683594 476.703125 1093.683594 C 466.828125 1093.683594 460.957031 1101.957031 460.957031 1111.832031 C 460.957031 1126.511719 474.300781 1135.851562 489.78125 1135.851562 C 520.476562 1135.851562 545.5625 1107.5625 552.234375 1081.40625 L 577.324219 980.519531 C 578.125 977.585938 578.390625 975.449219 578.390625 974.113281 C 578.390625 968.777344 575.457031 966.109375 569.851562 966.109375 C 565.578125 966.109375 562.109375 968.242188 559.707031 972.246094 C 558.105469 977.851562 556.773438 982.65625 555.972656 986.660156 L 538.890625 1055.25 C 536.222656 1064.859375 522.078125 1076.867188 510.066406 1076.867188 C 499.925781 1076.867188 494.851562 1070.195312 494.851562 1056.585938 C 494.851562 1045.375 499.390625 1028.292969 508.199219 1005.339844 C 511.667969 996 513.535156 989.59375 513.535156 985.859375 C 513.535156 972.78125 504.195312 963.171875 491.117188 963.171875 Z M 491.117188 963.171875 " fill-opacity="1" fill-rule="nonzero"/><path fill="#000000" d="M 440.539062 1275.972656 L 424.792969 1340.828125 C 419.1875 1330.953125 411.449219 1325.878906 401.039062 1325.878906 C 383.691406 1325.878906 368.480469 1334.6875 355.132812 1352.570312 C 342.859375 1369.117188 336.71875 1386.464844 336.71875 1404.347656 C 336.71875 1427.832031 350.332031 1447.582031 372.75 1447.582031 C 384.226562 1447.582031 395.433594 1441.445312 406.109375 1428.902344 C 409.046875 1439.042969 418.121094 1447.582031 430.664062 1447.582031 C 449.082031 1447.582031 454.953125 1425.699219 458.957031 1405.949219 C 458.957031 1403.546875 457.621094 1402.210938 454.953125 1402.210938 C 452.550781 1402.210938 450.949219 1404.078125 450.148438 1407.816406 C 444.8125 1428.902344 438.40625 1439.578125 431.199219 1439.578125 C 426.660156 1439.578125 424.261719 1435.839844 424.261719 1428.632812 C 424.261719 1424.628906 424.792969 1420.359375 425.859375 1416.089844 L 463.761719 1263.425781 L 463.761719 1262.359375 C 462.960938 1260.492188 461.359375 1259.421875 459.222656 1259.421875 C 453.085938 1259.421875 441.875 1260.492188 425.859375 1262.359375 C 422.925781 1262.625 421.324219 1264.761719 421.324219 1268.5 C 421.324219 1271.167969 423.726562 1272.5 428.53125 1272.5 C 433.601562 1272.5 440.539062 1272.234375 440.539062 1275.972656 M 417.054688 1344.296875 C 419.722656 1349.902344 421.058594 1353.636719 421.058594 1356.039062 C 420.789062 1357.105469 420.523438 1358.441406 420.257812 1360.308594 L 407.179688 1412.085938 C 406.378906 1415.023438 404.511719 1418.226562 402.109375 1421.429688 C 392.234375 1433.4375 382.625 1439.578125 373.285156 1439.578125 C 362.875 1439.578125 357.535156 1431.570312 357.535156 1415.824219 C 357.535156 1409.417969 359.136719 1399.808594 362.339844 1387 C 367.945312 1364.3125 375.953125 1348.832031 385.828125 1340.558594 C 391.164062 1336.023438 396.234375 1333.886719 401.308594 1333.886719 C 408.511719 1333.886719 413.851562 1337.355469 417.054688 1344.296875 Z M 417.054688 1344.296875 " fill-opacity="1" fill-rule="nonzero"/><path fill="#000000" d="M 552.902344 1332.820312 C 552.902344 1330.417969 550.234375 1329.082031 544.628906 1329.082031 L 523.011719 1329.082031 C 529.949219 1301.324219 533.417969 1286.914062 533.417969 1285.847656 C 533.417969 1280.242188 530.484375 1277.574219 524.878906 1277.574219 C 518.742188 1277.574219 515.003906 1281.042969 513.402344 1287.980469 L 503.527344 1329.082031 L 479.773438 1329.082031 C 473.902344 1329.082031 470.964844 1329.351562 470.964844 1334.953125 C 470.964844 1337.890625 473.636719 1339.226562 479.238281 1339.226562 L 500.859375 1339.226562 C 487.78125 1391.269531 481.375 1418.757812 481.375 1422.230469 C 481.375 1437.175781 491.515625 1447.582031 506.464844 1447.582031 C 516.605469 1447.582031 525.414062 1443.046875 533.152344 1433.707031 C 539.558594 1425.964844 544.09375 1418.492188 547.03125 1411.285156 C 548.097656 1408.351562 548.632812 1406.75 548.632812 1405.949219 C 548.632812 1403.546875 547.296875 1402.210938 544.628906 1402.210938 C 542.492188 1402.210938 540.890625 1403.546875 539.824219 1406.480469 C 530.75 1428.632812 519.808594 1439.578125 506.730469 1439.578125 C 502.191406 1439.578125 499.789062 1435.839844 499.789062 1428.632812 C 499.789062 1424.628906 500.324219 1420.359375 501.390625 1416.089844 L 520.339844 1339.226562 L 544.09375 1339.226562 C 551.035156 1339.226562 552.902344 1338.691406 552.902344 1332.820312 Z M 552.902344 1332.820312 " fill-opacity="1" fill-rule="nonzero"/><path fill="#000000" d="M 282.140625 1202.84375 L 605.082031 1202.84375 L 605.082031 1186.828125 L 282.140625 1186.828125 Z M 282.140625 1202.84375 " fill-opacity="1" fill-rule="nonzero"/><path fill="#000000" d="M 897.542969 1163.609375 L 732.601562 1163.609375 C 728.332031 1163.609375 726.195312 1165.742188 726.195312 1169.746094 C 726.195312 1173.75 728.332031 1175.886719 732.601562 1175.886719 L 897.542969 1175.886719 C 901.8125 1175.886719 903.949219 1173.75 903.949219 1169.746094 C 903.949219 1166.542969 901.011719 1163.609375 897.542969 1163.609375 M 897.542969 1213.785156 L 732.601562 1213.785156 C 728.332031 1213.785156 726.195312 1215.921875 726.195312 1219.921875 C 726.195312 1223.925781 728.332031 1226.0625 732.601562 1226.0625 L 897.542969 1226.0625 C 901.8125 1226.0625 903.949219 1223.925781 903.949219 1219.921875 C 903.949219 1216.453125 901.011719 1213.785156 897.542969 1213.785156 Z M 897.542969 1213.785156 " fill-opacity="1" fill-rule="nonzero"/><path fill="#000000" d="M 1133.691406 1162.007812 C 1133.691406 1149.730469 1121.679688 1143.59375 1108.335938 1143.59375 C 1096.859375 1143.59375 1087.785156 1149.730469 1080.84375 1162.007812 C 1075.238281 1149.730469 1065.898438 1143.59375 1052.285156 1143.59375 C 1039.210938 1143.59375 1028.535156 1149.730469 1019.992188 1161.742188 C 1012.785156 1172.148438 1009.050781 1179.890625 1009.050781 1184.960938 C 1009.050781 1187.363281 1010.382812 1188.695312 1013.054688 1188.695312 C 1015.457031 1188.695312 1017.058594 1187.363281 1017.589844 1184.960938 C 1022.660156 1169.480469 1033.871094 1151.332031 1051.753906 1151.332031 C 1060.5625 1151.332031 1064.832031 1156.9375 1064.832031 1167.878906 C 1064.832031 1173.484375 1060.027344 1194.300781 1050.6875 1230.066406 C 1046.148438 1247.945312 1038.140625 1256.753906 1026.664062 1256.753906 C 1022.929688 1256.753906 1019.460938 1255.953125 1016.523438 1254.621094 C 1023.460938 1251.949219 1026.933594 1247.148438 1026.933594 1240.207031 C 1026.933594 1233.269531 1023.460938 1229.796875 1016.257812 1229.796875 C 1007.449219 1229.796875 1000.777344 1237.273438 1000.777344 1246.078125 C 1000.777344 1258.355469 1013.320312 1264.496094 1026.398438 1264.496094 C 1037.609375 1264.496094 1046.683594 1258.355469 1053.886719 1246.078125 C 1058.960938 1258.355469 1068.566406 1264.496094 1082.445312 1264.496094 C 1095.257812 1264.496094 1105.933594 1258.355469 1114.472656 1246.347656 C 1121.679688 1235.9375 1125.414062 1228.195312 1125.414062 1223.125 C 1125.414062 1220.722656 1124.082031 1219.390625 1121.414062 1219.390625 C 1119.011719 1219.390625 1117.675781 1220.722656 1116.875 1223.125 C 1112.339844 1238.339844 1100.328125 1256.753906 1082.980469 1256.753906 C 1074.171875 1256.753906 1069.636719 1251.417969 1069.636719 1240.472656 C 1069.636719 1237.003906 1070.96875 1229.53125 1073.90625 1217.519531 L 1082.980469 1181.492188 C 1088.050781 1161.472656 1096.324219 1151.332031 1108.066406 1151.332031 C 1111.804688 1151.332031 1115.273438 1152.132812 1118.210938 1153.46875 C 1111.003906 1155.867188 1107.535156 1160.671875 1107.535156 1167.878906 C 1107.535156 1174.820312 1111.269531 1178.289062 1118.476562 1178.289062 C 1127.015625 1178.289062 1133.691406 1170.546875 1133.691406 1162.007812 Z M 1133.691406 1162.007812 " fill-opacity="1" fill-rule="nonzero"/><path fill="#000000" d="M 1230.570312 1327.75 C 1232.972656 1327.75 1234.308594 1326.414062 1234.308594 1324.011719 C 1234.308594 1323.210938 1233.773438 1322.144531 1232.972656 1321.074219 C 1219.09375 1310.398438 1207.886719 1292.785156 1199.613281 1268.496094 C 1192.40625 1247.414062 1188.667969 1226.597656 1188.667969 1206.046875 L 1188.667969 1183.625 C 1188.667969 1163.074219 1192.40625 1142.257812 1199.613281 1121.171875 C 1207.886719 1096.886719 1219.09375 1079.269531 1232.972656 1068.59375 C 1233.773438 1067.792969 1234.308594 1066.726562 1234.308594 1065.660156 C 1234.308594 1063.257812 1232.972656 1061.921875 1230.570312 1061.921875 C 1230.304688 1061.921875 1229.503906 1062.1875 1228.703125 1062.722656 C 1212.691406 1075 1199.34375 1093.148438 1188.402344 1117.4375 C 1177.992188 1140.65625 1172.65625 1162.542969 1172.65625 1183.625 L 1172.65625 1206.046875 C 1172.65625 1227.128906 1177.992188 1249.015625 1188.402344 1272.234375 C 1199.34375 1296.523438 1212.691406 1314.671875 1228.703125 1326.949219 C 1229.503906 1327.480469 1230.304688 1327.75 1230.570312 1327.75 Z M 1230.570312 1327.75 " fill-opacity="1" fill-rule="nonzero"/><path fill="#000000" d="M 1345.871094 1143.59375 C 1315.710938 1143.59375 1290.621094 1176.152344 1283.949219 1202.84375 L 1258.328125 1306.664062 C 1257.792969 1308.800781 1257.527344 1310.132812 1257.527344 1310.933594 C 1257.527344 1316.539062 1260.195312 1319.207031 1265.800781 1319.207031 C 1269.804688 1319.207031 1273.273438 1317.074219 1275.945312 1313.070312 L 1292.222656 1249.28125 C 1298.363281 1259.691406 1306.902344 1265.027344 1317.847656 1265.027344 C 1335.460938 1265.027344 1350.941406 1256.488281 1364.550781 1239.140625 C 1377.097656 1222.859375 1383.5 1205.511719 1383.5 1187.628906 C 1383.5 1163.34375 1369.355469 1143.59375 1345.871094 1143.59375 M 1345.335938 1151.597656 C 1356.8125 1151.597656 1362.417969 1159.871094 1362.417969 1176.417969 C 1362.417969 1183.625 1360.816406 1192.96875 1357.878906 1204.976562 C 1352.007812 1227.664062 1343.734375 1242.875 1333.324219 1250.882812 C 1327.722656 1255.152344 1322.648438 1257.289062 1317.578125 1257.289062 C 1312.507812 1257.289062 1307.972656 1255.421875 1304.5 1251.949219 C 1298.894531 1246.347656 1296.226562 1240.472656 1296.226562 1234.871094 C 1296.496094 1233 1297.027344 1229.796875 1298.097656 1225.261719 C 1304.234375 1199.90625 1309.570312 1183.625 1313.84375 1176.152344 C 1323.183594 1159.871094 1333.59375 1151.597656 1345.335938 1151.597656 Z M 1345.335938 1151.597656 " fill-opacity="1" fill-rule="nonzero"/><path fill="#000000" d="M 1633.101562 1189.496094 L 1468.160156 1189.496094 C 1463.890625 1189.496094 1461.753906 1191.367188 1461.753906 1194.835938 C 1461.753906 1198.304688 1463.890625 1200.171875 1468.160156 1200.171875 L 1633.101562 1200.171875 C 1637.371094 1200.171875 1639.503906 1198.304688 1639.503906 1194.835938 C 1639.503906 1191.632812 1636.304688 1189.496094 1633.101562 1189.496094 Z M 1633.101562 1189.496094 " fill-opacity="1" fill-rule="nonzero"/><path fill="#000000" d="M 1756.992188 1237.003906 L 1752.457031 1237.539062 C 1765.265625 1224.996094 1775.140625 1215.921875 1781.8125 1209.78125 L 1807.433594 1186.027344 C 1813.574219 1180.421875 1819.980469 1173.484375 1826.117188 1165.742188 C 1834.390625 1155.601562 1838.394531 1149.464844 1838.394531 1147.328125 C 1838.394531 1144.925781 1837.058594 1143.59375 1834.390625 1143.59375 C 1832.523438 1143.59375 1830.921875 1144.660156 1829.585938 1147.0625 C 1822.914062 1158.003906 1816.777344 1163.34375 1810.90625 1163.34375 C 1805.035156 1163.34375 1800.761719 1158.539062 1798.359375 1155.335938 C 1791.957031 1147.59375 1785.550781 1143.59375 1779.410156 1143.59375 C 1772.472656 1143.59375 1765.265625 1146.792969 1757.792969 1153.734375 C 1750.320312 1160.671875 1746.582031 1167.613281 1746.582031 1174.550781 C 1746.582031 1177.21875 1747.917969 1178.554688 1750.855469 1178.554688 C 1752.722656 1178.554688 1754.324219 1177.21875 1755.390625 1174.820312 C 1758.328125 1167.078125 1765.53125 1163.34375 1776.476562 1163.34375 C 1780.210938 1163.34375 1785.550781 1164.675781 1792.757812 1167.078125 C 1799.160156 1169.480469 1805.300781 1170.816406 1810.90625 1171.082031 C 1795.957031 1185.761719 1784.484375 1196.4375 1776.207031 1203.644531 L 1752.457031 1225.796875 C 1748.453125 1229.796875 1743.378906 1235.136719 1737.777344 1241.808594 C 1729.503906 1252.21875 1725.230469 1258.355469 1725.230469 1260.757812 C 1725.230469 1263.160156 1726.566406 1264.496094 1729.503906 1264.496094 C 1731.105469 1264.496094 1732.707031 1263.160156 1734.574219 1260.492188 C 1741.246094 1250.082031 1748.453125 1244.746094 1755.925781 1244.746094 C 1760.195312 1244.746094 1765 1247.945312 1770.335938 1254.621094 C 1775.675781 1261.292969 1781.8125 1264.496094 1787.953125 1264.496094 C 1797.027344 1264.496094 1806.101562 1259.691406 1815.707031 1250.347656 C 1825.316406 1241.007812 1830.121094 1231.933594 1830.121094 1223.125 C 1830.121094 1220.722656 1828.785156 1219.390625 1825.851562 1219.390625 C 1823.984375 1219.390625 1822.382812 1220.722656 1821.046875 1223.394531 C 1817.042969 1234.871094 1805.566406 1244.746094 1790.621094 1244.746094 C 1784.214844 1244.746094 1763.398438 1237.003906 1756.992188 1237.003906 Z M 1756.992188 1237.003906 " fill-opacity="1" fill-rule="nonzero"/><path fill="#000000" d="M 1859.210938 1326.949219 C 1875.226562 1314.671875 1888.570312 1296.523438 1899.511719 1272.234375 C 1909.921875 1249.015625 1915.261719 1227.128906 1915.261719 1206.046875 L 1915.261719 1183.625 C 1915.261719 1162.542969 1909.921875 1140.65625 1899.511719 1117.4375 C 1888.570312 1093.148438 1875.226562 1075 1859.210938 1062.722656 C 1858.410156 1062.1875 1857.609375 1061.921875 1857.34375 1061.921875 C 1854.941406 1061.921875 1853.609375 1063.257812 1853.609375 1065.660156 C 1853.609375 1066.726562 1854.140625 1067.792969 1854.941406 1068.59375 C 1868.820312 1079.269531 1880.03125 1096.886719 1888.304688 1121.171875 C 1895.511719 1142.257812 1899.246094 1163.074219 1899.246094 1183.625 L 1899.246094 1206.046875 C 1899.246094 1226.597656 1895.511719 1247.414062 1888.304688 1268.496094 C 1880.03125 1292.785156 1868.820312 1310.398438 1854.941406 1321.074219 C 1854.140625 1322.144531 1853.609375 1323.210938 1853.609375 1324.011719 C 1853.609375 1326.414062 1854.941406 1327.75 1857.34375 1327.75 C 1857.609375 1327.75 1858.410156 1327.480469 1859.210938 1326.949219 Z M 1859.210938 1326.949219 " fill-opacity="1" fill-rule="nonzero"/><path fill="#000000" d="M 2187.8125 1189.496094 L 2022.871094 1189.496094 C 2018.601562 1189.496094 2016.464844 1191.367188 2016.464844 1194.835938 C 2016.464844 1198.304688 2018.601562 1200.171875 2022.871094 1200.171875 L 2187.8125 1200.171875 C 2192.082031 1200.171875 2194.21875 1198.304688 2194.21875 1194.835938 C 2194.21875 1191.632812 2191.015625 1189.496094 2187.8125 1189.496094 Z M 2187.8125 1189.496094 " fill-opacity="1" fill-rule="nonzero"/><path fill="#000000" d="M 2311.96875 1143.59375 C 2299.960938 1143.59375 2290.617188 1150.265625 2283.945312 1163.609375 C 2278.875 1174.019531 2276.207031 1181.222656 2276.207031 1185.226562 C 2276.207031 1187.628906 2277.542969 1188.964844 2280.476562 1188.964844 C 2284.214844 1188.964844 2284.480469 1187.363281 2285.546875 1183.359375 C 2291.6875 1162.273438 2300.226562 1151.597656 2311.167969 1151.597656 C 2314.640625 1151.597656 2316.507812 1154 2316.507812 1158.804688 C 2316.507812 1163.074219 2315.171875 1169.214844 2312.238281 1176.953125 C 2302.09375 1204.445312 2297.023438 1222.859375 2297.023438 1232.734375 C 2297.023438 1253.019531 2309.570312 1265.027344 2330.121094 1265.027344 C 2338.925781 1265.027344 2347.199219 1261.824219 2354.671875 1255.421875 C 2345.332031 1290.648438 2330.652344 1308.265625 2310.636719 1308.265625 C 2301.5625 1308.265625 2295.421875 1305.328125 2292.21875 1299.457031 C 2302.894531 1298.925781 2308.234375 1293.851562 2308.234375 1284.246094 C 2308.234375 1277.574219 2304.765625 1274.101562 2297.558594 1274.101562 C 2287.683594 1274.101562 2281.8125 1282.375 2281.8125 1292.25 C 2281.8125 1306.929688 2295.15625 1316.273438 2310.636719 1316.273438 C 2341.328125 1316.273438 2366.417969 1287.980469 2373.089844 1261.824219 L 2398.175781 1160.941406 C 2398.976562 1158.003906 2399.246094 1155.867188 2399.246094 1154.535156 C 2399.246094 1149.195312 2396.308594 1146.527344 2390.703125 1146.527344 C 2386.433594 1146.527344 2382.964844 1148.664062 2380.5625 1152.667969 C 2378.960938 1158.269531 2377.625 1163.074219 2376.824219 1167.078125 L 2359.746094 1235.671875 C 2357.074219 1245.277344 2342.929688 1257.289062 2330.917969 1257.289062 C 2320.777344 1257.289062 2315.707031 1250.617188 2315.707031 1237.003906 C 2315.707031 1225.796875 2320.246094 1208.714844 2329.050781 1185.761719 C 2332.519531 1176.417969 2334.390625 1170.015625 2334.390625 1166.277344 C 2334.390625 1153.199219 2325.046875 1143.59375 2311.96875 1143.59375 Z M 2311.96875 1143.59375 " fill-opacity="1" fill-rule="nonzero"/><path fill="#000000" d="M 429.464844 1544.199219 L 413.71875 1609.054688 C 408.113281 1599.179688 400.371094 1594.109375 389.964844 1594.109375 C 372.617188 1594.109375 357.402344 1602.914062 344.058594 1620.796875 C 331.78125 1637.34375 325.644531 1654.691406 325.644531 1672.574219 C 325.644531 1696.0625 339.253906 1715.8125 361.671875 1715.8125 C 373.148438 1715.8125 384.359375 1709.671875 395.035156 1697.128906 C 397.972656 1707.269531 407.046875 1715.8125 419.589844 1715.8125 C 438.003906 1715.8125 443.875 1693.925781 447.878906 1674.175781 C 447.878906 1671.773438 446.546875 1670.441406 443.875 1670.441406 C 441.472656 1670.441406 439.875 1672.308594 439.074219 1676.042969 C 433.734375 1697.128906 427.328125 1707.804688 420.125 1707.804688 C 415.585938 1707.804688 413.183594 1704.066406 413.183594 1696.863281 C 413.183594 1692.859375 413.71875 1688.589844 414.785156 1684.316406 L 452.683594 1531.65625 L 452.683594 1530.585938 C 451.882812 1528.71875 450.28125 1527.652344 448.148438 1527.652344 C 442.007812 1527.652344 430.800781 1528.71875 414.785156 1530.585938 C 411.847656 1530.855469 410.246094 1532.988281 410.246094 1536.726562 C 410.246094 1539.394531 412.648438 1540.730469 417.453125 1540.730469 C 422.523438 1540.730469 429.464844 1540.460938 429.464844 1544.199219 M 405.976562 1612.523438 C 408.648438 1618.128906 409.980469 1621.863281 409.980469 1624.265625 C 409.714844 1625.335938 409.449219 1626.667969 409.179688 1628.539062 L 396.101562 1680.316406 C 395.300781 1683.25 393.433594 1686.453125 391.03125 1689.65625 C 381.15625 1701.667969 371.546875 1707.804688 362.207031 1707.804688 C 351.796875 1707.804688 346.460938 1699.796875 346.460938 1684.050781 C 346.460938 1677.644531 348.0625 1668.039062 351.265625 1655.226562 C 356.871094 1632.539062 364.875 1617.0625 374.75 1608.789062 C 380.089844 1604.25 385.160156 1602.113281 390.230469 1602.113281 C 397.4375 1602.113281 402.773438 1605.585938 405.976562 1612.523438 Z M 405.976562 1612.523438 " fill-opacity="1" fill-rule="nonzero"/><path fill="#000000" d="M 496.988281 1688.320312 L 492.453125 1688.855469 C 505.261719 1676.3125 515.136719 1667.238281 521.808594 1661.097656 L 547.429688 1637.34375 C 553.570312 1631.738281 559.976562 1624.800781 566.113281 1617.0625 C 574.386719 1606.917969 578.390625 1600.78125 578.390625 1598.644531 C 578.390625 1596.242188 577.054688 1594.910156 574.386719 1594.910156 C 572.519531 1594.910156 570.917969 1595.976562 569.582031 1598.378906 C 562.910156 1609.320312 556.773438 1614.660156 550.902344 1614.660156 C 545.027344 1614.660156 540.757812 1609.855469 538.355469 1606.652344 C 531.953125 1598.914062 525.546875 1594.910156 519.40625 1594.910156 C 512.46875 1594.910156 505.261719 1598.113281 497.789062 1605.050781 C 490.316406 1611.988281 486.578125 1618.929688 486.578125 1625.867188 C 486.578125 1628.539062 487.914062 1629.871094 490.851562 1629.871094 C 492.71875 1629.871094 494.320312 1628.539062 495.386719 1626.136719 C 498.324219 1618.394531 505.527344 1614.660156 516.472656 1614.660156 C 520.207031 1614.660156 525.546875 1615.992188 532.753906 1618.394531 C 539.15625 1620.796875 545.296875 1622.132812 550.902344 1622.398438 C 535.953125 1637.078125 524.476562 1647.753906 516.203125 1654.960938 L 492.453125 1677.113281 C 488.449219 1681.117188 483.375 1686.453125 477.773438 1693.125 C 469.5 1703.535156 465.226562 1709.671875 465.226562 1712.074219 C 465.226562 1714.476562 466.5625 1715.8125 469.5 1715.8125 C 471.101562 1715.8125 472.699219 1714.476562 474.570312 1711.808594 C 481.242188 1701.398438 488.449219 1696.0625 495.921875 1696.0625 C 500.191406 1696.0625 504.996094 1699.265625 510.332031 1705.9375 C 515.671875 1712.609375 521.808594 1715.8125 527.949219 1715.8125 C 537.023438 1715.8125 546.097656 1711.007812 555.703125 1701.667969 C 565.3125 1692.324219 570.117188 1683.25 570.117188 1674.441406 C 570.117188 1672.039062 568.78125 1670.707031 565.847656 1670.707031 C 563.980469 1670.707031 562.378906 1672.039062 561.042969 1674.710938 C 557.039062 1686.1875 545.5625 1696.0625 530.617188 1696.0625 C 524.210938 1696.0625 503.394531 1688.320312 496.988281 1688.320312 Z M 496.988281 1688.320312 " fill-opacity="1" fill-rule="nonzero"/><path fill="#000000" d="M 443.609375 1907.707031 L 427.863281 1972.5625 C 422.257812 1962.6875 414.519531 1957.617188 404.109375 1957.617188 C 386.761719 1957.617188 371.546875 1966.425781 358.203125 1984.304688 C 345.925781 2000.855469 339.789062 2018.203125 339.789062 2036.082031 C 339.789062 2059.570312 353.398438 2079.320312 375.820312 2079.320312 C 387.296875 2079.320312 398.503906 2073.183594 409.179688 2060.636719 C 412.117188 2070.78125 421.191406 2079.320312 433.734375 2079.320312 C 452.148438 2079.320312 458.023438 2057.433594 462.023438 2037.683594 C 462.023438 2035.28125 460.691406 2033.949219 458.023438 2033.949219 C 455.621094 2033.949219 454.019531 2035.816406 453.21875 2039.554688 C 447.878906 2060.636719 441.472656 2071.3125 434.269531 2071.3125 C 429.730469 2071.3125 427.328125 2067.578125 427.328125 2060.371094 C 427.328125 2056.367188 427.863281 2052.097656 428.929688 2047.828125 L 466.828125 1895.164062 L 466.828125 1894.097656 C 466.027344 1892.226562 464.425781 1891.160156 462.292969 1891.160156 C 456.152344 1891.160156 444.945312 1892.226562 428.929688 1894.097656 C 425.996094 1894.363281 424.394531 1896.5 424.394531 1900.234375 C 424.394531 1902.902344 426.796875 1904.238281 431.597656 1904.238281 C 436.671875 1904.238281 443.609375 1903.972656 443.609375 1907.707031 M 420.125 1976.03125 C 422.792969 1981.636719 424.125 1985.375 424.125 1987.777344 C 423.859375 1988.84375 423.59375 1990.179688 423.324219 1992.046875 L 410.246094 2043.824219 C 409.449219 2046.757812 407.578125 2049.960938 405.175781 2053.164062 C 395.300781 2065.175781 385.695312 2071.3125 376.351562 2071.3125 C 365.945312 2071.3125 360.605469 2063.308594 360.605469 2047.558594 C 360.605469 2041.15625 362.207031 2031.546875 365.410156 2018.734375 C 371.015625 1996.050781 379.023438 1980.570312 388.898438 1972.296875 C 394.234375 1967.757812 399.304688 1965.625 404.375 1965.625 C 411.582031 1965.625 416.921875 1969.09375 420.125 1976.03125 Z M 420.125 1976.03125 " fill-opacity="1" fill-rule="nonzero"/><path fill="#000000" d="M 555.972656 1964.554688 C 555.972656 1962.152344 553.304688 1960.820312 547.699219 1960.820312 L 526.078125 1960.820312 C 533.019531 1933.0625 536.488281 1918.652344 536.488281 1917.582031 C 536.488281 1911.976562 533.554688 1909.308594 527.949219 1909.308594 C 521.808594 1909.308594 518.074219 1912.777344 516.472656 1919.71875 L 506.597656 1960.820312 L 482.84375 1960.820312 C 476.972656 1960.820312 474.035156 1961.085938 474.035156 1966.691406 C 474.035156 1969.628906 476.703125 1970.960938 482.308594 1970.960938 L 503.925781 1970.960938 C 490.851562 2023.007812 484.445312 2050.496094 484.445312 2053.964844 C 484.445312 2068.910156 494.585938 2079.320312 509.53125 2079.320312 C 519.675781 2079.320312 528.480469 2074.785156 536.222656 2065.441406 C 542.628906 2057.703125 547.164062 2050.230469 550.101562 2043.023438 C 551.167969 2040.085938 551.703125 2038.484375 551.703125 2037.683594 C 551.703125 2035.28125 550.367188 2033.949219 547.699219 2033.949219 C 545.5625 2033.949219 543.960938 2035.28125 542.894531 2038.21875 C 533.820312 2060.371094 522.878906 2071.3125 509.800781 2071.3125 C 505.261719 2071.3125 502.859375 2067.578125 502.859375 2060.371094 C 502.859375 2056.367188 503.394531 2052.097656 504.460938 2047.828125 L 523.410156 1970.960938 L 547.164062 1970.960938 C 554.105469 1970.960938 555.972656 1970.429688 555.972656 1964.554688 Z M 555.972656 1964.554688 " fill-opacity="1" fill-rule="nonzero"/><path fill="#000000" d="M 288.277344 1834.578125 L 605.082031 1834.578125 L 605.082031 1818.566406 L 288.277344 1818.566406 Z M 288.277344 1834.578125 " fill-opacity="1" fill-rule="nonzero"/><path fill="#000000" d="M 897.542969 1795.347656 L 732.601562 1795.347656 C 728.332031 1795.347656 726.195312 1797.480469 726.195312 1801.484375 C 726.195312 1805.488281 728.332031 1807.621094 732.601562 1807.621094 L 897.542969 1807.621094 C 901.8125 1807.621094 903.949219 1805.488281 903.949219 1801.484375 C 903.949219 1798.28125 901.011719 1795.347656 897.542969 1795.347656 M 897.542969 1845.523438 L 732.601562 1845.523438 C 728.332031 1845.523438 726.195312 1847.65625 726.195312 1851.660156 C 726.195312 1855.664062 728.332031 1857.800781 732.601562 1857.800781 L 897.542969 1857.800781 C 901.8125 1857.800781 903.949219 1855.664062 903.949219 1851.660156 C 903.949219 1848.191406 901.011719 1845.523438 897.542969 1845.523438 Z M 897.542969 1845.523438 " fill-opacity="1" fill-rule="nonzero"/><path fill="#000000" d="M 1133.691406 1793.746094 C 1133.691406 1781.46875 1121.679688 1775.328125 1108.335938 1775.328125 C 1096.859375 1775.328125 1087.785156 1781.46875 1080.84375 1793.746094 C 1075.238281 1781.46875 1065.898438 1775.328125 1052.285156 1775.328125 C 1039.210938 1775.328125 1028.535156 1781.46875 1019.992188 1793.476562 C 1012.785156 1803.886719 1009.050781 1811.625 1009.050781 1816.699219 C 1009.050781 1819.097656 1010.382812 1820.433594 1013.054688 1820.433594 C 1015.457031 1820.433594 1017.058594 1819.097656 1017.589844 1816.699219 C 1022.660156 1801.21875 1033.871094 1783.070312 1051.753906 1783.070312 C 1060.5625 1783.070312 1064.832031 1788.671875 1064.832031 1799.617188 C 1064.832031 1805.222656 1060.027344 1826.039062 1050.6875 1861.800781 C 1046.148438 1879.683594 1038.140625 1888.492188 1026.664062 1888.492188 C 1022.929688 1888.492188 1019.460938 1887.691406 1016.523438 1886.355469 C 1023.460938 1883.6875 1026.933594 1878.882812 1026.933594 1871.945312 C 1026.933594 1865.003906 1023.460938 1861.535156 1016.257812 1861.535156 C 1007.449219 1861.535156 1000.777344 1869.007812 1000.777344 1877.816406 C 1000.777344 1890.09375 1013.320312 1896.230469 1026.398438 1896.230469 C 1037.609375 1896.230469 1046.683594 1890.09375 1053.886719 1877.816406 C 1058.960938 1890.09375 1068.566406 1896.230469 1082.445312 1896.230469 C 1095.257812 1896.230469 1105.933594 1890.09375 1114.472656 1878.082031 C 1121.679688 1867.675781 1125.414062 1859.933594 1125.414062 1854.863281 C 1125.414062 1852.460938 1124.082031 1851.125 1121.414062 1851.125 C 1119.011719 1851.125 1117.675781 1852.460938 1116.875 1854.863281 C 1112.339844 1870.074219 1100.328125 1888.492188 1082.980469 1888.492188 C 1074.171875 1888.492188 1069.636719 1883.152344 1069.636719 1872.210938 C 1069.636719 1868.742188 1070.96875 1861.269531 1073.90625 1849.257812 L 1082.980469 1813.226562 C 1088.050781 1793.210938 1096.324219 1783.070312 1108.066406 1783.070312 C 1111.804688 1783.070312 1115.273438 1783.871094 1118.210938 1785.203125 C 1111.003906 1787.605469 1107.535156 1792.410156 1107.535156 1799.617188 C 1107.535156 1806.554688 1111.269531 1810.023438 1118.476562 1810.023438 C 1127.015625 1810.023438 1133.691406 1802.285156 1133.691406 1793.746094 Z M 1133.691406 1793.746094 " fill-opacity="1" fill-rule="nonzero"/><path fill="#000000" d="M 1189.203125 1775.328125 C 1177.191406 1775.328125 1167.851562 1782 1161.179688 1795.347656 C 1156.109375 1805.753906 1153.441406 1812.960938 1153.441406 1816.964844 C 1153.441406 1819.367188 1154.773438 1820.699219 1157.710938 1820.699219 C 1161.445312 1820.699219 1161.714844 1819.097656 1162.78125 1815.097656 C 1168.917969 1794.011719 1177.460938 1783.335938 1188.402344 1783.335938 C 1191.871094 1783.335938 1193.742188 1785.738281 1193.742188 1790.542969 C 1193.742188 1794.8125 1192.40625 1800.949219 1189.46875 1808.691406 C 1179.328125 1836.179688 1174.257812 1854.597656 1174.257812 1864.472656 C 1174.257812 1884.753906 1186.800781 1896.765625 1207.351562 1896.765625 C 1216.160156 1896.765625 1224.433594 1893.5625 1231.90625 1887.15625 C 1222.566406 1922.386719 1207.886719 1940.003906 1187.867188 1940.003906 C 1178.792969 1940.003906 1172.65625 1937.066406 1169.453125 1931.195312 C 1180.128906 1930.660156 1185.464844 1925.589844 1185.464844 1915.980469 C 1185.464844 1909.308594 1181.996094 1905.839844 1174.792969 1905.839844 C 1164.914062 1905.839844 1159.042969 1914.113281 1159.042969 1923.988281 C 1159.042969 1938.667969 1172.390625 1948.007812 1187.867188 1948.007812 C 1218.5625 1948.007812 1243.648438 1919.71875 1250.320312 1893.5625 L 1275.410156 1792.675781 C 1276.210938 1789.742188 1276.476562 1787.605469 1276.476562 1786.273438 C 1276.476562 1780.933594 1273.542969 1778.265625 1267.9375 1778.265625 C 1263.667969 1778.265625 1260.195312 1780.398438 1257.792969 1784.402344 C 1256.195312 1790.007812 1254.859375 1794.8125 1254.058594 1798.816406 L 1236.976562 1867.40625 C 1234.308594 1877.015625 1220.164062 1889.027344 1208.152344 1889.027344 C 1198.011719 1889.027344 1192.941406 1882.351562 1192.941406 1868.742188 C 1192.941406 1857.53125 1197.476562 1840.449219 1206.285156 1817.496094 C 1209.753906 1808.15625 1211.621094 1801.75 1211.621094 1798.015625 C 1211.621094 1784.9375 1202.28125 1775.328125 1189.203125 1775.328125 Z M 1189.203125 1775.328125 " fill-opacity="1" fill-rule="nonzero"/><path fill="#000000" d="M 1522.074219 1821.234375 L 1357.132812 1821.234375 C 1352.863281 1821.234375 1350.726562 1823.101562 1350.726562 1826.574219 C 1350.726562 1830.042969 1352.863281 1831.910156 1357.132812 1831.910156 L 1522.074219 1831.910156 C 1526.34375 1831.910156 1528.476562 1830.042969 1528.476562 1826.574219 C 1528.476562 1823.371094 1525.273438 1821.234375 1522.074219 1821.234375 Z M 1522.074219 1821.234375 " fill-opacity="1" fill-rule="nonzero"/><path fill="#000000" d="M 1716.691406 1704.867188 C 1682.261719 1704.867188 1659.308594 1745.703125 1651.300781 1777.996094 L 1610.734375 1940.804688 C 1610.734375 1943.738281 1612.070312 1945.074219 1614.472656 1945.074219 L 1615.804688 1945.074219 C 1617.675781 1945.074219 1619.007812 1944.273438 1619.273438 1942.402344 L 1636.355469 1873.546875 C 1642.226562 1889.027344 1653.703125 1896.765625 1670.785156 1896.765625 C 1687.332031 1896.765625 1702.546875 1891.695312 1716.15625 1881.285156 C 1735.105469 1867.140625 1744.714844 1848.722656 1744.714844 1826.574219 C 1744.714844 1808.691406 1738.578125 1795.347656 1726.300781 1786.539062 C 1741.511719 1777.195312 1751.121094 1765.1875 1754.589844 1750.773438 C 1755.390625 1747.304688 1755.925781 1743.835938 1755.925781 1740.898438 C 1755.925781 1718.746094 1738.042969 1704.867188 1716.691406 1704.867188 M 1684.398438 1786.804688 C 1685.730469 1786.003906 1690.535156 1785.738281 1698.277344 1785.738281 C 1700.144531 1785.738281 1701.746094 1786.003906 1703.613281 1786.273438 C 1700.945312 1786.804688 1698.542969 1787.070312 1696.140625 1787.070312 L 1691.335938 1787.070312 C 1688.402344 1787.070312 1686 1787.070312 1684.398438 1786.804688 M 1642.226562 1856.464844 C 1642.226562 1852.195312 1642.761719 1847.925781 1643.828125 1843.652344 L 1659.574219 1779.597656 C 1666.78125 1750.773438 1686 1713.144531 1716.425781 1713.144531 C 1731.636719 1713.144531 1739.109375 1720.882812 1739.109375 1736.09375 C 1739.109375 1739.832031 1738.578125 1744.101562 1737.242188 1749.171875 C 1733.503906 1764.121094 1726.566406 1774.796875 1716.15625 1780.933594 C 1710.285156 1778.796875 1704.414062 1777.730469 1698.542969 1777.730469 C 1686.800781 1777.730469 1674.789062 1777.996094 1674.789062 1787.605469 C 1674.789062 1789.472656 1675.589844 1791.074219 1676.925781 1792.144531 C 1679.328125 1794.011719 1685.464844 1795.078125 1695.875 1795.078125 C 1702.546875 1795.078125 1709.21875 1794.011719 1715.355469 1791.875 C 1722.5625 1797.746094 1726.300781 1806.824219 1726.300781 1819.097656 C 1726.300781 1825.773438 1725.230469 1833.511719 1723.097656 1841.785156 C 1716.957031 1865.804688 1698.808594 1888.757812 1671.050781 1888.757812 C 1652.902344 1888.757812 1642.226562 1875.148438 1642.226562 1856.464844 Z M 1642.226562 1856.464844 " fill-opacity="1" fill-rule="nonzero"/><path fill="#000000" d="M 1799.160156 1868.742188 L 1794.625 1869.273438 C 1807.433594 1856.730469 1817.308594 1847.65625 1823.984375 1841.519531 L 1849.605469 1817.765625 C 1855.742188 1812.160156 1862.148438 1805.222656 1868.285156 1797.480469 C 1876.5625 1787.339844 1880.5625 1781.199219 1880.5625 1779.066406 C 1880.5625 1776.664062 1879.230469 1775.328125 1876.5625 1775.328125 C 1874.691406 1775.328125 1873.089844 1776.394531 1871.757812 1778.796875 C 1865.085938 1789.742188 1858.945312 1795.078125 1853.074219 1795.078125 C 1847.203125 1795.078125 1842.933594 1790.273438 1840.53125 1787.070312 C 1834.125 1779.332031 1827.71875 1775.328125 1821.582031 1775.328125 C 1814.640625 1775.328125 1807.433594 1778.53125 1799.960938 1785.472656 C 1792.488281 1792.410156 1788.753906 1799.347656 1788.753906 1806.289062 C 1788.753906 1808.957031 1790.085938 1810.292969 1793.023438 1810.292969 C 1794.890625 1810.292969 1796.492188 1808.957031 1797.558594 1806.554688 C 1800.496094 1798.816406 1807.703125 1795.078125 1818.644531 1795.078125 C 1822.382812 1795.078125 1827.71875 1796.414062 1834.925781 1798.816406 C 1841.332031 1801.21875 1847.46875 1802.550781 1853.074219 1802.820312 C 1838.128906 1817.496094 1826.652344 1828.171875 1818.378906 1835.378906 L 1794.625 1857.53125 C 1790.621094 1861.535156 1785.550781 1866.875 1779.945312 1873.546875 C 1771.671875 1883.953125 1767.402344 1890.09375 1767.402344 1892.496094 C 1767.402344 1894.898438 1768.734375 1896.230469 1771.671875 1896.230469 C 1773.273438 1896.230469 1774.875 1894.898438 1776.742188 1892.226562 C 1783.414062 1881.820312 1790.621094 1876.480469 1798.09375 1876.480469 C 1802.363281 1876.480469 1807.167969 1879.683594 1812.507812 1886.355469 C 1817.84375 1893.027344 1823.984375 1896.230469 1830.121094 1896.230469 C 1839.195312 1896.230469 1848.269531 1891.425781 1857.878906 1882.085938 C 1867.484375 1872.746094 1872.289062 1863.671875 1872.289062 1854.863281 C 1872.289062 1852.460938 1870.957031 1851.125 1868.019531 1851.125 C 1866.152344 1851.125 1864.550781 1852.460938 1863.214844 1855.128906 C 1859.210938 1866.605469 1847.734375 1876.480469 1832.789062 1876.480469 C 1826.382812 1876.480469 1805.566406 1868.742188 1799.160156 1868.742188 Z M 1799.160156 1868.742188 " fill-opacity="1" fill-rule="nonzero"/></svg>