<svg xmlns="http://www.w3.org/2000/svg" xmlns:xlink="http://www.w3.org/1999/xlink" width="375" zoomAndPan="magnify" viewBox="0 0 281.25 281.249989" height="375" preserveAspectRatio="xMidYMid meet" version="1.0"><defs><clipPath id="f3ec9a635d"><path d="M 53.277344 45.304688 L 227.5625 45.304688 L 227.5625 235.300781 L 53.277344 235.300781 Z M 53.277344 45.304688 " clip-rule="nonzero"/></clipPath><clipPath id="9a0db3ac48"><path d="M 0.277344 0.304688 L 174.210938 0.304688 L 174.210938 190.300781 L 0.277344 190.300781 Z M 0.277344 0.304688 " clip-rule="nonzero"/></clipPath><clipPath id="fa737e4b34"><rect x="0" width="175" y="0" height="191"/></clipPath></defs><g clip-path="url(#f3ec9a635d)"><g transform="matrix(1, 0, 0, 1, 53, 45)"><g clip-path="url(#fa737e4b34)"><g clip-path="url(#9a0db3ac48)"><path fill="#000000" d="M 51.652344 74.859375 C 51.652344 42.167969 70.558594 13.90625 98.054688 0.351562 C 97.066406 0.320312 96.078125 0.308594 95.074219 0.308594 C 42.53125 0.308594 -0.0703125 42.832031 -0.0703125 95.292969 C -0.0703125 147.757812 42.53125 190.296875 95.074219 190.296875 C 128.089844 190.296875 157.167969 173.503906 174.214844 148.003906 C 162.484375 154.316406 149.066406 157.898438 134.800781 157.898438 C 88.875 157.898438 51.652344 120.730469 51.652344 74.859375 Z M 51.652344 74.859375 " fill-opacity="1" fill-rule="nonzero"/></g></g></g></g></svg>