<svg xmlns="http://www.w3.org/2000/svg" xmlns:xlink="http://www.w3.org/1999/xlink" width="500" zoomAndPan="magnify" viewBox="0 0 375 374.999991" height="500" preserveAspectRatio="xMidYMid meet" version="1.0"><defs><clipPath id="986e2623eb"><path d="M 37.5 37.5 L 319 37.5 L 319 337.5 L 37.5 337.5 Z M 37.5 37.5 " clip-rule="nonzero"/></clipPath></defs><g clip-path="url(#986e2623eb)"><path fill="#000000" d="M 150 42.710938 C 150.453125 43.265625 150.863281 43.851562 151.230469 44.464844 C 151.597656 45.078125 151.917969 45.71875 152.191406 46.378906 C 152.460938 47.042969 152.683594 47.71875 152.855469 48.414062 C 153.027344 49.109375 153.144531 49.8125 153.210938 50.527344 C 153.277344 51.238281 153.289062 51.953125 153.25 52.667969 C 153.210938 53.382812 153.121094 54.089844 152.972656 54.792969 C 152.828125 55.492188 152.632812 56.179688 152.386719 56.851562 C 152.140625 57.523438 151.84375 58.171875 151.5 58.800781 C 148.800781 63.753906 146.417969 68.859375 144.359375 74.113281 C 142.296875 79.367188 140.574219 84.730469 139.183594 90.199219 C 137.796875 95.671875 136.753906 101.207031 136.0625 106.808594 C 135.367188 112.410156 135.027344 118.03125 135.039062 123.675781 C 135.039062 199.070312 196.5 260.117188 272.25 260.117188 C 282.148438 260.105469 291.730469 259.105469 300.992188 257.117188 C 301.699219 256.96875 302.410156 256.871094 303.128906 256.824219 C 303.847656 256.777344 304.566406 256.78125 305.285156 256.839844 C 306.003906 256.898438 306.714844 257.007812 307.414062 257.167969 C 308.117188 257.332031 308.804688 257.542969 309.476562 257.804688 C 310.148438 258.066406 310.796875 258.375 311.421875 258.730469 C 312.046875 259.089844 312.644531 259.488281 313.214844 259.933594 C 313.78125 260.375 314.3125 260.859375 314.8125 261.378906 C 315.308594 261.902344 315.765625 262.457031 316.179688 263.042969 C 316.621094 263.65625 317.007812 264.296875 317.339844 264.972656 C 317.675781 265.648438 317.953125 266.34375 318.171875 267.066406 C 318.390625 267.785156 318.546875 268.519531 318.644531 269.265625 C 318.742188 270.011719 318.777344 270.761719 318.75 271.515625 C 318.726562 272.265625 318.636719 273.011719 318.488281 273.75 C 318.339844 274.488281 318.132812 275.210938 317.863281 275.914062 C 317.59375 276.617188 317.269531 277.292969 316.890625 277.945312 C 316.511719 278.59375 316.082031 279.207031 315.601562 279.789062 C 311.933594 284.289062 308.03125 288.574219 303.890625 292.640625 C 299.746094 296.710938 295.390625 300.535156 290.824219 304.117188 C 286.257812 307.703125 281.503906 311.019531 276.570312 314.074219 C 271.632812 317.128906 266.539062 319.902344 261.296875 322.390625 C 256.050781 324.878906 250.683594 327.066406 245.195312 328.957031 C 239.707031 330.851562 234.128906 332.429688 228.464844 333.703125 C 222.800781 334.972656 217.085938 335.925781 211.3125 336.5625 C 205.542969 337.195312 199.753906 337.507812 193.949219 337.5 C 107.511719 337.5 37.5 267.863281 37.5 182.0625 C 37.5 117.488281 77.136719 62.101562 133.574219 38.625 C 134.273438 38.328125 134.992188 38.089844 135.726562 37.910156 C 136.464844 37.730469 137.210938 37.609375 137.964844 37.546875 C 138.722656 37.488281 139.476562 37.488281 140.234375 37.550781 C 140.988281 37.613281 141.734375 37.738281 142.472656 37.921875 C 143.207031 38.105469 143.921875 38.34375 144.621094 38.644531 C 145.316406 38.941406 145.984375 39.296875 146.625 39.703125 C 147.265625 40.109375 147.867188 40.566406 148.433594 41.070312 C 149 41.578125 149.523438 42.125 150 42.710938 " fill-opacity="1" fill-rule="nonzero"/></g></svg>