<svg xmlns="http://www.w3.org/2000/svg" xmlns:xlink="http://www.w3.org/1999/xlink" width="500" zoomAndPan="magnify" viewBox="0 0 375 374.999991" height="500" preserveAspectRatio="xMidYMid meet" version="1.0"><path fill="#ffffff" d="M 200.921875 99.261719 C 196.628906 98.628906 192.144531 98.316406 187.667969 98.316406 C 183.125 98.316406 178.707031 98.628906 174.351562 99.261719 L 187.539062 -0.0078125 L 187.730469 -0.0078125 L 200.921875 99.261719 " fill-opacity="1" fill-rule="nonzero"/><path fill="#ffffff" d="M 200.921875 275.714844 L 187.730469 374.980469 L 187.539062 374.980469 L 174.351562 275.714844 C 178.707031 276.34375 183.125 276.660156 187.667969 276.660156 C 192.144531 276.660156 196.628906 276.34375 200.921875 275.714844 " fill-opacity="1" fill-rule="nonzero"/><path fill="#ffffff" d="M 375.164062 187.425781 L 375.164062 187.550781 L 275.890625 200.742188 C 276.527344 196.445312 276.839844 191.96875 276.839844 187.488281 C 276.839844 183.007812 276.527344 178.527344 275.890625 174.234375 L 375.164062 187.425781 " fill-opacity="1" fill-rule="nonzero"/><path fill="#ffffff" d="M 98.433594 187.488281 C 98.433594 191.96875 98.746094 196.445312 99.378906 200.742188 L 0.109375 187.550781 L 0.109375 187.425781 L 99.378906 174.234375 C 98.746094 178.527344 98.433594 183.007812 98.433594 187.488281 " fill-opacity="1" fill-rule="nonzero"/><path fill="#ffffff" d="M 320.257812 54.957031 L 259.421875 134.476562 C 254.121094 127.347656 247.808594 121.035156 240.617188 115.734375 L 320.195312 54.832031 L 320.257812 54.957031 " fill-opacity="1" fill-rule="nonzero"/><path fill="#ffffff" d="M 134.65625 259.242188 L 55.074219 320.140625 L 55.011719 320.015625 L 115.851562 240.5 C 121.148438 247.628906 127.523438 253.945312 134.65625 259.242188 " fill-opacity="1" fill-rule="nonzero"/><path fill="#ffffff" d="M 320.257812 320.015625 L 320.195312 320.140625 L 240.617188 259.242188 C 247.808594 253.945312 254.121094 247.628906 259.421875 240.5 L 320.257812 320.015625 " fill-opacity="1" fill-rule="nonzero"/><path fill="#ffffff" d="M 134.65625 115.734375 C 127.523438 121.035156 121.148438 127.347656 115.851562 134.476562 L 55.011719 54.957031 L 55.074219 54.832031 L 134.65625 115.734375 " fill-opacity="1" fill-rule="nonzero"/><path fill="#ffffff" d="M 244.90625 51.492188 L 229.574219 108.792969 C 224.839844 106.207031 219.851562 104.121094 214.613281 102.417969 L 244.78125 51.492188 L 244.90625 51.492188 " fill-opacity="1" fill-rule="nonzero"/><path fill="#ffffff" d="M 160.65625 272.554688 L 130.492188 323.488281 L 130.363281 323.488281 L 145.699219 266.183594 C 150.433594 268.707031 155.417969 270.855469 160.65625 272.554688 " fill-opacity="1" fill-rule="nonzero"/><path fill="#ffffff" d="M 323.667969 244.664062 L 323.605469 244.726562 L 266.363281 229.453125 C 268.953125 224.660156 271.035156 219.675781 272.738281 214.433594 L 323.667969 244.664062 " fill-opacity="1" fill-rule="nonzero"/><path fill="#ffffff" d="M 108.90625 145.519531 C 106.320312 150.320312 104.238281 155.300781 102.535156 160.539062 L 51.605469 130.3125 L 51.667969 130.25 L 108.90625 145.519531 " fill-opacity="1" fill-rule="nonzero"/><path fill="#ffffff" d="M 324.296875 131.828125 L 272.992188 161.484375 C 271.414062 156.25 269.328125 151.199219 266.808594 146.402344 L 324.234375 131.699219 L 324.296875 131.828125 " fill-opacity="1" fill-rule="nonzero"/><path fill="#ffffff" d="M 108.464844 228.574219 L 51.039062 243.273438 L 50.972656 243.152344 L 102.28125 213.488281 C 103.859375 218.726562 105.941406 223.773438 108.464844 228.574219 " fill-opacity="1" fill-rule="nonzero"/><path fill="#ffffff" d="M 243.394531 324.054688 L 243.332031 324.117188 L 213.667969 272.808594 C 218.90625 271.234375 223.953125 269.148438 228.6875 266.625 L 243.394531 324.054688 " fill-opacity="1" fill-rule="nonzero"/><path fill="#ffffff" d="M 161.605469 102.164062 C 156.367188 103.742188 151.316406 105.824219 146.582031 108.351562 L 131.878906 50.855469 L 131.941406 50.855469 L 161.605469 102.164062 " fill-opacity="1" fill-rule="nonzero"/><path fill="#ffffff" d="M 262.074219 187.488281 C 262.074219 191.226562 261.808594 194.964844 261.28125 198.546875 C 260.652344 202.496094 259.808594 206.289062 258.648438 209.972656 C 257.226562 214.34375 255.488281 218.507812 253.332031 222.503906 C 251.644531 225.722656 249.695312 228.773438 247.539062 231.722656 C 243.113281 237.675781 237.847656 242.941406 231.84375 247.363281 C 228.738281 249.679688 225.417969 251.734375 221.890625 253.523438 C 217.941406 255.628906 213.730469 257.367188 209.359375 258.683594 C 205.933594 259.738281 202.355469 260.53125 198.722656 261.105469 C 195.140625 261.632812 191.402344 261.894531 187.660156 261.894531 C 183.871094 261.894531 180.183594 261.632812 176.550781 261.105469 C 172.652344 260.476562 168.808594 259.578125 165.125 258.476562 C 160.753906 257.050781 156.59375 255.261719 152.644531 253.15625 C 149.429688 251.46875 146.324219 249.523438 143.429688 247.363281 C 137.476562 242.941406 132.15625 237.675781 127.734375 231.722656 C 125.417969 228.566406 123.363281 225.246094 121.574219 221.769531 C 119.46875 217.765625 117.726562 213.554688 116.414062 209.183594 C 115.359375 205.761719 114.570312 202.179688 113.992188 198.546875 C 113.464844 194.964844 113.199219 191.226562 113.199219 187.488281 C 113.199219 183.75 113.464844 180.007812 113.992188 176.429688 C 114.621094 172.476562 115.464844 168.6875 116.621094 165 C 118.042969 160.628906 119.78125 156.472656 121.941406 152.46875 C 123.628906 149.257812 125.574219 146.203125 127.734375 143.253906 C 132.15625 137.304688 137.476562 132.035156 143.429688 127.613281 C 146.535156 125.292969 149.851562 123.242188 153.378906 121.449219 C 157.328125 119.34375 161.542969 117.605469 165.914062 116.289062 C 169.390625 115.238281 172.917969 114.445312 176.550781 113.867188 C 180.183594 113.339844 183.871094 113.078125 187.660156 113.078125 C 191.402344 113.078125 195.140625 113.339844 198.722656 113.867188 C 202.617188 114.5 206.464844 115.34375 210.148438 116.5 C 214.519531 117.921875 218.679688 119.660156 222.628906 121.820312 C 225.839844 123.503906 228.949219 125.457031 231.84375 127.613281 C 237.847656 132.035156 243.113281 137.304688 247.539062 143.253906 C 249.855469 146.410156 251.910156 149.730469 253.699219 153.203125 C 255.804688 157.207031 257.542969 161.421875 258.863281 165.789062 C 259.914062 169.21875 260.703125 172.792969 261.28125 176.429688 C 261.808594 180.007812 262.074219 183.75 262.074219 187.488281 " fill-opacity="1" fill-rule="nonzero"/></svg>