<svg xmlns="http://www.w3.org/2000/svg" xmlns:xlink="http://www.w3.org/1999/xlink" width="500" zoomAndPan="magnify" viewBox="0 0 375 374.999991" height="500" preserveAspectRatio="xMidYMid meet" version="1.0"><defs><clipPath id="60e5d21022"><path d="M 6.054688 0 L 368.945312 0 L 368.945312 362.890625 L 6.054688 362.890625 Z M 6.054688 0 " clip-rule="nonzero"/></clipPath></defs><g clip-path="url(#60e5d21022)"><path fill="#ffffff" d="M 278.222656 181.445312 C 278.222656 187.402344 277.636719 193.308594 276.464844 199.167969 C 275.339844 204.980469 273.582031 210.644531 271.335938 216.160156 C 269.042969 221.679688 266.257812 226.902344 262.9375 231.835938 C 259.617188 236.816406 255.859375 241.40625 251.660156 245.605469 C 247.460938 249.804688 242.871094 253.5625 237.890625 256.882812 C 232.957031 260.203125 227.734375 262.988281 222.214844 265.28125 C 216.699219 267.527344 211.035156 269.285156 205.175781 270.410156 C 199.363281 271.582031 193.457031 272.167969 187.5 272.167969 C 181.542969 272.167969 175.632812 271.582031 169.824219 270.410156 C 163.964844 269.285156 158.300781 267.527344 152.78125 265.28125 C 147.265625 262.988281 142.039062 260.203125 137.109375 256.882812 C 132.128906 253.5625 127.539062 249.804688 123.339844 245.605469 C 119.140625 241.40625 115.378906 236.816406 112.058594 231.835938 C 108.738281 226.902344 105.957031 221.679688 103.660156 216.160156 C 101.414062 210.644531 99.65625 204.980469 98.535156 199.167969 C 97.363281 193.308594 96.777344 187.402344 96.777344 181.445312 C 96.777344 175.488281 97.363281 169.578125 98.535156 163.769531 C 99.65625 157.910156 101.414062 152.246094 103.660156 146.726562 C 105.957031 141.210938 108.738281 135.984375 112.058594 131.054688 C 115.378906 126.074219 119.140625 121.53125 123.339844 117.285156 C 127.539062 113.085938 132.128906 109.324219 137.109375 106.003906 C 142.039062 102.683594 147.265625 99.902344 152.78125 97.65625 C 158.300781 95.359375 163.964844 93.652344 169.824219 92.480469 C 175.632812 91.308594 181.542969 90.722656 187.5 90.722656 C 193.457031 90.722656 199.363281 91.308594 205.175781 92.480469 C 211.035156 93.652344 216.699219 95.359375 222.214844 97.65625 C 227.734375 99.902344 232.957031 102.683594 237.890625 106.003906 C 242.871094 109.324219 247.460938 113.085938 251.660156 117.285156 C 255.859375 121.53125 259.617188 126.074219 262.9375 131.054688 C 266.257812 135.984375 269.042969 141.210938 271.335938 146.726562 C 273.582031 152.246094 275.339844 157.910156 276.464844 163.769531 C 277.636719 169.578125 278.222656 175.488281 278.222656 181.445312 M 187.5 0 C 190.625 0 193.308594 1.125 195.507812 3.320312 C 197.753906 5.515625 198.828125 8.203125 198.828125 11.328125 L 198.828125 56.6875 C 198.828125 59.8125 197.753906 62.5 195.507812 64.746094 C 193.308594 66.941406 190.625 68.066406 187.5 68.066406 C 184.375 68.066406 181.6875 66.941406 179.492188 64.746094 C 177.246094 62.5 176.171875 59.8125 176.171875 56.6875 L 176.171875 11.328125 C 176.171875 8.203125 177.246094 5.515625 179.492188 3.320312 C 181.6875 1.125 184.375 0 187.5 0 M 187.5 294.871094 C 190.625 294.871094 193.308594 295.945312 195.507812 298.191406 C 197.753906 300.390625 198.828125 303.074219 198.828125 306.199219 L 198.828125 351.5625 C 198.828125 354.6875 197.753906 357.371094 195.507812 359.570312 C 193.308594 361.816406 190.625 362.890625 187.5 362.890625 C 184.375 362.890625 181.6875 361.816406 179.492188 359.570312 C 177.246094 357.371094 176.171875 354.6875 176.171875 351.5625 L 176.171875 306.199219 C 176.171875 303.074219 177.246094 300.390625 179.492188 298.191406 C 181.6875 295.945312 184.375 294.871094 187.5 294.871094 M 368.945312 181.445312 C 368.945312 184.570312 367.820312 187.253906 365.625 189.453125 C 363.425781 191.699219 360.742188 192.773438 357.617188 192.773438 L 312.253906 192.773438 C 309.128906 192.773438 306.445312 191.699219 304.246094 189.453125 C 302 187.253906 300.925781 184.570312 300.925781 181.445312 C 300.925781 178.320312 302 175.632812 304.246094 173.4375 C 306.445312 171.238281 309.128906 170.117188 312.253906 170.117188 L 357.617188 170.117188 C 360.742188 170.117188 363.425781 171.238281 365.625 173.4375 C 367.820312 175.632812 368.945312 178.320312 368.945312 181.445312 M 74.070312 181.445312 C 74.070312 184.570312 73 187.253906 70.75 189.453125 C 68.554688 191.699219 65.867188 192.773438 62.742188 192.773438 L 17.382812 192.773438 C 14.257812 192.773438 11.574219 191.699219 9.375 189.453125 C 7.179688 187.253906 6.054688 184.570312 6.054688 181.445312 C 6.054688 178.320312 7.179688 175.632812 9.375 173.4375 C 11.574219 171.238281 14.257812 170.117188 17.382812 170.117188 L 62.742188 170.117188 C 65.867188 170.117188 68.554688 171.238281 70.75 173.4375 C 73 175.632812 74.070312 178.320312 74.070312 181.445312 M 315.820312 53.125 C 318.015625 55.371094 319.140625 58.007812 319.140625 61.179688 C 319.140625 64.304688 318.015625 66.941406 315.820312 69.1875 L 283.738281 101.269531 C 281.542969 103.464844 278.855469 104.589844 275.730469 104.589844 C 272.558594 104.589844 269.921875 103.464844 267.675781 101.269531 C 265.476562 99.023438 264.355469 96.386719 264.355469 93.210938 C 264.355469 90.085938 265.476562 87.449219 267.722656 85.203125 L 299.753906 53.125 C 302 50.929688 304.636719 49.804688 307.8125 49.804688 C 310.9375 49.804688 313.574219 50.929688 315.820312 53.125 M 107.273438 261.667969 C 109.519531 263.867188 110.59375 266.550781 110.59375 269.675781 C 110.59375 272.800781 109.519531 275.488281 107.273438 277.683594 L 75.242188 309.765625 C 73 311.914062 70.359375 312.988281 67.234375 312.9375 C 64.160156 312.9375 61.523438 311.816406 59.324219 309.617188 C 57.128906 307.421875 56.054688 304.785156 56.007812 301.707031 C 55.957031 298.632812 57.03125 295.945312 59.179688 293.699219 L 91.257812 261.667969 C 93.457031 259.421875 96.140625 258.347656 99.265625 258.347656 C 102.390625 258.347656 105.078125 259.421875 107.273438 261.667969 M 315.820312 309.765625 C 313.574219 311.960938 310.9375 313.085938 307.8125 313.085938 C 304.636719 313.085938 302 311.960938 299.753906 309.765625 L 267.722656 277.683594 C 265.574219 275.488281 264.5 272.800781 264.5 269.726562 C 264.550781 266.601562 265.671875 263.964844 267.820312 261.765625 C 270.019531 259.617188 272.65625 258.496094 275.78125 258.445312 C 278.855469 258.445312 281.492188 259.519531 283.738281 261.667969 L 315.820312 293.699219 C 318.015625 295.945312 319.140625 298.632812 319.140625 301.757812 C 319.140625 304.882812 318.015625 307.566406 315.820312 309.765625 M 107.273438 101.269531 C 105.078125 103.464844 102.390625 104.589844 99.265625 104.589844 C 96.140625 104.589844 93.457031 103.464844 91.257812 101.269531 L 59.179688 69.1875 C 56.933594 66.992188 55.761719 64.304688 55.714844 61.132812 C 55.714844 57.957031 56.785156 55.222656 59.03125 52.976562 C 61.277344 50.78125 64.015625 49.65625 67.1875 49.65625 C 70.359375 49.707031 73.046875 50.878906 75.242188 53.125 L 107.273438 85.203125 C 109.519531 87.449219 110.644531 90.085938 110.644531 93.261719 C 110.644531 96.386719 109.519531 99.070312 107.273438 101.269531 " fill-opacity="1" fill-rule="nonzero"/></g></svg>